<?xml version="1.0" encoding="UTF-8"?>
<svg version="1.1" xmlns="http://www.w3.org/2000/svg" width="2048" height="512">
<path d="M0 0 C675.84 0 1351.68 0 2048 0 C2048 168.96 2048 337.92 2048 512 C1372.16 512 696.32 512 0 512 C0 343.04 0 174.08 0 0 Z " fill="#F4F5F4" transform="translate(0,0)"/>
<path d="M0 0 C1.23556641 0.01740234 1.23556641 0.01740234 2.49609375 0.03515625 C3.32238281 0.04417969 4.14867187 0.05320312 5 0.0625 C5.63808594 0.07410156 6.27617188 0.08570313 6.93359375 0.09765625 C7.26359375 1.08765625 7.59359375 2.07765625 7.93359375 3.09765625 C8.71734375 3.18015625 9.50109375 3.26265625 10.30859375 3.34765625 C11.17484375 3.59515625 12.04109375 3.84265625 12.93359375 4.09765625 C13.93359375 5.91015625 13.93359375 5.91015625 14.93359375 8.09765625 C19.11215987 12.5294688 23.13593943 12.84503515 28.93359375 13.09765625 C29.26359375 12.43765625 29.59359375 11.77765625 29.93359375 11.09765625 C31.60026042 10.43098958 33.26692708 9.76432292 34.93359375 9.09765625 C35.26359375 8.43765625 35.59359375 7.77765625 35.93359375 7.09765625 C37.859375 6.3515625 37.859375 6.3515625 40.24609375 5.66015625 C43.85974916 4.54908088 43.85974916 4.54908088 46.93359375 2.41015625 C50.27087383 0.2200662 54.05453577 0.87386444 57.93359375 1.09765625 C57.93359375 2.08765625 57.93359375 3.07765625 57.93359375 4.09765625 C58.92359375 4.42765625 59.91359375 4.75765625 60.93359375 5.09765625 C61.24508152 8.52402174 61.40837426 10.43296354 59.37109375 13.28515625 C56.98698864 15.05795236 54.75240707 15.98762401 51.99609375 17.0390625 C48.34998249 18.91045673 45.41555569 21.74703504 42.36328125 24.453125 C39.60053119 26.32308927 38.19828744 26.45200912 34.93359375 26.09765625 C35.07247881 29.36882357 35.22089867 32.63949025 35.37109375 35.91015625 C35.41041016 36.83892578 35.44972656 37.76769531 35.49023438 38.72460938 C35.53212891 39.61728516 35.57402344 40.50996094 35.6171875 41.4296875 C35.67217407 42.66295776 35.67217407 42.66295776 35.72827148 43.92114258 C35.86787147 46.27670803 35.86787147 46.27670803 36.93359375 49.09765625 C37.00162342 50.82560977 37.0185502 52.5560099 36.99609375 54.28515625 C36.98707031 55.18621094 36.97804688 56.08726562 36.96875 57.015625 C36.95714844 57.70269531 36.94554687 58.38976562 36.93359375 59.09765625 C35.61359375 59.09765625 34.29359375 59.09765625 32.93359375 59.09765625 C32.93359375 59.75765625 32.93359375 60.41765625 32.93359375 61.09765625 C31.2674747 61.14037725 29.5997649 61.13829457 27.93359375 61.09765625 C26.41363019 59.57769269 26.44476912 57.94790827 26.05859375 55.84765625 C24.85518017 49.55708526 23.39923429 43.331514 21.93359375 37.09765625 C20.28359375 36.76765625 18.63359375 36.43765625 16.93359375 36.09765625 C16.27359375 37.08765625 15.61359375 38.07765625 14.93359375 39.09765625 C12.55078125 40.265625 12.55078125 40.265625 9.80859375 41.28515625 C8.89851562 41.62933594 7.9884375 41.97351563 7.05078125 42.328125 C6.35210938 42.58207031 5.6534375 42.83601563 4.93359375 43.09765625 C4.89087275 44.7637753 4.89295543 46.4314851 4.93359375 48.09765625 C5.42859375 48.59265625 5.42859375 48.59265625 5.93359375 49.09765625 C6.39459895 55.32122644 6.39459895 55.32122644 4.74609375 58.09765625 C2.93359375 59.09765625 2.93359375 59.09765625 0.37109375 59.09765625 C-2.06640625 58.09765625 -2.06640625 58.09765625 -3.10546875 55.9375 C-4.14338189 52.87017132 -5.01511606 49.78082806 -5.87890625 46.66015625 C-7.78922872 40.35181527 -9.86404219 36.76629296 -14.94140625 32.53515625 C-16.06640625 31.09765625 -16.06640625 31.09765625 -15.75390625 28.41015625 C-15.41359375 27.26546875 -15.41359375 27.26546875 -15.06640625 26.09765625 C-12.87890625 25.78515625 -12.87890625 25.78515625 -10.06640625 26.09765625 C-9.28265625 26.92265625 -8.49890625 27.74765625 -7.69140625 28.59765625 C-5.20688106 31.48798796 -5.20688106 31.48798796 -1.25390625 31.41015625 C0.32390625 31.25546875 0.32390625 31.25546875 1.93359375 31.09765625 C1.93359375 30.43765625 1.93359375 29.77765625 1.93359375 29.09765625 C2.89265625 28.66453125 2.89265625 28.66453125 3.87109375 28.22265625 C6.08565454 27.26942174 6.08565454 27.26942174 6.93359375 25.09765625 C9.99609375 24.47265625 9.99609375 24.47265625 12.93359375 24.09765625 C11.51465145 19.64041378 9.31453847 17.10275327 5.99609375 13.84765625 C5.12082031 12.97625 4.24554687 12.10484375 3.34375 11.20703125 C1.04340755 8.91935392 1.04340755 8.91935392 -2.06640625 8.09765625 C-4.06640625 5.09765625 -4.06640625 5.09765625 -3.75390625 2.97265625 C-2.71090769 0.12811473 -2.71090769 0.12811473 0 0 Z " fill="#0E0E0E" transform="translate(724.06640625,305.90234375)"/>
<path d="M0 0 C1.25554687 -0.01417969 2.51109375 -0.02835937 3.8046875 -0.04296875 C7.125 0.1875 7.125 0.1875 10.125 2.1875 C10.453125 4.31640625 10.453125 4.31640625 10.375 6.75 C10.35953125 7.55566406 10.3440625 8.36132812 10.328125 9.19140625 C10.125 11.1875 10.125 11.1875 9.125 12.1875 C6.42845146 12.26069621 3.75808542 12.27992537 1.0625 12.25 C-0.07541992 12.24323242 -0.07541992 12.24323242 -1.23632812 12.23632812 C-3.11591871 12.2245068 -4.99546899 12.20657078 -6.875 12.1875 C-8.0648306 9.8078388 -8.00849966 8.27264265 -8 5.625 C-8.00386719 4.41650391 -8.00386719 4.41650391 -8.0078125 3.18359375 C-7.70684294 -1.33980175 -3.68533854 0.0188412 0 0 Z " fill="#A4A5A5" transform="translate(1081.875,329.8125)"/>
<path d="M0 0 C2.43816585 -0.0809723 4.87364384 -0.14046972 7.3125 -0.1875 C8.34793945 -0.22520508 8.34793945 -0.22520508 9.40429688 -0.26367188 C14.48177353 -0.33725849 14.48177353 -0.33725849 16.96875 1.28125 C18.64698532 4.07830887 18.1794193 6.83025911 18 10 C11.86341162 12.18189809 6.50668891 12.16065899 0 12 C0 8.04 0 4.08 0 0 Z " fill="#B1B1B2" transform="translate(1272,326)"/>
<path d="M0 0 C0 0.66 0 1.32 0 2 C0.71027344 1.98839844 1.42054688 1.97679687 2.15234375 1.96484375 C3.07144531 1.95582031 3.99054687 1.94679688 4.9375 1.9375 C5.85402344 1.92589844 6.77054688 1.91429687 7.71484375 1.90234375 C10 2 10 2 11 3 C11.0979057 4.49738124 11.12974864 5.99942892 11.125 7.5 C11.12886719 8.72203125 11.12886719 8.72203125 11.1328125 9.96875 C11 12 11 12 10 13 C6.5 13.125 6.5 13.125 3 13 C2.67 12.67 2.34 12.34 2 12 C0.50503158 11.79300437 -0.9966592 11.63320741 -2.5 11.5 C-6.88888889 11.11111111 -6.88888889 11.11111111 -8 10 C-8.14115161 7.32941149 -8.04247107 4.67567762 -8 2 C-4.91190305 0.23537317 -3.76687864 0 0 0 Z " fill="#999898" transform="translate(915,301)"/>
<path d="M0 0 C2.3125 1.6875 2.3125 1.6875 4 4 C4.25 6.75 4.25 6.75 4 9 C2.35 9.33 0.7 9.66 -1 10 C-1 10.66 -1 11.32 -1 12 C-6.94 12.495 -6.94 12.495 -13 13 C-15 8 -15 8 -15 4 C-13.44219668 3.32243118 -11.87849904 2.65840543 -10.3125 2 C-9.44238281 1.62875 -8.57226562 1.2575 -7.67578125 0.875 C-4.89819084 -0.03329234 -2.89912756 -0.28893332 0 0 Z " fill="#B0B0B1" transform="translate(1533,265)"/>
<path d="M0 0 C1 1 1 1 1.09765625 3.06640625 C1.08605469 3.89011719 1.07445312 4.71382813 1.0625 5.5625 C1.05347656 6.38878906 1.04445313 7.21507812 1.03515625 8.06640625 C1.02355469 8.70449219 1.01195312 9.34257812 1 10 C-1.62450086 10.22119939 -4.24870486 10.42746669 -6.875 10.625 C-7.62136719 10.68945312 -8.36773438 10.75390625 -9.13671875 10.8203125 C-11.0870047 10.96087365 -13.04469467 10.98759849 -15 11 C-17 9 -17 9 -17.1875 5.4375 C-17 2 -17 2 -16 1 C-14.26166987 0.57416745 -12.5083239 0.20879946 -10.75 -0.125 C-9.79609375 -0.31320312 -8.8421875 -0.50140625 -7.859375 -0.6953125 C-4.94009549 -1.00638327 -2.81486586 -0.78856171 0 0 Z " fill="#9C9C9C" transform="translate(648,295)"/>
<path d="M0 0 C1.35439668 2.70879335 1.06501451 5.00933268 1 8 C-4.50623443 11.49602186 -8.40770855 13.7013076 -15 13 C-17.09230769 8.56923077 -17.09230769 8.56923077 -16.625 5.6875 C-16.41875 5.130625 -16.2125 4.57375 -16 4 C-15.360625 3.87625 -14.72125 3.7525 -14.0625 3.625 C-13.381875 3.41875 -12.70125 3.2125 -12 3 C-11.67 2.34 -11.34 1.68 -11 1 C-3.58938053 -1.65663717 -3.58938053 -1.65663717 0 0 Z " fill="#868787" transform="translate(1639,220)"/>
<path d="M0 0 C1.19496094 -0.00386719 1.19496094 -0.00386719 2.4140625 -0.0078125 C4.375 0.125 4.375 0.125 5.375 1.125 C5.44679964 2.64428038 5.45892007 4.16667482 5.4375 5.6875 C5.42847656 6.51378906 5.41945313 7.34007812 5.41015625 8.19140625 C5.39855469 8.82949219 5.38695312 9.46757812 5.375 10.125 C0.51448404 12.71727518 -4.27771133 12.31189553 -9.625 12.125 C-11.6484375 8.3984375 -11.6484375 8.3984375 -11.4375 5.9375 C-11.0353125 5.0403125 -11.0353125 5.0403125 -10.625 4.125 C-9.635 3.795 -8.645 3.465 -7.625 3.125 C-7.625 2.465 -7.625 1.805 -7.625 1.125 C-4.78285932 0.17761977 -2.94891609 -0.00960559 0 0 Z " fill="#A6A8A9" transform="translate(1422.625,298.875)"/>
<path d="M0 0 C1.65 0.33 3.3 0.66 5 1 C5 1.66 5 2.32 5 3 C5.99 3 6.98 3 8 3 C7.8125 6.3125 7.8125 6.3125 7 10 C4.58235424 11.92171842 3.11532786 13 0 13 C0 13.66 0 14.32 0 15 C-2.8125 15.25 -2.8125 15.25 -6 15 C-7.9375 13.25 -7.9375 13.25 -9 11 C-8.90981222 8.11399102 -8.00628113 7.00779727 -6.1875 4.75 C-4 3 -4 3 0 3 C0 2.01 0 1.02 0 0 Z " fill="#727273" transform="translate(382,385)"/>
<path d="M0 0 C0.29768758 2.92726116 0.49708479 5.14440651 0 8 C-3.22553368 11.79000207 -5.46509825 13.16600048 -10.375 13.8125 C-12.169375 13.9053125 -12.169375 13.9053125 -14 14 C-15.52194825 11.58278807 -16.01261321 10.26487742 -15.875 7.375 C-15 5 -15 5 -13.125 3.875 C-12.42375 3.58625 -11.7225 3.2975 -11 3 C-9.9805881 2.01979625 -8.97753644 1.02196992 -8 0 C-5.13822943 -1.43088528 -3.06624227 -0.59991697 0 0 Z " fill="#868687" transform="translate(1689,193)"/>
<path d="M0 0 C2.51662648 0.06467965 4.99184871 0.1909155 7.5 0.375 C8.20253906 0.41882813 8.90507813 0.46265625 9.62890625 0.5078125 C14.87145769 0.87145769 14.87145769 0.87145769 16 2 C16.0979057 3.49738124 16.12974864 4.99942892 16.125 6.5 C16.12886719 7.72203125 16.12886719 7.72203125 16.1328125 8.96875 C16 11 16 11 15 12 C13.00041636 12.04080783 10.99954746 12.04254356 9 12 C8.67 11.01 8.34 10.02 8 9 C6.700625 9.020625 5.40125 9.04125 4.0625 9.0625 C2.70834367 9.08399454 1.35243917 9.07148199 0 9 C-1 8 -1 8 -1.125 4.5 C-1 1 -1 1 0 0 Z " fill="#727172" transform="translate(991,319)"/>
<path d="M0 0 C0 2.64 0 5.28 0 8 C-5.52760359 10.10575375 -10.06997733 11.37851209 -16 11 C-17.4783226 8.04335481 -17.06032783 5.25770263 -17 2 C-11.35600642 -0.44064587 -6.02248522 -0.19289099 0 0 Z " fill="#828182" transform="translate(1373,313)"/>
<path d="M0 0 C1 1 1 1 1.1875 3.875 C1 7 1 7 -1 10 C-4.2578125 10.29296875 -4.2578125 10.29296875 -8.125 10.1875 C-10.04699219 10.14689453 -10.04699219 10.14689453 -12.0078125 10.10546875 C-12.99523438 10.07066406 -13.98265625 10.03585937 -15 10 C-15.02689216 8.52093108 -15.04634621 7.04172517 -15.0625 5.5625 C-15.07410156 4.73878906 -15.08570313 3.91507812 -15.09765625 3.06640625 C-15 1 -15 1 -14 0 C-9.27474445 -0.87866322 -4.65503638 -1.45469887 0 0 Z " fill="#878888" transform="translate(1175,335)"/>
<path d="M0 0 C0.70253906 0.00386719 1.40507813 0.00773437 2.12890625 0.01171875 C2.83144531 0.00785156 3.53398438 0.00398438 4.2578125 0 C9.50229247 0.01010497 9.50229247 0.01010497 10.62890625 1.13671875 C10.77005786 3.80730726 10.67137732 6.46104113 10.62890625 9.13671875 C5.67890625 9.46671875 0.72890625 9.79671875 -4.37109375 10.13671875 C-6.66514219 6.69564609 -6.63402431 5.16832066 -6.37109375 1.13671875 C-4.61549433 -0.61888067 -2.33526933 0.00449956 0 0 Z " fill="#8D8D8E" transform="translate(693.37109375,289.86328125)"/>
<path d="M0 0 C1 1 1 1 1.375 4.375 C1 8 1 8 -0.875 9.9375 C-5.27643626 11.43398833 -9.39552906 11.24139945 -14 11 C-15.4783226 8.04335481 -15.06032783 5.25770263 -15 2 C-9.76465209 0.25488403 -5.52479577 -0.2857653 0 0 Z " fill="#7E7D7E" transform="translate(1399,307)"/>
<path d="M0 0 C0 2.97 0 5.94 0 9 C-5.36000789 11.25684543 -9.1977825 12.36263859 -15 12 C-15.33 9.69 -15.66 7.38 -16 5 C-10.47759424 0.88757018 -6.90703976 -0.61669998 0 0 Z " fill="#101010" transform="translate(1588,244)"/>
<path d="M0 0 C1.44826172 -0.02126953 1.44826172 -0.02126953 2.92578125 -0.04296875 C5.70269158 0.18876776 7.32223141 0.76609156 9.6875 2.1875 C9.6875 4.4975 9.6875 6.8075 9.6875 9.1875 C6.96207733 10.55021133 4.72662726 10.35673601 1.6875 10.375 C0.615 10.38917969 -0.4575 10.40335937 -1.5625 10.41796875 C-4.3125 10.1875 -4.3125 10.1875 -6.3125 8.1875 C-6.5 4.625 -6.5 4.625 -6.3125 1.1875 C-4.59154777 -0.53345223 -2.34086086 0.01550239 0 0 Z " fill="#7A797A" transform="translate(832.3125,290.8125)"/>
<path d="M0 0 C-0.33 2.31 -0.66 4.62 -1 7 C-1.99 7.33 -2.98 7.66 -4 8 C-5.09166275 9.93330603 -5.09166275 9.93330603 -6 12 C-6.66 12.66 -7.32 13.32 -8 14 C-9.32 14 -10.64 14 -12 14 C-14 11 -14 11 -13.75 8.625 C-11.8503937 1.97637795 -11.8503937 1.97637795 -9.3125 -0.9375 C-5.81438635 -2.54474141 -3.48931972 -1.27494375 0 0 Z " fill="#595858" transform="translate(1844,71)"/>
<path d="M0 0 C2.1519437 3.22791555 2.20086443 4.28400809 2 8 C-3.34803176 10.67401588 -7.01764103 11.41257648 -13 11 C-14 10 -14 10 -14.375 6.625 C-14 3 -14 3 -12.0625 1.0625 C-8.08678116 -0.31683103 -4.16424411 -0.83448507 0 0 Z " fill="#323232" transform="translate(512,327)"/>
<path d="M0 0 C2.76276177 0.52268466 5.3260876 1.10869587 8 2 C8.32993297 6.72903929 7.6381413 9.09555087 5 13 C4.67 13.99 4.34 14.98 4 16 C1.36 16 -1.28 16 -4 16 C-4 12.37 -4 8.74 -4 5 C-2.68 4.67 -1.36 4.34 0 4 C0 2.68 0 1.36 0 0 Z " fill="#757373" transform="translate(1866,22)"/>
<path d="M0 0 C1.35439668 2.70879335 1.06501451 5.00933268 1 8 C-3.5063786 10.16306173 -6.89120591 11.69665374 -12 11 C-13.875 9.6875 -13.875 9.6875 -15 8 C-15 7.01 -15 6.02 -15 5 C-14.34 4.67 -13.68 4.34 -13 4 C-12.731875 3.34 -12.46375 2.68 -12.1875 2 C-11 0 -11 0 -8.75 -0.8125 C-5.62782445 -1.02537561 -3.03500383 -0.75875096 0 0 Z " fill="#191819" transform="translate(487,337)"/>
<path d="M0 0 C1.2065625 0.0309375 1.2065625 0.0309375 2.4375 0.0625 C4.29526765 3.19748292 4.63890476 5.43721432 4.4375 9.0625 C1.0355513 11.15600689 -1.61522412 11.24192163 -5.5625 11.0625 C-5.5625 11.7225 -5.5625 12.3825 -5.5625 13.0625 C-7.2125 12.7325 -8.8625 12.4025 -10.5625 12.0625 C-10.8925 9.7525 -11.2225 7.4425 -11.5625 5.0625 C-10.99660156 4.78535156 -10.43070313 4.50820312 -9.84765625 4.22265625 C-9.11417969 3.86042969 -8.38070313 3.49820313 -7.625 3.125 C-6.52865234 2.58552734 -6.52865234 2.58552734 -5.41015625 2.03515625 C-1.6191968 0.0394926 -1.6191968 0.0394926 0 0 Z " fill="#2B2A2A" transform="translate(1609.5625,231.9375)"/>
<path d="M0 0 C5.28 0 10.56 0 16 0 C16 2.31 16 4.62 16 7 C12.36804504 9.42130331 10.61650652 9.21022785 6.3125 9.125 C5.13300781 9.10695313 3.95351562 9.08890625 2.73828125 9.0703125 C1.83464844 9.04710937 0.93101563 9.02390625 0 9 C0 6.03 0 3.06 0 0 Z " fill="#1B1C1C" transform="translate(1188,334)"/>
<path d="M0 0 C2 2 2 2 2.5625 4.8125 C1.93535804 8.36630446 1.53688618 8.81721684 -1.1875 10.9375 C-3.75445581 12.56064579 -4.64992012 13.01591272 -7.75 12.875 C-8.4925 12.58625 -9.235 12.2975 -10 12 C-10.99 11.67 -11.98 11.34 -13 11 C-13 9.35 -13 7.7 -13 6 C-12.34 6 -11.68 6 -11 6 C-10.67 5.01 -10.34 4.02 -10 3 C-6.63872845 0.47904634 -4.206845 -0.56849257 0 0 Z " fill="#7C7B7D" transform="translate(1780,129)"/>
<path d="M0 0 C1.98 0 3.96 0 6 0 C6.66 2.31 7.32 4.62 8 7 C5.25440052 9.94897721 2.65882726 12.26205705 -1 14 C-3.1875 14 -3.1875 14 -5 13 C-6.375 10.6875 -6.375 10.6875 -7 8 C-6.125 5.6875 -6.125 5.6875 -5 4 C-4.01 4 -3.02 4 -2 4 C-1.34 2.68 -0.68 1.36 0 0 Z " fill="#696A6A" transform="translate(1752,146)"/>
<path d="M0 0 C2.29160319 -0.02692484 4.58329546 -0.04636124 6.875 -0.0625 C8.15117188 -0.07410156 9.42734375 -0.08570313 10.7421875 -0.09765625 C14 0 14 0 16 1 C16 3.64 16 6.28 16 9 C10.72 8.67 5.44 8.34 0 8 C0 5.36 0 2.72 0 0 Z " fill="#111011" transform="translate(1102,334)"/>
<path d="M0 0 C1.08410156 0.09023438 2.16820312 0.18046875 3.28515625 0.2734375 C5.9375 0.625 5.9375 0.625 6.9375 1.625 C7.07865161 4.29558851 6.97997107 6.94932238 6.9375 9.625 C-2.59418636 9.99879162 -2.59418636 9.99879162 -7.0625 7.625 C-8.0625 6.625 -8.0625 6.625 -8.125 3.5625 C-8.104375 2.593125 -8.08375 1.62375 -8.0625 0.625 C-5.24579077 -0.78335462 -3.11796754 -0.27500548 0 0 Z " fill="#121213" transform="translate(1027.0625,324.375)"/>
<path d="M0 0 C1.875 1.75 1.875 1.75 3 4 C2.73495121 7.00388632 2.16695725 7.83304275 0 10 C-2.2421875 10.703125 -2.2421875 10.703125 -4.875 11.25 C-5.73867188 11.44078125 -6.60234375 11.6315625 -7.4921875 11.828125 C-10.32790954 12.02247355 -11.61957818 11.48361174 -14 10 C-13.42655063 7.13275314 -13.1385485 6.1385485 -11 4 C-10.01 4 -9.02 4 -8 4 C-8 3.34 -8 2.68 -8 2 C-4.77856724 -0.14762184 -3.7404533 -0.561068 0 0 Z " fill="#3D3D3D" transform="translate(410,372)"/>
<path d="M0 0 C0.88042969 0.00644531 1.76085937 0.01289063 2.66796875 0.01953125 C4.8125 0.1875 4.8125 0.1875 5.8125 1.1875 C5.85330783 3.18708364 5.85504356 5.18795254 5.8125 7.1875 C1.31745839 9.34511997 -2.08732637 10.89915213 -7.1875 10.1875 C-9.3394437 6.95958445 -9.38836443 5.90349191 -9.1875 2.1875 C-6.00658874 0.31157797 -3.67406709 -0.05969681 0 0 Z " fill="#636363" transform="translate(614.1875,299.8125)"/>
<path d="M0 0 C0.33 0.33 0.66 0.66 1 1 C0.68548883 6.34668986 -0.26250307 10.07083656 -4 14 C-6.84745085 14.51722338 -9.07511467 14.29248853 -12 14 C-12 12.35 -12 10.7 -12 9 C-11.01 8.67 -10.02 8.34 -9 8 C-9.061875 7.236875 -9.12375 6.47375 -9.1875 5.6875 C-9 3 -9 3 -7.875 1.1875 C-5.19768863 -0.50813053 -3.09910627 -0.2694875 0 0 Z " fill="#131312" transform="translate(1859,47)"/>
<path d="M0 0 C1 1 1 1 1.0625 4.0625 C1.041875 5.031875 1.02125 6.00125 1 7 C-7.03501094 11.07877462 -7.03501094 11.07877462 -11.0625 10.75 C-11.701875 10.5025 -12.34125 10.255 -13 10 C-13.625 6.625 -13.625 6.625 -14 3 C-10.33542117 -0.66457883 -4.95923742 -0.23066221 0 0 Z " fill="#141414" transform="translate(538,319)"/>
<path d="M0 0 C0 2.64 0 5.28 0 8 C-9.07692308 11.69230769 -9.07692308 11.69230769 -13 11 C-15 8 -15 8 -15.0625 5.5 C-14 3 -14 3 -10.875 1.1875 C-7.22260531 -0.15851709 -3.88626867 -0.23793482 0 0 Z " fill="#131313" transform="translate(1508,275)"/>
<path d="M0 0 C1.27875 -0.061875 2.5575 -0.12375 3.875 -0.1875 C4.95394531 -0.23970703 4.95394531 -0.23970703 6.0546875 -0.29296875 C6.69664063 -0.19628906 7.33859375 -0.09960938 8 0 C10 3 10 3 10 7 C1.99737282 11.0623358 1.99737282 11.0623358 -2 10.8125 C-4 10 -4 10 -5 9 C-5.04063832 7.33382885 -5.042721 5.66611905 -5 4 C-4.0409375 3.8453125 -4.0409375 3.8453125 -3.0625 3.6875 C-2.381875 3.460625 -1.70125 3.23375 -1 3 C-0.67 2.01 -0.34 1.02 0 0 Z " fill="#191818" transform="translate(1654,208)"/>
<path d="M0 0 C2.14809171 3.22213757 2.29386153 4.27775401 2 8 C0.12434165 9.87565835 -2.9783123 9.43313246 -5.5 9.625 C-7.27890625 9.76808594 -7.27890625 9.76808594 -9.09375 9.9140625 C-10.0528125 9.94242187 -11.011875 9.97078125 -12 10 C-13 9 -13 9 -13.0625 5.4375 C-13.041875 4.303125 -13.02125 3.16875 -13 2 C-3.64719905 -0.5363528 -3.64719905 -0.5363528 0 0 Z " fill="#4F4D4F" transform="translate(591,305)"/>
<path d="M0 0 C1.93166016 0.01740234 1.93166016 0.01740234 3.90234375 0.03515625 C5.19269531 0.04417969 6.48304687 0.05320312 7.8125 0.0625 C8.81152344 0.07410156 9.81054688 0.08570313 10.83984375 0.09765625 C10.83984375 2.73765625 10.83984375 5.37765625 10.83984375 8.09765625 C5.88984375 8.09765625 0.93984375 8.09765625 -4.16015625 8.09765625 C-4.16015625 0.1285586 -4.16015625 0.1285586 0 0 Z " fill="#0C0B0C" transform="translate(1221.16015625,333.90234375)"/>
<path d="M0 0 C4.875 1.875 4.875 1.875 6 3 C6.5 5.125 6.5 5.125 6 8 C3.987228 10.72055995 1.83958957 13.14156943 -1 15 C-3.35041102 14.73013799 -4.88895717 14.05552142 -7 13 C-6.55328106 7.93718536 -4.26430066 5.67233825 -1 2 C-0.67 1.34 -0.34 0.68 0 0 Z " fill="#282727" transform="translate(298,458)"/>
<path d="M0 0 C0.875 2.5625 0.875 2.5625 1 6 C-1.28699746 10.15203968 -3.7626131 12.62644924 -8.3125 14 C-9.199375 14 -10.08625 14 -11 14 C-12 13 -12 13 -12.25 10.625 C-11.95377195 7.51460543 -11.27121773 6.9986716 -9 5 C-8.67 4.01 -8.34 3.02 -8 2 C-5.01540871 0.04457812 -3.73585209 0 0 0 Z " fill="#2C2D2D" transform="translate(1802,110)"/>
<path d="M0 0 C2.14576637 -0.02685938 4.29162645 -0.04633088 6.4375 -0.0625 C7.63246094 -0.07410156 8.82742188 -0.08570313 10.05859375 -0.09765625 C13 0 13 0 14 1 C14 3.31 14 5.62 14 8 C9.38 8 4.76 8 0 8 C0 5.36 0 2.72 0 0 Z " fill="#282929" transform="translate(744,289)"/>
<path d="M0 0 C1.670625 0.061875 1.670625 0.061875 3.375 0.125 C3.375 2.435 3.375 4.745 3.375 7.125 C-1.23512242 10.07547835 -3.99029617 11.6747272 -9.625 11.125 C-9.955 8.815 -10.285 6.505 -10.625 4.125 C-9.449375 3.691875 -9.449375 3.691875 -8.25 3.25 C-0.725 0.025 -0.725 0.025 0 0 Z " fill="#282728" transform="translate(457.625,347.875)"/>
<path d="M0 0 C4.41355564 0.28474553 6.94532123 1.32525938 10.875 3.25 C10.917721 4.91611905 10.91563832 6.58382885 10.875 8.25 C9.22650947 9.89849053 7.32453365 9.4602571 5.0625 9.5 C4.18980469 9.52578125 3.31710937 9.5515625 2.41796875 9.578125 C-0.61024309 9.18738799 -1.95030715 8.36456309 -4.125 6.25 C-4.4375 3.625 -4.4375 3.625 -4.125 1.25 C-3.125 0.25 -3.125 0.25 0 0 Z " fill="#171718" transform="translate(940.125,307.75)"/>
<path d="M0 0 C2.14576637 -0.02685938 4.29162645 -0.04633088 6.4375 -0.0625 C7.63246094 -0.07410156 8.82742188 -0.08570313 10.05859375 -0.09765625 C13 0 13 0 14 1 C14.125 4 14.125 4 14 7 C13 8 13 8 10.05859375 8.09765625 C8.26615234 8.08025391 8.26615234 8.08025391 6.4375 8.0625 C4.64119141 8.04896484 4.64119141 8.04896484 2.80859375 8.03515625 C1.88175781 8.02355469 0.95492187 8.01195312 0 8 C0 5.36 0 2.72 0 0 Z " fill="#303131" transform="translate(799,290)"/>
<path d="M0 0 C1.125 4.75 1.125 4.75 0 7 C-1.92578125 7.88671875 -1.92578125 7.88671875 -4.3125 8.6875 C-5.09238281 8.95949219 -5.87226562 9.23148437 -6.67578125 9.51171875 C-9.18274511 10.03839183 -10.60132343 9.8178554 -13 9 C-13.33 7.02 -13.66 5.04 -14 3 C-9.07015675 0.96006486 -5.42039575 -0.40652968 0 0 Z " fill="#313131" transform="translate(1480,285)"/>
<path d="M0 0 C-0.85464844 0.63808594 -1.70929687 1.27617187 -2.58984375 1.93359375 C-3.70576066 2.76818707 -4.82164436 3.60282478 -5.9375 4.4375 C-6.50146484 4.85837891 -7.06542969 5.27925781 -7.64648438 5.71289062 C-10.42877222 7.73098567 -10.42877222 7.73098567 -13 10 C-14.66617115 10.04063832 -16.33388095 10.042721 -18 10 C-17.86111494 13.27116732 -17.71269508 16.541834 -17.5625 19.8125 C-17.52318359 20.74126953 -17.48386719 21.67003906 -17.44335938 22.62695312 C-17.40146484 23.51962891 -17.35957031 24.41230469 -17.31640625 25.33203125 C-17.27974854 26.15421143 -17.24309082 26.9763916 -17.20532227 27.82348633 C-17.06572228 30.17905178 -17.06572228 30.17905178 -16 33 C-15.93197033 34.72795352 -15.91504355 36.45835365 -15.9375 38.1875 C-15.94652344 39.08855469 -15.95554687 39.98960937 -15.96484375 40.91796875 C-15.97644531 41.60503906 -15.98804688 42.29210937 -16 43 C-16.66 43 -17.32 43 -18 43 C-18.08302368 42.0255896 -18.08302368 42.0255896 -18.16772461 41.03149414 C-18.42313982 38.04172759 -18.68030926 35.05211432 -18.9375 32.0625 C-19.02451172 31.04091797 -19.11152344 30.01933594 -19.20117188 28.96679688 C-19.33168945 27.45375977 -19.33168945 27.45375977 -19.46484375 25.91015625 C-19.54750488 24.91193848 -19.63016602 23.9137207 -19.71533203 22.88525391 C-19.89761004 21.03777405 -20.12868052 19.19406929 -20.42138672 17.36083984 C-21.35109938 11.48941125 -21.35109938 11.48941125 -19.453125 8.84375 C-18.72609375 8.4003125 -17.9990625 7.956875 -17.25 7.5 C-16.53328125 7.0359375 -15.8165625 6.571875 -15.078125 6.09375 C-13 5 -13 5 -10 4 C-9.360625 3.34 -8.72125 2.68 -8.0625 2 C-5.38825492 -0.59320735 -3.45892049 -1.72946024 0 0 Z " fill="#909192" transform="translate(777,322)"/>
<path d="M0 0 C1.9587043 0.14076315 3.91696093 0.2877676 5.875 0.4375 C7.51082031 0.55931641 7.51082031 0.55931641 9.1796875 0.68359375 C12 1 12 1 14 2 C14.04254356 3.99954746 14.04080783 6.00041636 14 8 C13 9 13 9 9.75 9.1875 C6.11633609 9.0058168 2.68938064 8.68938064 0 6 C-0.04080783 4.00041636 -0.04254356 1.99954746 0 0 Z " fill="#4E4F4F" transform="translate(882,298)"/>
<path d="M0 0 C0 2.31 0 4.62 0 7 C-2.31 7.33 -4.62 7.66 -7 8 C-7 8.66 -7 9.32 -7 10 C-8.98 10 -10.96 10 -13 10 C-13.33 8.02 -13.66 6.04 -14 4 C-8.78915179 0.84606556 -6.18525243 -0.11454171 0 0 Z " fill="#272727" transform="translate(1454,293)"/>
<path d="M0 0 C4.9057579 0.57233842 6.19254136 2.12259536 9.75 5.4375 C10.74 5.7675 11.73 6.0975 12.75 6.4375 C12.75 5.7775 12.75 5.1175 12.75 4.4375 C14.07 4.7675 15.39 5.0975 16.75 5.4375 C16.09 5.4375 15.43 5.4375 14.75 5.4375 C14.75 6.0975 14.75 6.7575 14.75 7.4375 C11.5625 8.25 11.5625 8.25 7.75 8.4375 C5.125 6 5.125 6 2.75 3.4375 C0.03836222 3.01763054 0.03836222 3.01763054 -2.25 3.4375 C-2.58 4.7575 -2.91 6.0775 -3.25 7.4375 C-2.26 7.7675 -1.27 8.0975 -0.25 8.4375 C1.13123963 10.40472008 2.46488126 12.40618328 3.75 14.4375 C4.41 15.0975 5.07 15.7575 5.75 16.4375 C7.7918529 20.68043286 9.19640176 24.67588118 8.75 29.4375 C8.42 28.1175 8.09 26.7975 7.75 25.4375 C7.09 25.4375 6.43 25.4375 5.75 25.4375 C5.59144531 24.82261719 5.43289063 24.20773437 5.26953125 23.57421875 C3.88357484 18.28301794 3.88357484 18.28301794 0.0625 14.625 C-1.0821875 14.0371875 -1.0821875 14.0371875 -2.25 13.4375 C-2.25 12.1175 -2.25 10.7975 -2.25 9.4375 C-2.91 9.4375 -3.57 9.4375 -4.25 9.4375 C-4.875 6.0625 -4.875 6.0625 -5.25 2.4375 C-3.25 0.4375 -3.25 0.4375 0 0 Z " fill="#929292" transform="translate(711.25,329.5625)"/>
<path d="M0 0 C9.41002278 -0.18451025 9.41002278 -0.18451025 14 1 C14 3.31 14 5.62 14 8 C12.04196493 8.05389087 10.08351091 8.09274217 8.125 8.125 C7.03445313 8.14820313 5.94390625 8.17140625 4.8203125 8.1953125 C2 8 2 8 0 6 C-0.125 2.875 -0.125 2.875 0 0 Z " fill="#4C4C4C" transform="translate(854,295)"/>
<path d="M0 0 C3.63 0 7.26 0 11 0 C10.22714361 3.86428195 9.28980123 7.30256981 8 11 C5.66705225 11.04241723 3.33297433 11.04092937 1 11 C0 10 0 10 -0.09765625 7.71484375 C-0.06510417 5.14322917 -0.03255208 2.57161458 0 0 Z " fill="#606060" transform="translate(1873,0)"/>
<path d="M0 0 C1.32 0 2.64 0 4 0 C6 3 6 3 6 4.875 C4.40612169 8.26199141 2.03693786 9.89750456 -1 12 C-3.875 12.3125 -3.875 12.3125 -6 12 C-6.66 10.35 -7.32 8.7 -8 7 C-2.25 2 -2.25 2 0 2 C0 1.34 0 0.68 0 0 Z " fill="#0E0E0D" transform="translate(359,403)"/>
<path d="M0 0 C0 2.31 0 4.62 0 7 C-2.31197155 7.19390729 -4.6246029 7.37996367 -6.9375 7.5625 C-8.22527344 7.66691406 -9.51304688 7.77132813 -10.83984375 7.87890625 C-11.88269531 7.91886719 -12.92554688 7.95882813 -14 8 C-15 7 -15 7 -15.125 4.5 C-15 2 -15 2 -14 1 C-9.28894974 0.15201095 -4.78105995 -0.09757265 0 0 Z " fill="#252526" transform="translate(1344,320)"/>
<path d="M0 0 C4.03837057 0.26481119 6.35406471 1.22555008 9.8125 3.25 C9.855221 4.91611905 9.85313832 6.58382885 9.8125 8.25 C9.4825 8.58 9.1525 8.91 8.8125 9.25 C6.9974043 9.21212481 5.18363915 9.09507974 3.375 8.9375 C1.89193359 8.81955078 1.89193359 8.81955078 0.37890625 8.69921875 C-2.1875 8.25 -2.1875 8.25 -4.1875 6.25 C-4.375 3.6875 -4.375 3.6875 -4.1875 1.25 C-3.1875 0.25 -3.1875 0.25 0 0 Z " fill="#3F3F3F" transform="translate(968.1875,313.75)"/>
<path d="M0 0 C1.4540625 0.0309375 1.4540625 0.0309375 2.9375 0.0625 C3.2675 2.3725 3.5975 4.6825 3.9375 7.0625 C2.968125 7.371875 1.99875 7.68125 1 8 C-1.90315792 8.75773342 -1.90315792 8.75773342 -3.0625 10.0625 C-6 10.3125 -6 10.3125 -9.0625 10.0625 C-11.0625 7.0625 -11.0625 7.0625 -11.0625 4.0625 C-9.928125 3.588125 -8.79375 3.11375 -7.625 2.625 C-1.72003425 0.03510274 -1.72003425 0.03510274 0 0 Z " fill="#272727" transform="translate(1557.0625,255.9375)"/>
<path d="M0 0 C1.65 0.33 3.3 0.66 5 1 C5.33 2.32 5.66 3.64 6 5 C5.34 5 4.68 5 4 5 C3.731875 5.763125 3.46375 6.52625 3.1875 7.3125 C1.37362637 11.41758242 1.37362637 11.41758242 -1 13 C-3.6875 12.6875 -3.6875 12.6875 -6 12 C-6.71484375 10.265625 -6.71484375 10.265625 -7 8 C-5.56640625 5.859375 -5.56640625 5.859375 -3.5625 3.75 C-2.57443359 2.69039063 -2.57443359 2.69039063 -1.56640625 1.609375 C-1.04949219 1.07828125 -0.53257812 0.5471875 0 0 Z " fill="#1C1C1B" transform="translate(317,439)"/>
<path d="M0 0 C1 1 1 1 1.375 3.375 C1 6 1 6 -1 7.8125 C-4.95748504 9.3790045 -7.75836948 9.28277537 -12 9 C-13 8 -13 8 -13.0625 5.4375 C-13.041875 4.633125 -13.02125 3.82875 -13 3 C-4.33365759 -0.52529183 -4.33365759 -0.52529183 0 0 Z " fill="#0C0C0D" transform="translate(565,312)"/>
<path d="M0 0 C2.14576637 -0.02685938 4.29162645 -0.04633088 6.4375 -0.0625 C7.63246094 -0.07410156 8.82742188 -0.08570313 10.05859375 -0.09765625 C13 0 13 0 14 1 C14 2.98 14 4.96 14 7 C9.38 7 4.76 7 0 7 C0 4.69 0 2.38 0 0 Z " fill="#272828" transform="translate(1133,336)"/>
<path d="M0 0 C1.859375 0.74609375 1.859375 0.74609375 3.859375 1.74609375 C3.859375 2.73609375 3.859375 3.72609375 3.859375 4.74609375 C3.199375 4.74609375 2.539375 4.74609375 1.859375 4.74609375 C1.529375 5.73609375 1.199375 6.72609375 0.859375 7.74609375 C-0.130625 7.74609375 -1.120625 7.74609375 -2.140625 7.74609375 C-2.800625 9.06609375 -3.460625 10.38609375 -4.140625 11.74609375 C-5.790625 11.41609375 -7.440625 11.08609375 -9.140625 10.74609375 C-9.470625 9.09609375 -9.800625 7.44609375 -10.140625 5.74609375 C-8.90327516 4.70996342 -7.65017863 3.69261573 -6.390625 2.68359375 C-5.69453125 2.11511719 -4.9984375 1.54664063 -4.28125 0.9609375 C-2.140625 -0.25390625 -2.140625 -0.25390625 0 0 Z " fill="#1E1D1D" transform="translate(1708.140625,179.25390625)"/>
<path d="M0 0 C1.23556641 0.01740234 1.23556641 0.01740234 2.49609375 0.03515625 C3.32238281 0.04417969 4.14867187 0.05320312 5 0.0625 C5.63808594 0.07410156 6.27617188 0.08570313 6.93359375 0.09765625 C8.04804873 2.3265662 8.09839661 3.62820731 8.12109375 6.09765625 C8.13527344 6.79890625 8.14945313 7.50015625 8.1640625 8.22265625 C7.93359375 10.09765625 7.93359375 10.09765625 5.93359375 12.09765625 C3.36442718 12.40364688 0.88600991 12.60852712 -1.69140625 12.72265625 C-2.75101563 12.78066406 -2.75101563 12.78066406 -3.83203125 12.83984375 C-5.57639149 12.93413349 -7.32136316 13.01698516 -9.06640625 13.09765625 C-10.22415685 9.62440444 -10.13507277 6.73698177 -10.06640625 3.09765625 C-8.93203125 2.78828125 -7.79765625 2.47890625 -6.62890625 2.16015625 C-3.9174895 1.3514881 -2.58036823 0.12194557 0 0 Z M-8.06640625 5.09765625 C-8.10912725 6.7637753 -8.10704457 8.4314851 -8.06640625 10.09765625 C-6.85866372 11.52490031 -6.85866372 11.52490031 -3.31640625 11.34765625 C0.52114997 11.28553753 3.00067607 10.7556129 5.93359375 8.09765625 C6.43419291 5.51248038 6.43419291 5.51248038 5.93359375 3.09765625 C4.92273628 1.88117156 4.92273628 1.88117156 2.87109375 1.84765625 C-1.15731163 2.19049926 -4.32358528 3.5751528 -8.06640625 5.09765625 Z " fill="#B9B9BA" transform="translate(560.06640625,309.90234375)"/>
<path d="M0 0 C4.59945605 0.09266303 8.17257681 1.51146149 12.375 3.3125 C12.375 6.2825 12.375 9.2525 12.375 12.3125 C6.46415882 14.28278039 1.05767535 13.66873124 -4.625 11.3125 C-6.51988952 9.41761048 -5.80519112 6.74110854 -5.85546875 4.22265625 C-5.39118344 0.37459661 -3.58249133 0.30883546 0 0 Z M-4.625 3.3125 C-5.04217279 5.72787838 -5.04217279 5.72787838 -4.625 8.3125 C-2.45030715 10.42706309 -1.11024309 11.24988799 1.91796875 11.640625 C2.79066406 11.61484375 3.66335938 11.5890625 4.5625 11.5625 C5.44292969 11.54703125 6.32335937 11.5315625 7.23046875 11.515625 C9.35578543 11.54414091 9.35578543 11.54414091 10.375 10.3125 C10.41563832 8.64632885 10.417721 6.97861905 10.375 5.3125 C2.80740667 1.45851539 2.80740667 1.45851539 -4.625 3.3125 Z " fill="#B6B6B7" transform="translate(940.625,305.6875)"/>
<path d="M0 0 C0.69416016 -0.01224609 1.38832031 -0.02449219 2.10351562 -0.03710938 C3.92470901 -0.04239842 5.7453692 0.06580793 7.5625 0.1875 C9.5625 2.1875 9.5625 2.1875 9.7578125 4.3515625 C9.73460937 5.16367187 9.71140625 5.97578125 9.6875 6.8125 C9.66945313 7.62976563 9.65140625 8.44703125 9.6328125 9.2890625 C9.60960937 9.91554688 9.58640625 10.54203125 9.5625 11.1875 C7.31276553 11.241638 5.06265617 11.28035491 2.8125 11.3125 C1.55953125 11.33570313 0.3065625 11.35890625 -0.984375 11.3828125 C-4.16570492 11.20287302 -5.80271896 10.87748582 -8.4375 9.1875 C-8.53515625 3.03515625 -8.53515625 3.03515625 -8.4375 1.1875 C-6.45630645 -0.79369355 -2.70304936 0.00249589 0 0 Z M-5.4375 2.1875 C-5.4375 4.4975 -5.4375 6.8075 -5.4375 9.1875 C-0.8175 9.1875 3.8025 9.1875 8.5625 9.1875 C8.5625 7.2075 8.5625 5.2275 8.5625 3.1875 C7.45123341 1.84848208 7.45123341 1.84848208 4.62109375 2.08984375 C3.42613281 2.10144531 2.23117187 2.11304688 1 2.125 C-0.19753906 2.13402344 -1.39507813 2.14304687 -2.62890625 2.15234375 C-4.01916016 2.16974609 -4.01916016 2.16974609 -5.4375 2.1875 Z " fill="#A4A5A5" transform="translate(1138.4375,333.8125)"/>
<path d="M0 0 C0 0.99 0 1.98 0 3 C0.99 3.33 1.98 3.66 3 4 C3.33102914 7.6413205 3.42019439 9.41472925 1.25 12.4375 C-1 14 -1 14 -3.25 13.75 C-4.11625 13.37875 -4.11625 13.37875 -5 13 C-3.9790625 12.2575 -3.9790625 12.2575 -2.9375 11.5 C-0.80204136 9.25732688 -0.80204136 9.25732688 -0.95703125 6.953125 C-1.22259233 4.95610564 -1.60490464 2.97547682 -2 1 C-6.17762205 1.46418023 -8.17682961 1.90795624 -11 5 C-11.99 5 -12.98 5 -14 5 C-14 5.66 -14 6.32 -14 7 C-16.31 7 -18.62 7 -21 7 C-21.33 7.99 -21.66 8.98 -22 10 C-23.65 10.33 -25.3 10.66 -27 11 C-27 11.66 -27 12.32 -27 13 C-27.66 12.67 -28.32 12.34 -29 12 C-27.6100869 9.22017379 -25.81341647 9.12536659 -23 8 C-22.67 7.34 -22.34 6.68 -22 6 C-20.07421875 5.25390625 -20.07421875 5.25390625 -17.6875 4.5625 C-14.07384459 3.45142463 -14.07384459 3.45142463 -11 1.3125 C-7.66271992 -0.87759005 -3.87905798 -0.22379181 0 0 Z " fill="#818081" transform="translate(782,307)"/>
<path d="M0 0 C2 2 2 2 2 3.875 C0.43494044 7.20075156 -1.79646688 8.33662703 -5 10 C-7.75 10 -7.75 10 -10 9 C-11.3125 6.9375 -11.3125 6.9375 -12 5 C-4.65082999 -0.930166 -4.65082999 -0.930166 0 0 Z " fill="#1C1B1B" transform="translate(433,361)"/>
<path d="M0 0 C0.70253906 0.00386719 1.40507813 0.00773437 2.12890625 0.01171875 C2.83144531 0.00785156 3.53398438 0.00398438 4.2578125 0 C9.50229247 0.01010497 9.50229247 0.01010497 10.62890625 1.13671875 C10.72714562 2.80100926 10.75864256 4.46953806 10.75390625 6.13671875 C10.75777344 7.49796875 10.75777344 7.49796875 10.76171875 8.88671875 C10.62890625 11.13671875 10.62890625 11.13671875 9.62890625 12.13671875 C7.11754521 12.23646907 4.6398721 12.27554058 2.12890625 12.26171875 C1.42636719 12.26558594 0.72382812 12.26945312 0 12.2734375 C-5.24447997 12.26333253 -5.24447997 12.26333253 -6.37109375 11.13671875 C-6.46933312 9.47242824 -6.50083006 7.80389944 -6.49609375 6.13671875 C-6.49867188 5.22921875 -6.50125 4.32171875 -6.50390625 3.38671875 C-6.24704944 -0.96473778 -3.78600501 0.00729481 0 0 Z M-4.37109375 3.13671875 C-4.37109375 5.77671875 -4.37109375 8.41671875 -4.37109375 11.13671875 C0.24890625 11.13671875 4.86890625 11.13671875 9.62890625 11.13671875 C9.62890625 8.82671875 9.62890625 6.51671875 9.62890625 4.13671875 C8.51763966 2.79770083 8.51763966 2.79770083 5.6875 3.0390625 C4.49253906 3.05066406 3.29757812 3.06226563 2.06640625 3.07421875 C0.86886719 3.08324219 -0.32867188 3.09226562 -1.5625 3.1015625 C-2.95275391 3.11896484 -2.95275391 3.11896484 -4.37109375 3.13671875 Z " fill="#B6B7B8" transform="translate(748.37109375,285.86328125)"/>
<path d="M0 0 C2.97 0.495 2.97 0.495 6 1 C6.4375 3.1875 6.4375 3.1875 6 6 C3.92554039 8.11446296 1.67166538 9.72389967 -1 11 C-2.32 11 -3.64 11 -5 11 C-5.33 9.02 -5.66 7.04 -6 5 C-2.25 2 -2.25 2 0 2 C0 1.34 0 0.68 0 0 Z " fill="#1B1A1A" transform="translate(1729,164)"/>
<path d="M0 0 C0.33 1.98 0.66 3.96 1 6 C-7.42857143 9.42857143 -7.42857143 9.42857143 -12 9 C-12.33 7.02 -12.66 5.04 -13 3 C-8.37802694 0.78145293 -5.23175837 -0.38281159 0 0 Z " fill="#181717" transform="translate(1534,267)"/>
<path d="M0 0 C1.8871875 -0.00386719 1.8871875 -0.00386719 3.8125 -0.0078125 C7 0.125 7 0.125 9 1.125 C9.02688151 2.77074566 9.04634123 4.41661413 9.0625 6.0625 C9.07410156 6.97902344 9.08570313 7.89554687 9.09765625 8.83984375 C9 11.125 9 11.125 8 12.125 C6.48071962 12.19679964 4.95832518 12.20892007 3.4375 12.1875 C2.61121094 12.17847656 1.78492188 12.16945313 0.93359375 12.16015625 C0.29550781 12.14855469 -0.34257813 12.13695312 -1 12.125 C-1 11.135 -1 10.145 -1 9.125 C1.31 9.125 3.62 9.125 6 9.125 C6 7.475 6 5.825 6 4.125 C1.8794254 2.12714565 -1.45194365 1.94664485 -6 2.125 C-6.15149298 5.75385324 -6.15149298 5.75385324 -5 9.125 C-6.32 9.125 -7.64 9.125 -9 9.125 C-9 6.485 -9 3.845 -9 1.125 C-6.02760209 -0.36119895 -3.30380422 -0.00677009 0 0 Z " fill="#AFAFB0" transform="translate(971,312.875)"/>
<path d="M0 0 C2.15502531 3.23253796 2.46856135 4.25150923 2 8 C0.6875 9.4375 0.6875 9.4375 -1 11 C-2.04622875 12.97620986 -3.05439935 14.9737129 -4 17 C-6.64 17 -9.28 17 -12 17 C-12 16.34 -12 15.68 -12 15 C-12.66 15 -13.32 15 -14 15 C-14.60840716 12.07964565 -14.86591919 10.79076366 -14 8 C-9.91361801 3.59986958 -6.13852826 0 0 0 Z M-5 2 C-6.20254524 3.23553276 -7.38666232 4.48902339 -8.5625 5.75 C-9.22378906 6.44609375 -9.88507813 7.1421875 -10.56640625 7.859375 C-12.2653956 9.89019298 -12.2653956 9.89019298 -11.71484375 12.265625 C-11.47894531 12.83796875 -11.24304688 13.4103125 -11 14 C-9.35 14.33 -7.7 14.66 -6 15 C-5.175 14.05125 -4.35 13.1025 -3.5 12.125 C-3.0359375 11.59132813 -2.571875 11.05765625 -2.09375 10.5078125 C-0.80427542 9.04063579 -0.80427542 9.04063579 -1 7 C-0.34 7 0.32 7 1 7 C0.67 5.68 0.34 4.36 0 3 C-1.65 2.67 -3.3 2.34 -5 2 Z " fill="#A8A8A8" transform="translate(322,437)"/>
<path d="M0 0 C1.79244141 0.01740234 1.79244141 0.01740234 3.62109375 0.03515625 C5.41740234 0.04869141 5.41740234 0.04869141 7.25 0.0625 C8.17683594 0.07410156 9.10367188 0.08570313 10.05859375 0.09765625 C10.05859375 2.07765625 10.05859375 4.05765625 10.05859375 6.09765625 C5.43859375 6.09765625 0.81859375 6.09765625 -3.94140625 6.09765625 C-3.94140625 0.13085678 -3.94140625 0.13085678 0 0 Z " fill="#131213" transform="translate(664.94140625,293.90234375)"/>
<path d="M0 0 C2.31 0.33 4.62 0.66 7 1 C6.25 5.75 6.25 5.75 4 8 C3.3574765 10.06874034 3.3574765 10.06874034 3 12 C0.69 12 -1.62 12 -4 12 C-4 10.68 -4 9.36 -4 8 C-3.34 8 -2.68 8 -2 8 C-1.7834375 7.13375 -1.7834375 7.13375 -1.5625 6.25 C-1.04166667 4.16666667 -0.52083333 2.08333333 0 0 Z " fill="#131313" transform="translate(280,483)"/>
<path d="M0 0 C1.32 0.33 2.64 0.66 4 1 C4 2.65 4 4.3 4 6 C3.01 6.33 2.02 6.66 1 7 C0.67 7.99 0.34 8.98 0 10 C-3 12 -3 12 -5.1875 11.625 C-5.785625 11.41875 -6.38375 11.2125 -7 11 C-7.6875 9.1875 -7.6875 9.1875 -8 7 C-6.15840327 4.51384442 -4.99529289 3.99843096 -2 3 C-1.34 2.01 -0.68 1.02 0 0 Z " fill="#161615" transform="translate(338,420)"/>
<path d="M0 0 C1.79244141 0.01740234 1.79244141 0.01740234 3.62109375 0.03515625 C5.41740234 0.04869141 5.41740234 0.04869141 7.25 0.0625 C8.17683594 0.07410156 9.10367188 0.08570313 10.05859375 0.09765625 C10.05859375 2.07765625 10.05859375 4.05765625 10.05859375 6.09765625 C5.76859375 6.09765625 1.47859375 6.09765625 -2.94140625 6.09765625 C-3.27140625 4.44765625 -3.60140625 2.79765625 -3.94140625 1.09765625 C-2.94140625 0.09765625 -2.94140625 0.09765625 0 0 Z " fill="#343334" transform="translate(913.94140625,303.90234375)"/>
<path d="M0 0 C1.8125 1.75 1.8125 1.75 3 4 C3 5.32 3 6.64 3 8 C2.01 8 1.02 8 0 8 C-0.33 8.99 -0.66 9.98 -1 11 C-3.0625 11.6875 -3.0625 11.6875 -5 12 C-5 12.99 -5 13.98 -5 15 C-10.44736842 16.33157895 -10.44736842 16.33157895 -12.875 14.875 C-14.32233508 12.46277487 -14.22417836 10.7648665 -14 8 C-12.68 7.34 -11.36 6.68 -10 6 C-10 5.34 -10 4.68 -10 4 C-9.34 4 -8.68 4 -8 4 C-8 3.34 -8 2.68 -8 2 C-4.77856724 -0.14762184 -3.7404533 -0.561068 0 0 Z M-4 1 C-4.99 2.485 -4.99 2.485 -6 4 C-6.845625 4.474375 -7.69125 4.94875 -8.5625 5.4375 C-11.1182083 6.76447666 -11.1182083 6.76447666 -11.9375 9.0625 C-11.958125 9.701875 -11.97875 10.34125 -12 11 C-11.34 11.66 -10.68 12.32 -10 13 C-6.98694043 12.61121812 -5.60314689 11.73543126 -3 10 C-3 9.34 -3 8.68 -3 8 C-2.01 7.67 -1.02 7.34 0 7 C0 5.35 0 3.7 0 2 C-1.32 1.67 -2.64 1.34 -4 1 Z " fill="#959595" transform="translate(342,419)"/>
<path d="M0 0 C4.29 0 8.58 0 13 0 C13 2.31 13 4.62 13 7 C8.71 6.67 4.42 6.34 0 6 C0 4.02 0 2.04 0 0 Z " fill="#1C1C1D" transform="translate(1076,333)"/>
<path d="M0 0 C0 2.31 0 4.62 0 7 C-4.29 7 -8.58 7 -13 7 C-13 2 -13 2 -12 1 C-7.90213017 0.39539626 -4.14662899 0 0 0 Z " fill="#1D1D1E" transform="translate(1259,331)"/>
<path d="M0 0 C2.02910711 0.25327449 4.04962145 0.57730068 6.0625 0.9375 C7.16722656 1.13214844 8.27195312 1.32679688 9.41015625 1.52734375 C10.69212891 1.76130859 10.69212891 1.76130859 12 2 C12 3.98 12 5.96 12 8 C10.02043559 7.85966889 8.04134859 7.7125877 6.0625 7.5625 C4.96035156 7.48128906 3.85820313 7.40007812 2.72265625 7.31640625 C0 7 0 7 -1 6 C-1.125 3.5 -1.125 3.5 -1 1 C-0.67 0.67 -0.34 0.34 0 0 Z " fill="#1C1D1C" transform="translate(1049,329)"/>
<path d="M0 0 C0 1.98 0 3.96 0 6 C-6.435 6.495 -6.435 6.495 -13 7 C-13 5.02 -13 3.04 -13 1 C-8.59085217 -0.10228696 -4.51617599 -0.07654536 0 0 Z " fill="#141414" transform="translate(1315,325)"/>
<path d="M0 0 C11.52164009 -0.3690205 11.52164009 -0.3690205 17 2 C17.09765625 8.15234375 17.09765625 8.15234375 17 10 C15.17883997 11.82116003 12.69328236 11.1323508 10.2734375 11.13671875 C9.52320313 11.13285156 8.77296875 11.12898438 8 11.125 C6.87464844 11.13080078 6.87464844 11.13080078 5.7265625 11.13671875 C0.12661053 11.12661053 0.12661053 11.12661053 -1 10 C-1.23880597 2.47761194 -1.23880597 2.47761194 0 0 Z M1 1 C0.83318891 3.91652174 0.83318891 3.91652174 1 7 C4.07229068 10.07229068 6.37188576 9.97870799 10.6875 10.125 C13.8448749 10.38177162 13.8448749 10.38177162 15 9 C15.04080783 7.00041636 15.04254356 4.99954746 15 3 C10.15758367 1.66416101 6.06562383 0.74671881 1 1 Z " fill="#AEAFAE" transform="translate(881,297)"/>
<path d="M0 0 C1.98 0 3.96 0 6 0 C6.33 1.65 6.66 3.3 7 5 C0.92560175 10.05908096 0.92560175 10.05908096 -2.9375 9.8125 C-3.618125 9.544375 -4.29875 9.27625 -5 9 C-5 7.35 -5 5.7 -5 4 C-4.360625 3.71125 -3.72125 3.4225 -3.0625 3.125 C-0.84793921 2.17176549 -0.84793921 2.17176549 0 0 Z " fill="#121212" transform="translate(1680,195)"/>
<path d="M0 0 C0 1.98 0 3.96 0 6 C-1.97854258 6.19397476 -3.9578648 6.38001321 -5.9375 6.5625 C-7.59072266 6.71912109 -7.59072266 6.71912109 -9.27734375 6.87890625 C-10.62505859 6.93884766 -10.62505859 6.93884766 -12 7 C-13 6 -13 6 -13.0625 3.4375 C-13.041875 2.633125 -13.02125 1.82875 -13 1 C-8.59085217 -0.10228696 -4.51617599 -0.07654536 0 0 Z " fill="#1A1A1A" transform="translate(647,297)"/>
<path d="M0 0 C4.29 0 8.58 0 13 0 C13 1.98 13 3.96 13 6 C8.71 6 4.42 6 0 6 C0 4.02 0 2.04 0 0 Z " fill="#0E0E0E" transform="translate(772,290)"/>
<path d="M0 0 C4.29 0 8.58 0 13 0 C13 1.98 13 3.96 13 6 C8.71 6 4.42 6 0 6 C0 4.02 0 2.04 0 0 Z " fill="#161616" transform="translate(717,290)"/>
<path d="M0 0 C1.98 0 3.96 0 6 0 C6.1875 2.375 6.1875 2.375 6 5 C5.01 5.66 4.02 6.32 3 7 C2.67 7.99 2.34 8.98 2 10 C-0.375 10.625 -0.375 10.625 -3 11 C-3.66 10.34 -4.32 9.68 -5 9 C-4.625 5.875 -4.625 5.875 -4 3 C-2.68 2.67 -1.36 2.34 0 2 C0 1.34 0 0.68 0 0 Z " fill="#0B0C0C" transform="translate(1816,93)"/>
<path d="M0 0 C1.76150391 -0.02126953 1.76150391 -0.02126953 3.55859375 -0.04296875 C6.5625 0.1875 6.5625 0.1875 8.5625 2.1875 C8.89002234 4.90204956 8.6933425 7.43980759 8.5625 10.1875 C8.2325 10.5175 7.9025 10.8475 7.5625 11.1875 C5.41508095 11.17581337 3.26782863 11.07832116 1.125 10.9375 C-0.04933594 10.87046875 -1.22367188 10.8034375 -2.43359375 10.734375 C-3.42488281 10.55390625 -4.41617187 10.3734375 -5.4375 10.1875 C-7.73154844 6.74642734 -7.70043056 5.21910191 -7.4375 1.1875 C-5.56506019 -0.68493981 -2.50090482 0.01369608 0 0 Z M-5.4375 1.1875 C-6.73383621 2.25395115 -6.73383621 2.25395115 -6.5 4.75 C-6.479375 5.554375 -6.45875 6.35875 -6.4375 7.1875 C-1.90048506 8.63934478 1.74311476 9.42259196 6.5625 9.1875 C6.5625 7.2075 6.5625 5.2275 6.5625 3.1875 C4.58456479 2.82651937 2.60510427 2.47388652 0.625 2.125 C-0.47714844 1.92777344 -1.57929687 1.73054688 -2.71484375 1.52734375 C-3.61332031 1.41519531 -4.51179688 1.30304688 -5.4375 1.1875 Z " fill="#8F9090" transform="translate(1054.4375,327.8125)"/>
<path d="M0 0 C1.48831242 0.00667405 2.97660807 0.01863442 4.46484375 0.03515625 C5.22345703 0.03966797 5.98207031 0.04417969 6.76367188 0.04882812 C8.64326246 0.06064945 10.52281274 0.07858547 12.40234375 0.09765625 C12.40234375 3.06765625 12.40234375 6.03765625 12.40234375 9.09765625 C7.45234375 9.42765625 2.50234375 9.75765625 -2.59765625 10.09765625 C-4.89170469 6.65658359 -4.86058681 5.12925816 -4.59765625 1.09765625 C-3.59765625 0.09765625 -3.59765625 0.09765625 0 0 Z M-1.59765625 2.09765625 C-1.92765625 2.42765625 -2.25765625 2.75765625 -2.59765625 3.09765625 C-2.59765625 4.74765625 -2.59765625 6.39765625 -2.59765625 8.09765625 C1.69234375 8.09765625 5.98234375 8.09765625 10.40234375 8.09765625 C10.40234375 5.78765625 10.40234375 3.47765625 10.40234375 1.09765625 C6.25571476 1.09765625 2.50021358 1.49305251 -1.59765625 2.09765625 Z " fill="#969697" transform="translate(1248.59765625,329.90234375)"/>
<path d="M0 0 C1.17691406 0.00257813 2.35382812 0.00515625 3.56640625 0.0078125 C5.32791016 0.00394531 5.32791016 0.00394531 7.125 0 C10.12890625 0.1328125 10.12890625 0.1328125 12.12890625 1.1328125 C12.12890625 4.1028125 12.12890625 7.0728125 12.12890625 10.1328125 C9.83749339 10.18665771 7.54572437 10.22553337 5.25390625 10.2578125 C3.33964844 10.29261719 3.33964844 10.29261719 1.38671875 10.328125 C-1.87109375 10.1328125 -1.87109375 10.1328125 -3.87109375 8.1328125 C-4.05859375 4.5703125 -4.05859375 4.5703125 -3.87109375 1.1328125 C-2.87109375 0.1328125 -2.87109375 0.1328125 0 0 Z M-1.87109375 2.1328125 C-1.87109375 4.1128125 -1.87109375 6.0928125 -1.87109375 8.1328125 C2.41890625 8.1328125 6.70890625 8.1328125 11.12890625 8.1328125 C11.12890625 6.1528125 11.12890625 4.1728125 11.12890625 2.1328125 C6.83890625 2.1328125 2.54890625 2.1328125 -1.87109375 2.1328125 Z " fill="#989899" transform="translate(718.87109375,287.8671875)"/>
<path d="M0 0 C0.99 0.33 1.98 0.66 3 1 C1.60804085 3.7839183 -0.15575779 3.97898997 -3 5 C-3.042721 6.66611905 -3.04063832 8.33382885 -3 10 C-2.67 10.33 -2.34 10.66 -2 11 C-1.5389948 17.22357019 -1.5389948 17.22357019 -3.1875 20 C-5 21 -5 21 -7.5625 21 C-10 20 -10 20 -11.05078125 17.80078125 C-12.01720747 14.94922733 -12.85361131 12.09773915 -13.625 9.1875 C-13.88539063 8.21167969 -14.14578125 7.23585938 -14.4140625 6.23046875 C-14.60742188 5.49441406 -14.80078125 4.75835937 -15 4 C-9.88059578 7.90691374 -9.16585054 11.49037742 -8.26171875 17.76953125 C-8.17535156 18.50558594 -8.08898437 19.24164063 -8 20 C-5.96524838 18.67336187 -5.96524838 18.67336187 -4 17 C-3.58282721 14.41537838 -3.58282721 14.41537838 -4 12 C-4.33 11.67 -4.66 11.34 -5 11 C-5.14115161 8.32941149 -5.04247107 5.67567762 -5 3 C-3.35 2.67 -1.7 2.34 0 2 C0 1.34 0 0.68 0 0 Z " fill="#434344" transform="translate(732,344)"/>
<path d="M0 0 C0 1.98 0 3.96 0 6 C-5.94 6.495 -5.94 6.495 -12 7 C-12.33 5.35 -12.66 3.7 -13 2 C-8.46298506 0.54815522 -4.81938524 -0.23509196 0 0 Z " fill="#0F0F0F" transform="translate(1371,315)"/>
<path d="M0 0 C0 1.98 0 3.96 0 6 C-6.435 6.495 -6.435 6.495 -13 7 C-13 5.02 -13 3.04 -13 1 C-11.58366664 0.83052421 -10.16691467 0.66454493 -8.75 0.5 C-7.56664062 0.36078125 -7.56664062 0.36078125 -6.359375 0.21875 C-4 0 -4 0 0 0 Z " fill="#121213" transform="translate(1287,328)"/>
<path d="M0 0 C3.96 0 7.92 0 12 0 C12 1.98 12 3.96 12 6 C8.04 6 4.08 6 0 6 C0 4.02 0 2.04 0 0 Z " fill="#161718" transform="translate(1161,337)"/>
<path d="M0 0 C0 2.97 0 5.94 0 9 C-5.36000789 11.25684543 -9.1977825 12.36263859 -15 12 C-15.33 9.69 -15.66 7.38 -16 5 C-10.47759424 0.88757018 -6.90703976 -0.61669998 0 0 Z M-14 5 C-14.41746608 8.12635209 -14.41746608 8.12635209 -14 11 C-9.2102679 11.23428313 -9.2102679 11.23428313 -5 9 C-5 8.34 -5 7.68 -5 7 C-4.01 7 -3.02 7 -2 7 C-2 5.35 -2 3.7 -2 2 C-6.8665175 1.71373426 -10.27614035 1.61467304 -14 5 Z " fill="#7E7E7F" transform="translate(1588,244)"/>
<path d="M0 0 C3.25 0.8125 3.25 0.8125 4.25 1.8125 C4.29080783 3.81208364 4.29254356 5.81295254 4.25 7.8125 C2.93 8.1425 1.61 8.4725 0.25 8.8125 C0.12625 9.43125 0.0025 10.05 -0.125 10.6875 C-0.75 12.8125 -0.75 12.8125 -2.75 14.8125 C-5.375 14.4375 -5.375 14.4375 -7.75 13.8125 C-7.75 13.1525 -7.75 12.4925 -7.75 11.8125 C-8.74 11.4825 -9.73 11.1525 -10.75 10.8125 C-9.16689373 4.25391689 -9.16689373 4.25391689 -6.625 1.5625 C-3.75 -0.1875 -3.75 -0.1875 0 0 Z M-3.75 1.8125 C-3.75 2.4725 -3.75 3.1325 -3.75 3.8125 C-5.07 4.1425 -6.39 4.4725 -7.75 4.8125 C-8.08 6.7925 -8.41 8.7725 -8.75 10.8125 C-6.91715557 11.93766085 -6.91715557 11.93766085 -4.75 12.8125 C-1.6391846 12.15858221 -1.6391846 12.15858221 -0.6875 9.8125 C-0.378125 9.1525 -0.06875 8.4925 0.25 7.8125 C0.91 7.4825 1.57 7.1525 2.25 6.8125 C2.25 5.1625 2.25 3.5125 2.25 1.8125 C0.27 1.8125 -1.71 1.8125 -3.75 1.8125 Z " fill="#8C8D8E" transform="translate(1819.75,91.1875)"/>
<path d="M0 0 C0.66 0.33 1.32 0.66 2 1 C0 4 0 4 -3 5 C-2.95359375 5.81984375 -2.9071875 6.6396875 -2.859375 7.484375 C-2.82328125 8.56203125 -2.7871875 9.6396875 -2.75 10.75 C-2.70359375 11.81734375 -2.6571875 12.8846875 -2.609375 13.984375 C-3 17 -3 17 -4.75 19.375 C-8.29325725 21.93401913 -10.72905791 21.28472947 -15 21 C-15 18.69 -15 16.38 -15 14 C-14.773125 14.639375 -14.54625 15.27875 -14.3125 15.9375 C-13.14757132 18.23783339 -13.14757132 18.23783339 -10.5 18.875 C-9.2625 18.936875 -9.2625 18.936875 -8 19 C-5.60435072 17.05032721 -5.60435072 17.05032721 -5.8125 13.4375 C-5.60712194 10.17036305 -5.60712194 10.17036305 -7 9 C-7.04063832 7.33382885 -7.042721 5.66611905 -7 4 C-1.7265625 0.77734375 -1.7265625 0.77734375 0 0 Z " fill="#B2B2B4" transform="translate(735,345)"/>
<path d="M0 0 C0 1.65 0 3.3 0 5 C-8.42857143 8.42857143 -8.42857143 8.42857143 -13 8 C-13 6.02 -13 4.04 -13 2 C-11.39658445 1.66307215 -9.79223445 1.33058907 -8.1875 1 C-7.29417969 0.814375 -6.40085937 0.62875 -5.48046875 0.4375 C-3 0 -3 0 0 0 Z " fill="#0F0F0F" transform="translate(1426,302)"/>
<path d="M0 0 C2 2 2 2 2 6 C-2.29 6 -6.58 6 -11 6 C-11 4.35 -11 2.7 -11 1 C-7.31620978 -0.17881287 -3.84458427 -0.21358801 0 0 Z " fill="#181819" transform="translate(700,291)"/>
<path d="M0 0 C0.625 1.8125 0.625 1.8125 1 4 C-1.15697806 7.23546708 -2.51365399 8.37844371 -6 10 C-8.8125 9.6875 -8.8125 9.6875 -11 9 C-11 7.68 -11 6.36 -11 5 C-9.35546875 3.515625 -9.35546875 3.515625 -7.1875 2.25 C-6.47980469 1.82203125 -5.77210938 1.3940625 -5.04296875 0.953125 C-3 0 -3 0 0 0 Z " fill="#0F0F0E" transform="translate(386,388)"/>
<path d="M0 0 C0 1.65 0 3.3 0 5 C-0.969375 5.474375 -1.93875 5.94875 -2.9375 6.4375 C-5.80477437 7.70193947 -5.80477437 7.70193947 -7 9 C-8.66617115 9.04063832 -10.33388095 9.042721 -12 9 C-12 7.35 -12 5.7 -12 4 C-10.75539217 3.32332002 -9.50403104 2.65905281 -8.25 2 C-7.55390625 1.62875 -6.8578125 1.2575 -6.140625 0.875 C-4 0 -4 0 0 0 Z " fill="#0C0B0B" transform="translate(1637,222)"/>
<path d="M0 0 C5.75 -0.125 5.75 -0.125 8 1 C8.31245735 5.58270782 7.92744156 7.50958891 5 11 C4.28837557 12.64797236 3.60968047 14.31165408 3 16 C0.03 15.67 -2.94 15.34 -6 15 C-6.39243487 11.56619488 -6.24054489 10.32072652 -4.125 7.5 C-3.42375 6.675 -2.7225 5.85 -2 5 C-0.75983331 2.3205355 -0.75983331 2.3205355 0 0 Z M0 2 C-1.25664978 4.90600261 -2 6.79604584 -2 10 C-2.66 10 -3.32 10 -4 10 C-4 11.32 -4 12.64 -4 14 C-1.69 14 0.62 14 3 14 C3.433125 12.8553125 3.433125 12.8553125 3.875 11.6875 C5 9 5 9 7 6 C7 5.01 7 4.02 7 3 C4.69 2.67 2.38 2.34 0 2 Z " fill="#939493" transform="translate(280,481)"/>
<path d="M0 0 C0.70253906 0.00386719 1.40507813 0.00773437 2.12890625 0.01171875 C2.83144531 0.00785156 3.53398438 0.00398438 4.2578125 0 C9.50229247 0.01010497 9.50229247 0.01010497 10.62890625 1.13671875 C10.62890625 3.77671875 10.62890625 6.41671875 10.62890625 9.13671875 C5.01890625 9.13671875 -0.59109375 9.13671875 -6.37109375 9.13671875 C-6.37109375 0.01227571 -6.37109375 0.01227571 0 0 Z M-4.37109375 3.13671875 C-4.37109375 4.78671875 -4.37109375 6.43671875 -4.37109375 8.13671875 C0.24890625 8.13671875 4.86890625 8.13671875 9.62890625 8.13671875 C9.62890625 6.15671875 9.62890625 4.17671875 9.62890625 2.13671875 C7.48313988 2.10985937 5.3372798 2.09038787 3.19140625 2.07421875 C1.39896484 2.05681641 1.39896484 2.05681641 -0.4296875 2.0390625 C-3.25982716 1.79770083 -3.25982716 1.79770083 -4.37109375 3.13671875 Z " fill="#8A8A8B" transform="translate(665.37109375,291.86328125)"/>
<path d="M0 0 C3.94796242 0.04407614 7.16874555 0.5478105 10.8125 2.1875 C12.17873674 4.91997348 11.940926 7.16948902 11.8125 10.1875 C10.05690058 11.94309942 7.77667558 11.31971919 5.44140625 11.32421875 C4.73886719 11.32035156 4.03632812 11.31648438 3.3125 11.3125 C2.60996094 11.31636719 1.90742187 11.32023437 1.18359375 11.32421875 C-4.06088622 11.31411378 -4.06088622 11.31411378 -5.1875 10.1875 C-5.2854057 8.69011876 -5.31724864 7.18807108 -5.3125 5.6875 C-5.31507813 4.8728125 -5.31765625 4.058125 -5.3203125 3.21875 C-5.07846965 -0.48002299 -3.26444618 0.02734042 0 0 Z M-4.1875 2.1875 C-4.35431109 5.10402174 -4.35431109 5.10402174 -4.1875 8.1875 C-2.3246051 10.48810534 -2.3246051 10.48810534 0.6328125 10.3828125 C2.26863281 10.34800781 2.26863281 10.34800781 3.9375 10.3125 C5.58105469 10.28542969 5.58105469 10.28542969 7.2578125 10.2578125 C8.10085938 10.23460937 8.94390625 10.21140625 9.8125 10.1875 C9.8125 7.8775 9.8125 5.5675 9.8125 3.1875 C5.14048795 1.98181947 0.59753708 2.09367574 -4.1875 2.1875 Z " fill="#A6A7A6" transform="translate(858.1875,292.8125)"/>
<path d="M0 0 C3.3 0 6.6 0 10 0 C10 0.99 10 1.98 10 3 C10.66 3 11.32 3 12 3 C12 4.65 12 6.3 12 8 C6.02667877 11.4753869 1.88490225 12.57374185 -5 12 C-6.35439668 9.29120665 -6.06501451 6.99066732 -6 4 C-4.7934375 3.566875 -4.7934375 3.566875 -3.5625 3.125 C-0.8673532 2.26737432 -0.8673532 2.26737432 0 0 Z M1 3 C-0.98356483 3.71408334 -2.98315437 4.38617742 -5 5 C-4.62095792 8.29075996 -4.62095792 8.29075996 -3 11 C-0.04182893 11.25005386 -0.04182893 11.25005386 3 11 C3.66 10.34 4.32 9.68 5 9 C7.625 8.375 7.625 8.375 10 8 C9.67 5.69 9.34 3.38 9 1 C4.50695418 0.57496554 4.50695418 0.57496554 1 3 Z " fill="#A5A6A6" transform="translate(1551,255)"/>
<path d="M0 0 C1.62580966 0.11398665 3.25067157 0.24155659 4.875 0.375 C5.77992188 0.44460938 6.68484375 0.51421875 7.6171875 0.5859375 C10 1 10 1 12 3 C12 4.32 12 5.64 12 7 C8.04 6.67 4.08 6.34 0 6 C0 4.02 0 2.04 0 0 Z " fill="#0F0E0F" transform="translate(993,321)"/>
<path d="M0 0 C1.27875 0.00257813 2.5575 0.00515625 3.875 0.0078125 C5.15375 0.00523437 6.4325 0.00265625 7.75 0 C10.875 0.1328125 10.875 0.1328125 11.875 1.1328125 C11.91592937 3.46578683 11.91741723 5.79986475 11.875 8.1328125 C11.545 8.1328125 11.215 8.1328125 10.875 8.1328125 C10.875 6.1528125 10.875 4.1728125 10.875 2.1328125 C4.44 2.6278125 4.44 2.6278125 -2.125 3.1328125 C-2.125 5.1128125 -2.125 7.0928125 -2.125 9.1328125 C0.185 9.1328125 2.495 9.1328125 4.875 9.1328125 C4.875 9.4628125 4.875 9.7928125 4.875 10.1328125 C1.905 10.1328125 -1.065 10.1328125 -4.125 10.1328125 C-4.22265625 3.19921875 -4.22265625 3.19921875 -4.125 1.1328125 C-3.125 0.1328125 -3.125 0.1328125 0 0 Z " fill="#858485" transform="translate(1304.125,322.8671875)"/>
<path d="M0 0 C1.65 0.33 3.3 0.66 5 1 C5 2.32 5 3.64 5 5 C3.05874656 6.73473712 1.05727132 8.4045651 -1 10 C-1.33 10.66 -1.66 11.32 -2 12 C-3.32 11.34 -4.64 10.68 -6 10 C-4.6302836 6.00499382 -2.74277578 3.19990508 0 0 Z " fill="#090909" transform="translate(1837,71)"/>
<path d="M0 0 C0 1.65 0 3.3 0 5 C-1.41538717 5.33872513 -2.83237963 5.67074624 -4.25 6 C-5.03890625 6.185625 -5.8278125 6.37125 -6.640625 6.5625 C-9 7 -9 7 -13 7 C-13 5.35 -13 3.7 -13 2 C-8.46298506 0.54815522 -4.81938524 -0.23509196 0 0 Z " fill="#0E0E0F" transform="translate(1399,309)"/>
<path d="M0 0 C0.33 1.65 0.66 3.3 1 5 C-3.41225737 6.47075246 -6.48281619 7.36884358 -11 6 C-10.67 4.35 -10.34 2.7 -10 1 C-6.59437148 0.22157062 -3.49234244 -0.09978121 0 0 Z " fill="#0E0E0E" transform="translate(618,302)"/>
<path d="M0 0 C1.89105469 0.00966797 1.89105469 0.00966797 3.8203125 0.01953125 C6.875 0.1875 6.875 0.1875 7.875 1.1875 C8.01615161 3.85808851 7.91747107 6.51182238 7.875 9.1875 C5.895 9.5175 3.915 9.8475 1.875 10.1875 C2.865 9.5275 3.855 8.8675 4.875 8.1875 C5.1252157 5.10384129 5.1252157 5.10384129 4.875 2.1875 C3.27092672 2.16041433 1.6667215 2.14106517 0.0625 2.125 C-0.83082031 2.11339844 -1.72414063 2.10179687 -2.64453125 2.08984375 C-5.25913791 2.07740033 -5.25913791 2.07740033 -8.125 3.1875 C-7.795 5.4975 -7.465 7.8075 -7.125 10.1875 C-4.485 10.1875 -1.845 10.1875 0.875 10.1875 C0.545 10.8475 0.215 11.5075 -0.125 12.1875 C-6.1796875 12.3828125 -6.1796875 12.3828125 -8.125 12.1875 C-10.45028287 9.86221713 -10.42011025 9.34084102 -10.4375 6.1875 C-10.45425781 5.48625 -10.47101562 4.785 -10.48828125 4.0625 C-10.36839844 3.44375 -10.24851562 2.825 -10.125 2.1875 C-6.411007 -0.28849533 -4.41782091 -0.04989325 0 0 Z " fill="#B8B9BA" transform="translate(614.125,298.8125)"/>
<path d="M0 0 C1.32 0 2.64 0 4 0 C3.85962479 1.81293089 3.71255111 3.6253443 3.5625 5.4375 C3.48128906 6.44683594 3.40007812 7.45617188 3.31640625 8.49609375 C3 11 3 11 2 12 C0.33382885 12.04063832 -1.33388095 12.042721 -3 12 C-3.28855285 7.0946016 -3.26204794 3.8445565 0 0 Z " fill="#141313" transform="translate(1867,25)"/>
<path d="M0 0 C2.4375 0.25 2.4375 0.25 5 1 C7.02172833 4.03259249 7.43444778 5.55304651 8 9.0625 C8.65332531 12.95134112 9.34313781 16.82223761 10.125 20.6875 C10.29257812 21.51636719 10.46015625 22.34523438 10.6328125 23.19921875 C10.81457031 24.09060547 10.81457031 24.09060547 11 25 C12.65 25.33 14.3 25.66 16 26 C16 25.34 16 24.68 16 24 C16.66 24.33 17.32 24.66 18 25 C17.67 25.99 17.34 26.98 17 28 C14.69 28 12.38 28 10 28 C9.87882813 27.39671875 9.75765625 26.7934375 9.6328125 26.171875 C9.38144531 24.97304688 9.38144531 24.97304688 9.125 23.75 C8.88136719 22.56664062 8.88136719 22.56664062 8.6328125 21.359375 C8.08863801 18.99682885 8.08863801 18.99682885 6.9609375 16.984375 C5.57075891 14.1135997 5.55920082 11.36433195 5.34375 8.21875 C4.9650672 5.77452464 4.30699851 4.09490542 3 2 C0.94999129 1.19471111 0.94999129 1.19471111 -1 1 C-0.67 0.67 -0.34 0.34 0 0 Z " fill="#939394" transform="translate(741,341)"/>
<path d="M0 0 C0.4375 2.1875 0.4375 2.1875 0 5 C-3.0110316 7.99484326 -5.70211613 10 -10 10 C-10.375 7.25 -10.375 7.25 -10 4 C-6.41354184 0.90260432 -4.78912885 0 0 0 Z " fill="#090909" transform="translate(1758,148)"/>
<path d="M0 0 C4.62 0 9.24 0 14 0 C14 0.33 14 0.66 14 1 C10.37 1 6.74 1 3 1 C3 2.98 3 4.96 3 7 C6.96 7 10.92 7 15 7 C15 5.02 15 3.04 15 1 C15.33 1 15.66 1 16 1 C16 3.64 16 6.28 16 9 C10.72 8.67 5.44 8.34 0 8 C0 5.36 0 2.72 0 0 Z " fill="#686769" transform="translate(1102,334)"/>
<path d="M0 0 C1.08410156 0.09023438 2.16820312 0.18046875 3.28515625 0.2734375 C5.9375 0.625 5.9375 0.625 6.9375 1.625 C7.07865161 4.29558851 6.97997107 6.94932238 6.9375 9.625 C-2.59418636 9.99879162 -2.59418636 9.99879162 -7.0625 7.625 C-8.0625 6.625 -8.0625 6.625 -8.125 3.5625 C-8.104375 2.593125 -8.08375 1.62375 -8.0625 0.625 C-5.24579077 -0.78335462 -3.11796754 -0.27500548 0 0 Z M-7.0625 1.625 C-7.0625 3.275 -7.0625 4.925 -7.0625 6.625 C-2.7725 6.955 1.5175 7.285 5.9375 7.625 C5.9375 5.975 5.9375 4.325 5.9375 2.625 C3.29291621 1.30270811 1.25988699 1.52822806 -1.6875 1.5625 C-3.19183594 1.57603516 -3.19183594 1.57603516 -4.7265625 1.58984375 C-5.88285156 1.60724609 -5.88285156 1.60724609 -7.0625 1.625 Z " fill="#656565" transform="translate(1027.0625,324.375)"/>
<path d="M0 0 C0.680625 0.268125 1.36125 0.53625 2.0625 0.8125 C2.0625 2.1325 2.0625 3.4525 2.0625 4.8125 C0.7425 4.8125 -0.5775 4.8125 -1.9375 4.8125 C-2.2675 5.8025 -2.5975 6.7925 -2.9375 7.8125 C-5.2475 7.8125 -7.5575 7.8125 -9.9375 7.8125 C-9.9375 4.8125 -9.9375 4.8125 -8.58203125 3.390625 C-3.58896374 -0.22908279 -3.58896374 -0.22908279 0 0 Z " fill="#0B0A0A" transform="translate(1778.9375,131.1875)"/>
<path d="M0 0 C5.28 0 10.56 0 16 0 C16 2.31 16 4.62 16 7 C15.67 5.68 15.34 4.36 15 3 C8.07 2.505 8.07 2.505 1 2 C1 3.98 1 5.96 1 8 C4.96 8 8.92 8 13 8 C13 8.33 13 8.66 13 9 C8.71 9 4.42 9 0 9 C0 6.03 0 3.06 0 0 Z " fill="#7C7D7E" transform="translate(1188,334)"/>
<path d="M0 0 C3.96 0 7.92 0 12 0 C12 1.65 12 3.3 12 5 C8.37 5 4.74 5 1 5 C0.67 3.35 0.34 1.7 0 0 Z " fill="#0C0C0D" transform="translate(828,294)"/>
<path d="M0 0 C0.99 0 1.98 0 3 0 C5.15559976 3.23339964 5.52353474 4.24800101 5 8 C1.85678044 11.67772644 -1.70973073 13.86175686 -6.5 14.375 C-7.325 14.25125 -8.15 14.1275 -9 14 C-10.50751963 11.60570412 -11.00562203 10.23612509 -10.9375 7.375 C-10 5 -10 5 -7.4375 3.6875 C-6.633125 3.460625 -5.82875 3.23375 -5 3 C-6.32 4.32 -7.64 5.64 -9 7 C-8.34 8.32 -7.68 9.64 -7 11 C-3.04179141 10.43454163 -0.3340947 9.19097652 3 7 C2.72382467 5.05925139 2.72382467 5.05925139 2 3 C1.01 2.34 0.02 1.68 -1 1 C-0.67 0.67 -0.34 0.34 0 0 Z " fill="#8D8D8D" transform="translate(431,359)"/>
<path d="M0 0 C0.66 0.33 1.32 0.66 2 1 C1.505 1.391875 1.01 1.78375 0.5 2.1875 C-1.45593143 4.55091715 -1.24207973 6.01435003 -1 9 C1.93443402 8.73343428 1.93443402 8.73343428 5 8 C5.66 7.01 6.32 6.02 7 5 C7.66 5.33 8.32 5.66 9 6 C8 9 8 9 5.75 10.75 C1.60457737 12.63428302 -0.8431811 11.3856063 -5 10 C-5 7.69 -5 5.38 -5 3 C-4.34 3 -3.68 3 -3 3 C-3 2.34 -3 1.68 -3 1 C-2.01 0.67 -1.02 0.34 0 0 Z " fill="#C3C4C5" transform="translate(1792,114)"/>
<path d="M0 0 C2.9375 0.1875 2.9375 0.1875 3.9375 1.1875 C3.62298883 6.53418986 2.67499693 10.25833656 -1.0625 14.1875 C-3.90995085 14.70472338 -6.13761467 14.47998853 -9.0625 14.1875 C-9.0625 12.5375 -9.0625 10.8875 -9.0625 9.1875 C-8.4025 8.8575 -7.7425 8.5275 -7.0625 8.1875 C-7.3925 9.8375 -7.7225 11.4875 -8.0625 13.1875 C-3.29660873 12.33362856 -3.29660873 12.33362856 0.3125 9.4375 C1.07128951 6.70585778 1.55460589 3.99539012 1.9375 1.1875 C0.6175 1.1875 -0.7025 1.1875 -2.0625 1.1875 C-2.165625 1.826875 -2.26875 2.46625 -2.375 3.125 C-2.601875 3.805625 -2.82875 4.48625 -3.0625 5.1875 C-4.0525 5.5175 -5.0425 5.8475 -6.0625 6.1875 C-5.23417477 2.04587387 -4.5559053 0.27893298 0 0 Z " fill="#747272" transform="translate(1856.0625,46.8125)"/>
<path d="M0 0 C0.33 0 0.66 0 1 0 C1 2.64 1 5.28 1 8 C3.12534659 7.85930804 5.25027529 7.71229079 7.375 7.5625 C9.15003906 7.44068359 9.15003906 7.44068359 10.9609375 7.31640625 C13.91518901 7.18915064 13.91518901 7.18915064 16 6 C16.65555119 3.47266765 16.65555119 3.47266765 17 1 C17.33 1 17.66 1 18 1 C18 3.64 18 6.28 18 9 C14.81175432 10.59412284 11.37103338 10.10174735 7.875 10.0625 C7.12089844 10.05798828 6.36679688 10.05347656 5.58984375 10.04882812 C3.72652873 10.03703499 1.86325445 10.01909942 0 10 C0 6.7 0 3.4 0 0 Z " fill="#BABABA" transform="translate(1187,335)"/>
<path d="M0 0 C0 0.66 0 1.32 0 2 C-2.64 2 -5.28 2 -8 2 C-8 2.66 -8 3.32 -8 4 C-9.65 4.33 -11.3 4.66 -13 5 C-12.67 6.32 -12.34 7.64 -12 9 C-9.36 8.67 -6.72 8.34 -4 8 C-6.25270587 10.00240521 -7.60577544 10.94368221 -10.625 11.375 C-11.40875 11.25125 -12.1925 11.1275 -13 11 C-15 8 -15 8 -15.0625 5.5 C-14 3 -14 3 -10.875 1.1875 C-7.22260531 -0.15851709 -3.88626867 -0.23793482 0 0 Z " fill="#6E6E6E" transform="translate(1508,275)"/>
<path d="M0 0 C1.93166016 0.01740234 1.93166016 0.01740234 3.90234375 0.03515625 C5.19269531 0.04417969 6.48304687 0.05320312 7.8125 0.0625 C8.81152344 0.07410156 9.81054688 0.08570313 10.83984375 0.09765625 C10.83984375 2.73765625 10.83984375 5.37765625 10.83984375 8.09765625 C5.88984375 8.09765625 0.93984375 8.09765625 -4.16015625 8.09765625 C-4.16015625 0.1285586 -4.16015625 0.1285586 0 0 Z M-3.16015625 1.09765625 C-3.16015625 2.74765625 -3.16015625 4.39765625 -3.16015625 6.09765625 C-2.00503115 7.47942787 -2.00503115 7.47942787 1.15234375 7.22265625 C3.98633138 7.12658887 6.17579474 6.95015193 8.83984375 6.09765625 C8.83984375 4.44765625 8.83984375 2.79765625 8.83984375 1.09765625 C4.87984375 1.09765625 0.91984375 1.09765625 -3.16015625 1.09765625 Z " fill="#656566" transform="translate(1221.16015625,333.90234375)"/>
<path d="M0 0 C1.35439668 2.70879335 1.06501451 5.00933268 1 8 C-3.455 9.485 -3.455 9.485 -8 11 C-6.1875 9 -6.1875 9 -4 7 C-3.01 7 -2.02 7 -1 7 C-1.33 5.02 -1.66 3.04 -2 1 C-5.3 1.66 -8.6 2.32 -12 3 C-11.67 2.01 -11.34 1.02 -11 0 C-7.0323069 -1.0502717 -3.98866127 -0.99716532 0 0 Z " fill="#828284" transform="translate(487,337)"/>
<path d="M0 0 C-3.22515763 1.73662334 -6.51329166 2.8905928 -10 4 C-10.33 5.98 -10.66 7.96 -11 10 C-10.01 9.34 -9.02 8.68 -8 8 C-5.8125 8.375 -5.8125 8.375 -4 9 C-6.57213134 10.61949011 -7.67669159 11.04408751 -10.75 10.625 C-11.86375 10.315625 -11.86375 10.315625 -13 10 C-13.625 6.625 -13.625 6.625 -14 3 C-10.28767995 -0.71232005 -5.00320561 -0.11912394 0 0 Z " fill="#6A696A" transform="translate(538,319)"/>
<path d="M0 0 C1 1 1 1 1.375 3.375 C1 6 1 6 -1 7.8125 C-4.95748504 9.3790045 -7.75836948 9.28277537 -12 9 C-13 8 -13 8 -13.0625 5.4375 C-13.041875 4.633125 -13.02125 3.82875 -13 3 C-4.33365759 -0.52529183 -4.33365759 -0.52529183 0 0 Z M-7.125 2.5 C-8.21167969 2.91765625 -8.21167969 2.91765625 -9.3203125 3.34375 C-9.87460937 3.5603125 -10.42890625 3.776875 -11 4 C-11 5.32 -11 6.64 -11 8 C-6.91281305 8.24042276 -3.82320557 7.42258812 0 6 C-0.33 4.35 -0.66 2.7 -1 1 C-3.36543716 1 -4.92304264 1.64762941 -7.125 2.5 Z " fill="#484748" transform="translate(565,312)"/>
<path d="M0 0 C0 1.65 0 3.3 0 5 C-3.63 5 -7.26 5 -11 5 C-11 3.68 -11 2.36 -11 1 C-7.27569643 0.30710631 -3.78916254 -0.11144596 0 0 Z " fill="#070707" transform="translate(590,307)"/>
<path d="M0 0 C0.66 0 1.32 0 2 0 C2.33 2.64 2.66 5.28 3 8 C-7.25 13.125 -7.25 13.125 -15 12 C-15 11.34 -15 10.68 -15 10 C-12.03 10 -9.06 10 -6 10 C-6 9.34 -6 8.68 -6 8 C-3.69 8 -1.38 8 1 8 C0.67 5.36 0.34 2.72 0 0 Z " fill="#BDBEBF" transform="translate(1315,323)"/>
<path d="M0 0 C2.875 -0.125 2.875 -0.125 6 0 C8 2 8 2 8.265625 3.875 C8.26046875 4.57625 8.2553125 5.2775 8.25 6 C8.25515625 6.70125 8.2603125 7.4025 8.265625 8.125 C8 10 8 10 6 12 C3.8359375 12.4140625 3.8359375 12.4140625 1.375 12.625 C0.55773437 12.69976562 -0.25953125 12.77453125 -1.1015625 12.8515625 C-1.72804688 12.90054687 -2.35453125 12.94953125 -3 13 C-2.67 12.34 -2.34 11.68 -2 11 C0.3140622 10.26924352 2.64828869 9.59861742 5 9 C5 7.02 5 5.04 5 3 C2.03 2.505 2.03 2.505 -1 2 C-0.67 1.34 -0.34 0.68 0 0 Z " fill="#A1A1A2" transform="translate(533,317)"/>
<path d="M0 0 C1.134375 0.020625 2.26875 0.04125 3.4375 0.0625 C3.4375 0.3925 3.4375 0.7225 3.4375 1.0625 C1.7875 1.3925 0.1375 1.7225 -1.5625 2.0625 C-1.8925 3.3825 -2.2225 4.7025 -2.5625 6.0625 C-0.5825 6.0625 1.3975 6.0625 3.4375 6.0625 C3.4375 6.7225 3.4375 7.3825 3.4375 8.0625 C5.88230079 7.87421228 5.88230079 7.87421228 8.4375 7.0625 C9.79770151 5.09491727 9.79770151 5.09491727 10.4375 3.0625 C10.480221 4.72861905 10.47813832 6.39632885 10.4375 8.0625 C8.78900947 9.71099053 6.88703365 9.2727571 4.625 9.3125 C3.75230469 9.33828125 2.87960937 9.3640625 1.98046875 9.390625 C-1.04774309 8.99988799 -2.38780715 8.17706309 -4.5625 6.0625 C-4.875 3.4375 -4.875 3.4375 -4.5625 1.0625 C-3.5625 0.0625 -3.5625 0.0625 0 0 Z " fill="#656464" transform="translate(940.5625,307.9375)"/>
<path d="M0 0 C1 1 1 1 1.0625 4.0625 C1.041875 5.031875 1.02125 6.00125 1 7 C0.67 7 0.34 7 0 7 C0 5.35 0 3.7 0 2 C-1.03125 2.33 -2.0625 2.66 -3.125 3 C-6.48426709 3.9715192 -9.49106202 4.17116771 -13 4 C-13 5.65 -13 7.3 -13 9 C-15 7 -15 7 -15.0625 5.0625 C-13.65445536 2.32923687 -11.7933588 1.59912814 -8.984375 0.53125 C-5.93782472 -0.28436188 -3.12352728 -0.24988218 0 0 Z " fill="#69696B" transform="translate(1426,300)"/>
<path d="M0 0 C3.3 0.33 6.6 0.66 10 1 C10 2.65 10 4.3 10 6 C7.03 5.67 4.06 5.34 1 5 C0.67 3.35 0.34 1.7 0 0 Z " fill="#0A0B0B" transform="translate(884,300)"/>
<path d="M0 0 C3.55780196 0.60990891 6.6828589 1.5783681 10 3 C10 3.99 10 4.98 10 6 C6.37 5.67 2.74 5.34 -1 5 C-0.67 3.35 -0.34 1.7 0 0 Z " fill="#040405" transform="translate(966,315)"/>
<path d="M0 0 C0.33 0 0.66 0 1 0 C1 2.31 1 4.62 1 7 C-0.32 7 -1.64 7 -3 7 C-3.33 8.32 -3.66 9.64 -4 11 C-7.3 11 -10.6 11 -14 11 C-14.33 9.35 -14.66 7.7 -15 6 C-14.34 6.66 -13.68 7.32 -13 8 C-9.28658482 8.39088581 -7.2479662 7.67636965 -4 6 C-2.68 6 -1.36 6 0 6 C0 4.02 0 2.04 0 0 Z " fill="#B9B9B9" transform="translate(1508,277)"/>
<path d="M0 0 C11.52164009 -0.3690205 11.52164009 -0.3690205 17 2 C17.02688151 3.64574566 17.04634123 5.29161413 17.0625 6.9375 C17.07410156 7.85402344 17.08570313 8.77054687 17.09765625 9.71484375 C17 12 17 12 16 13 C14.14712498 13.07226502 12.29166122 13.0838122 10.4375 13.0625 C9.42558594 13.05347656 8.41367187 13.04445313 7.37109375 13.03515625 C6.19740234 13.01775391 6.19740234 13.01775391 5 13 C5 12.67 5 12.34 5 12 C8.3 11.67 11.6 11.34 15 11 C15 8.36 15 5.72 15 3 C7.575 2.01 7.575 2.01 0 1 C0 0.67 0 0.34 0 0 Z " fill="#DCDDDC" transform="translate(854,292)"/>
<path d="M0 0 C0.33 0 0.66 0 1 0 C1 1.98 1 3.96 1 6 C1.56203125 5.83628906 2.1240625 5.67257812 2.703125 5.50390625 C5.13059056 4.97135003 7.26889681 4.90101319 9.75 4.9375 C10.54921875 4.94652344 11.3484375 4.95554687 12.171875 4.96484375 C12.77515625 4.97644531 13.3784375 4.98804688 14 5 C14 3.35 14 1.7 14 0 C14.33 0 14.66 0 15 0 C15 1.98 15 3.96 15 6 C10.13948404 8.59227518 5.34728867 8.18689553 0 8 C0 5.36 0 2.72 0 0 Z " fill="#6F6F70" transform="translate(1273,329)"/>
<path d="M0 0 C2 2 2 2 2.1875 4.5625 C2 7 2 7 1 8 C-0.99958364 8.04080783 -3.00045254 8.04254356 -5 8 C-5 8.66 -5 9.32 -5 10 C-7.95664519 11.4783226 -10.74229737 11.06032783 -14 11 C-13.67 9.68 -13.34 8.36 -13 7 C-13 7.66 -13 8.32 -13 9 C-11.02 9 -9.04 9 -7 9 C-7 8.34 -7 7.68 -7 7 C-3.535 6.505 -3.535 6.505 0 6 C0 4.02 0 2.04 0 0 Z " fill="#B7B7B7" transform="translate(1454,294)"/>
<path d="M0 0 C3.63 0 7.26 0 11 0 C11 1.32 11 2.64 11 4 C7.37 4 3.74 4 0 4 C0 2.68 0 1.36 0 0 Z " fill="#050505" transform="translate(856,297)"/>
<path d="M0 0 C0 1.32 0 2.64 0 4 C-1.45706726 4.50367757 -2.91570096 5.00282556 -4.375 5.5 C-5.59316406 5.91765625 -5.59316406 5.91765625 -6.8359375 6.34375 C-9 7 -9 7 -11 7 C-11 5.68 -11 4.36 -11 3 C-4.5 0 -4.5 0 0 0 Z " fill="#060606" transform="translate(511,329)"/>
<path d="M0 0 C0.33 0 0.66 0 1 0 C1 2.64 1 5.28 1 8 C7.435 7.505 7.435 7.505 14 7 C14 4.69 14 2.38 14 0 C14.99 0 15.98 0 17 0 C17.09765625 6.15234375 17.09765625 6.15234375 17 8 C16 9 16 9 12.40234375 9.09765625 C10.91403133 9.0909822 9.42573568 9.07902183 7.9375 9.0625 C6.79958008 9.05573242 6.79958008 9.05573242 5.63867188 9.04882812 C3.75908129 9.0370068 1.87953101 9.01907078 0 9 C0 6.03 0 3.06 0 0 Z " fill="#B8B8B9" transform="translate(798,290)"/>
<path d="M0 0 C1.27875 -0.061875 2.5575 -0.12375 3.875 -0.1875 C4.95394531 -0.23970703 4.95394531 -0.23970703 6.0546875 -0.29296875 C6.69664063 -0.19628906 7.33859375 -0.09960938 8 0 C10 3 10 3 10 7 C7.1875 8.5625 7.1875 8.5625 4 10 C3.01 9.67 2.02 9.34 1 9 C1.33 8.34 1.66 7.68 2 7 C5.0625 6.375 5.0625 6.375 8 6 C7.67 4.68 7.34 3.36 7 2 C5.02 2 3.04 2 1 2 C0.67 2.66 0.34 3.32 0 4 C-1.32 3.67 -2.64 3.34 -4 3 C-3.01 3 -2.02 3 -1 3 C-0.67 2.01 -0.34 1.02 0 0 Z " fill="#646566" transform="translate(1654,208)"/>
<path d="M0 0 C3.375 -0.125 3.375 -0.125 7 0 C9 2 9 2 9.1875 5.5 C9 9 9 9 8 11 C5.03 11 2.06 11 -1 11 C-1 10.67 -1 10.34 -1 10 C2.465 9.505 2.465 9.505 6 9 C6.08226668 5.95613276 5.97608217 3.92824652 5 1 C3.35 1 1.7 1 0 1 C0 0.67 0 0.34 0 0 Z " fill="#BDBFC0" transform="translate(586,304)"/>
<path d="M0 0 C0.99386719 0.00902344 1.98773437 0.01804687 3.01171875 0.02734375 C4.15060547 0.04474609 4.15060547 0.04474609 5.3125 0.0625 C5.3125 0.3925 5.3125 0.7225 5.3125 1.0625 C4.075 1.35125 2.8375 1.64 1.5625 1.9375 C-2.76513772 3.00739361 -2.76513772 3.00739361 -6.6875 5.0625 C-7.0175 6.0525 -7.3475 7.0425 -7.6875 8.0625 C-8.3475 8.0625 -9.0075 8.0625 -9.6875 8.0625 C-9.3575 5.7525 -9.0275 3.4425 -8.6875 1.0625 C-5.53819107 0.01273036 -3.29935544 -0.03881595 0 0 Z " fill="#B5B5B5" transform="translate(1447.6875,291.9375)"/>
<path d="M0 0 C2.375 -0.125 2.375 -0.125 5 0 C7 2 7 2 7.3515625 4.38671875 C6.79108862 8.55290796 4.30170521 10.05068896 1.1796875 12.6171875 C-1.66145807 14.41963469 -3.71100392 14.57557431 -7 14 C-6.67 13.34 -6.34 12.68 -6 12 C-4.33333333 11.66666667 -2.66666667 11.33333333 -1 11 C-0.67 10.34 -0.34 9.68 0 9 C0.99 8.67 1.98 8.34 3 8 C3.33 7.34 3.66 6.68 4 6 C4.66 6 5.32 6 6 6 C6 5.01 6 4.02 6 3 C4.02 2.34 2.04 1.68 0 1 C0 0.67 0 0.34 0 0 Z " fill="#8E8F90" transform="translate(1706,178)"/>
<path d="M0 0 C1.65 0 3.3 0 5 0 C4.34 2.97 3.68 5.94 3 9 C1.68 9 0.36 9 -1 9 C-0.67 6.03 -0.34 3.06 0 0 Z " fill="#040405" transform="translate(1876,0)"/>
<path d="M0 0 C3.5 -0.3125 3.5 -0.3125 7 0 C9 2 9 2 9.125 5.125 C9.08375 6.07375 9.0425 7.0225 9 8 C8.34 8 7.68 8 7 8 C7 8.66 7 9.32 7 10 C5.68 9.67 4.36 9.34 3 9 C3.99 9 4.98 9 6 9 C6 7.02 6 5.04 6 3 C3.36 3 0.72 3 -2 3 C-1.34 2.01 -0.68 1.02 0 0 Z " fill="#ACADAE" transform="translate(1474,283)"/>
<path d="M0 0 C1.32 0 2.64 0 4 0 C3.814375 1.093125 3.62875 2.18625 3.4375 3.3125 C2.7421932 6.93624133 2.7421932 6.93624133 4 10 C5.32 10 6.64 10 8 10 C8 10.66 8 11.32 8 12 C6.35 12 4.7 12 3 12 C3 11.01 3 10.02 3 9 C2.01 9 1.02 9 0 9 C0 6.03 0 3.06 0 0 Z " fill="#C1C0C0" transform="translate(1828,75)"/>
<path d="M0 0 C0.66 0.33 1.32 0.66 2 1 C1.0409375 1.5878125 1.0409375 1.5878125 0.0625 2.1875 C-2.43778819 4.38472296 -2.64950425 5.75791433 -3 9 C-1.906875 8.34 -0.81375 7.68 0.3125 7 C2.93707538 5.41535071 3.8256378 5 7 5 C1.70769231 9.92307692 1.70769231 9.92307692 -1.875 10.3125 C-2.926875 10.1578125 -2.926875 10.1578125 -4 10 C-4.66 8.35 -5.32 6.7 -6 5 C-4.02 3.35 -2.04 1.7 0 0 Z " fill="#414142" transform="translate(357,405)"/>
<path d="M0 0 C2.475 0.495 2.475 0.495 5 1 C5 1.66 5 2.32 5 3 C5.99 3 6.98 3 8 3 C7.8125 6.3125 7.8125 6.3125 7 10 C4.5625 12 4.5625 12 2 13 C1.34 12.67 0.68 12.34 0 12 C0.639375 11.773125 1.27875 11.54625 1.9375 11.3125 C4.27193661 10.14749104 4.27193661 10.14749104 4.75 7.375 C4.8325 6.59125 4.915 5.8075 5 5 C3.7625 4.319375 3.7625 4.319375 2.5 3.625 C1.675 3.08875 0.85 2.5525 0 2 C0 1.34 0 0.68 0 0 Z " fill="#B1B2B3" transform="translate(382,385)"/>
<path d="M0 0 C2.97 0 5.94 0 9 0 C9 1.32 9 2.64 9 4 C6.03 4 3.06 4 0 4 C0 2.68 0 1.36 0 0 Z " fill="#010000" transform="translate(912,305)"/>
<path d="M0 0 C1 1 1 1 1.0625 4.0625 C1.041875 5.031875 1.02125 6.00125 1 7 C0.01 7 -0.98 7 -2 7 C-1.67 5.35 -1.34 3.7 -1 2 C-3.97 1.505 -3.97 1.505 -7 1 C-7 1.66 -7 2.32 -7 3 C-8.65 3.66 -10.3 4.32 -12 5 C-7.89420077 -0.337539 -6.69879481 -1.42527549 0 0 Z " fill="#929393" transform="translate(1736,163)"/>
<path d="M0 0 C2.64 0 5.28 0 8 0 C8 0.33 8 0.66 8 1 C6.35 1.33 4.7 1.66 3 2 C3 3.65 3 5.3 3 7 C4.65 7.33 6.3 7.66 8 8 C6 10 6 10 3.375 10.125 C2.59125 10.08375 1.8075 10.0425 1 10 C-0.1577506 6.52674819 -0.06866652 3.63932552 0 0 Z " fill="#A09F9F" transform="translate(550,313)"/>
<path d="M0 0 C3.6875 0.875 3.6875 0.875 7 2 C6.67 4.31 6.34 6.62 6 9 C5.01 9 4.02 9 3 9 C3.66 7.02 4.32 5.04 5 3 C-0.3086849 3.58174845 -0.3086849 3.58174845 -5 6 C-3.63016497 2.83884224 -3.0109362 2.0072908 0 0 Z " fill="#909091" transform="translate(1837,69)"/>
<path d="M0 0 C5.75 -0.125 5.75 -0.125 8 1 C8 2.98 8 4.96 8 7 C7.01 7.495 7.01 7.495 6 8 C6.33 6.35 6.66 4.7 7 3 C4.69 2.67 2.38 2.34 0 2 C-0.12375 2.763125 -0.2475 3.52625 -0.375 4.3125 C-1 7 -1 7 -3 10 C-2.39009109 6.44219804 -1.4216319 3.3171411 0 0 Z " fill="#7A7A7A" transform="translate(280,481)"/>
<path d="M0 0 C0 0.66 0 1.32 0 2 C-1.98 2.66 -3.96 3.32 -6 4 C-5.67 5.98 -5.34 7.96 -5 10 C-6.65 9.01 -8.3 8.02 -10 7 C-9.75 4.625 -9.75 4.625 -9 2 C-6.09557968 -0.17831524 -3.54875053 -0.19715281 0 0 Z " fill="#A1A2A1" transform="translate(727,304)"/>
<path d="M0 0 C1.32 0 2.64 0 4 0 C4 0.66 4 1.32 4 2 C4.99 2.33 5.98 2.66 7 3 C7 5.31 7 7.62 7 10 C4.69 10.33 2.38 10.66 0 11 C3 9 3 9 5 9 C3.98839152 4.60685207 3.98839152 4.60685207 0.875 1.625 C0.25625 1.41875 -0.3625 1.2125 -1 1 C-0.67 0.67 -0.34 0.34 0 0 Z " fill="#BCBCBD" transform="translate(1659,206)"/>
<path d="M0 0 C6.15234375 -0.09765625 6.15234375 -0.09765625 8 0 C9 1 9 1 9.1328125 3.03125 C9.13023437 3.8459375 9.12765625 4.660625 9.125 5.5 C9.12757813 6.3146875 9.13015625 7.129375 9.1328125 7.96875 C9 10 9 10 8 11 C6.00041636 11.04080783 3.99954746 11.04254356 2 11 C1.67 10.34 1.34 9.68 1 9 C2.98 8.67 4.96 8.34 7 8 C7.33 6.02 7.66 4.04 8 2 C5.36 1.67 2.72 1.34 0 1 C0 0.67 0 0.34 0 0 Z " fill="#A7A7A9" transform="translate(998,320)"/>
<path d="M0 0 C0.33 0 0.66 0 1 0 C1.33 2.97 1.66 5.94 2 9 C4.31 9.33 6.62 9.66 9 10 C9.33 9.01 9.66 8.02 10 7 C9.67 8.65 9.34 10.3 9 12 C6.03 12 3.06 12 0 12 C0 8.04 0 4.08 0 0 Z " fill="#D3D4D4" transform="translate(1872,1)"/>
<path d="M0 0 C1.65 0.33 3.3 0.66 5 1 C5.02689216 2.47906892 5.04634621 3.95827483 5.0625 5.4375 C5.07410156 6.26121094 5.08570313 7.08492188 5.09765625 7.93359375 C5 10 5 10 4 11 C1.66702567 11.04092937 -0.66705225 11.04241723 -3 11 C-3 10.67 -3 10.34 -3 10 C-1.35 10 0.3 10 2 10 C2.33 7.03 2.66 4.06 3 1 C2.01 0.67 1.02 0.34 0 0 Z " fill="#C9C9C9" transform="translate(921,303)"/>
<path d="M0 0 C2.475 0.495 2.475 0.495 5 1 C5 1.66 5 2.32 5 3 C5.78375 3.061875 6.5675 3.12375 7.375 3.1875 C8.24125 3.455625 9.1075 3.72375 10 4 C11.3125 6.5625 11.3125 6.5625 12 9 C9.16661778 7.62159784 6.44311194 6.13581614 3.75 4.5 C3.04359375 4.0771875 2.3371875 3.654375 1.609375 3.21875 C1.07828125 2.8165625 0.5471875 2.414375 0 2 C0 1.34 0 0.68 0 0 Z " fill="#7C7C7D" transform="translate(727,306)"/>
<path d="M0 0 C0.99 0.33 1.98 0.66 3 1 C1.60804085 3.7839183 -0.15575779 3.97898997 -3 5 C-3.042721 6.66611905 -3.04063832 8.33382885 -3 10 C-2.67 10.33 -2.34 10.66 -2 11 C-1.95919217 12.99958364 -1.95745644 15.00045254 -2 17 C-2.33 17 -2.66 17 -3 17 C-4.97094808 12.07262981 -5.1799928 8.21979128 -5 3 C-3.35 2.67 -1.7 2.34 0 2 C0 1.34 0 0.68 0 0 Z " fill="#3C3C3D" transform="translate(732,344)"/>
<path d="M0 0 C9.41002278 -0.18451025 9.41002278 -0.18451025 14 1 C14 1.66 14 2.32 14 3 C12.41753293 3.08153933 10.83383727 3.13943557 9.25 3.1875 C8.36828125 3.22230469 7.4865625 3.25710938 6.578125 3.29296875 C3.55328417 2.94923684 2.24416398 1.99772541 0 0 Z " fill="#CBCBCB" transform="translate(1104,342)"/>
<path d="M0 0 C0.33 0.66 0.66 1.32 1 2 C-3.33085971 3.29925791 -7.51474352 4.343621 -12 5 C-12.33 6.32 -12.66 7.64 -13 9 C-13 7.35 -13 5.7 -13 4 C-4.738041 -0.59225513 -4.738041 -0.59225513 0 0 Z " fill="#78787A" transform="translate(1533,265)"/>
<path d="M0 0 C4.62 0 9.24 0 14 0 C14 0.33 14 0.66 14 1 C10.37 1.33 6.74 1.66 3 2 C2.67 3.98 2.34 5.96 2 8 C1.34 8 0.68 8 0 8 C0 5.36 0 2.72 0 0 Z " fill="#8D8D8E" transform="translate(1102,334)"/>
<path d="M0 0 C0 0.33 0 0.66 0 1 C-1.7015625 1.4640625 -1.7015625 1.4640625 -3.4375 1.9375 C-6.78775099 2.62924531 -6.78775099 2.62924531 -8 4 C-9.66617115 4.04063832 -11.33388095 4.042721 -13 4 C-13 5.98 -13 7.96 -13 10 C-13.33 10 -13.66 10 -14 10 C-14.3125 6.6875 -14.3125 6.6875 -14 3 C-10.06749315 -0.93250685 -5.19593717 -0.30564336 0 0 Z " fill="#8B8C8C" transform="translate(512,327)"/>
<path d="M0 0 C0.8971875 0.309375 0.8971875 0.309375 1.8125 0.625 C-2.45061718 4.75489477 -5.47508534 5.23771765 -11.1875 5.625 C-10.8575 4.635 -10.5275 3.645 -10.1875 2.625 C-9.424375 2.50125 -8.66125 2.3775 -7.875 2.25 C-4.73430311 1.51960537 -3.19650145 -0.54797168 0 0 Z " fill="#9B9C9D" transform="translate(1686.1875,201.375)"/>
<path d="M0 0 C2.31 0 4.62 0 7 0 C7 1.32 7 2.64 7 4 C4.69 4 2.38 4 0 4 C0 2.68 0 1.36 0 0 Z " fill="#151514" transform="translate(270,508)"/>
<path d="M0 0 C0.33 0 0.66 0 1 0 C1 1.65 1 3.3 1 5 C-4.36439644 7.68219822 -8.01006953 8.3152595 -14 8 C-14 7.67 -14 7.34 -14 7 C-13.43410156 6.86722656 -12.86820312 6.73445313 -12.28515625 6.59765625 C-11.18494141 6.33275391 -11.18494141 6.33275391 -10.0625 6.0625 C-9.33160156 5.88847656 -8.60070312 5.71445312 -7.84765625 5.53515625 C-6.00030102 5.16112431 -6.00030102 5.16112431 -5 4 C-3.33382885 3.95936168 -1.66611905 3.957279 0 4 C0 2.68 0 1.36 0 0 Z " fill="#868687" transform="translate(513,330)"/>
<path d="M0 0 C4 2 4 2 5.875 3.0625 C8.54074552 4.2385642 11.12431827 4.60786158 14 5 C13.34 5.66 12.68 6.32 12 7 C7.28824867 6.73329709 3.74241644 5.94857053 0 3 C0 2.01 0 1.02 0 0 Z " fill="#6A6869" transform="translate(739,315)"/>
<path d="M0 0 C3.12290635 0.48578543 5.99580359 0.9986012 9 2 C9 3.65 9 5.3 9 7 C8.67 5.68 8.34 4.36 8 3 C5.69 3 3.38 3 1 3 C0.67 4.32 0.34 5.64 0 7 C0 4.69 0 2.38 0 0 Z " fill="#8C8D8D" transform="translate(269,505)"/>
<path d="M0 0 C0.66 0.33 1.32 0.66 2 1 C1.814375 1.598125 1.62875 2.19625 1.4375 2.8125 C0.77906313 5.16408762 0.77906313 5.16408762 2 8 C3.65 7.67 5.3 7.34 7 7 C7 7.66 7 8.32 7 9 C1.55263158 10.33157895 1.55263158 10.33157895 -0.875 8.875 C-2.3568671 6.40522151 -2.3633156 4.83386167 -2 2 C-1.34 1.34 -0.68 0.68 0 0 Z " fill="#A9A9A9" transform="translate(330,425)"/>
<path d="M0 0 C0.33 0.99 0.66 1.98 1 3 C3.3431213 2.74438677 5.67843403 2.40729228 8 2 C8.33 1.34 8.66 0.68 9 0 C9.66 0.33 10.32 0.66 11 1 C9.68 2.65 8.36 4.3 7 6 C2.25 5.125 2.25 5.125 0 4 C0 2.68 0 1.36 0 0 Z " fill="#464442" transform="translate(1768,136)"/>
<path d="M0 0 C0 0.33 0 0.66 0 1 C-1.65 1.33 -3.3 1.66 -5 2 C-5.15149298 5.62885324 -5.15149298 5.62885324 -4 9 C-5.32 9 -6.64 9 -8 9 C-8 6.36 -8 3.72 -8 1 C-5.29120665 -0.35439668 -2.99066732 -0.06501451 0 0 Z " fill="#9E9E9E" transform="translate(970,313)"/>
<path d="M0 0 C0.66 0.33 1.32 0.66 2 1 C1.00184314 4.59336471 0.05174542 5.95725379 -2.875 8.375 C-6 10 -6 10 -8.375 9.75 C-8.91125 9.5025 -9.4475 9.255 -10 9 C-9.071875 8.566875 -8.14375 8.13375 -7.1875 7.6875 C-3.11957679 5.53389359 -1.45535272 4.36605815 0 0 Z " fill="#646364" transform="translate(342,423)"/>
<path d="M0 0 C0.33 0 0.66 0 1 0 C1 1.65 1 3.3 1 5 C-2.4019487 7.09350689 -5.05272412 7.17942163 -9 7 C-4.5 3 -4.5 3 0 3 C0 2.01 0 1.02 0 0 Z " fill="#7B7A7B" transform="translate(1613,236)"/>
<path d="M0 0 C0.7425 0.0825 1.485 0.165 2.25 0.25 C2.58 1.57 2.91 2.89 3.25 4.25 C-0.05 4.25 -3.35 4.25 -6.75 4.25 C-3.42692308 0.31153846 -3.42692308 0.31153846 0 0 Z " fill="#5E5E5E" transform="translate(1609.75,231.75)"/>
<path d="M0 0 C2.375 0.8125 2.375 0.8125 3.375 2.8125 C0.9 1.8225 0.9 1.8225 -1.625 0.8125 C-1.8725 1.575625 -2.12 2.33875 -2.375 3.125 C-3.73495558 6.0489045 -4.94085826 7.11254356 -7.625 8.8125 C-4.97647745 -0.35546267 -4.97647745 -0.35546267 0 0 Z " fill="#A3A2A3" transform="translate(299.625,457.1875)"/>
<path d="M0 0 C2.875 -0.125 2.875 -0.125 6 0 C8 2 8 2 8.1953125 3.9453125 C8.13020833 5.96354167 8.06510417 7.98177083 8 10 C7.67 10 7.34 10 7 10 C7 7.69 7 5.38 7 3 C4.36 2.67 1.72 2.34 -1 2 C-0.67 1.34 -0.34 0.68 0 0 Z " fill="#C5C6C6" transform="translate(533,317)"/>
<path d="M0 0 C0.721875 0.185625 1.44375 0.37125 2.1875 0.5625 C5.12826973 1.01995307 7.14103058 0.73516357 10 0 C9.67 0.66 9.34 1.32 9 2 C8.34 2 7.68 2 7 2 C7 2.66 7 3.32 7 4 C5.02 4 3.04 4 1 4 C0.67 2.68 0.34 1.36 0 0 Z " fill="#989898" transform="translate(398,382)"/>
<path d="M0 0 C-1.09445838 0.86657116 -2.20097781 1.71792724 -3.3125 2.5625 C-3.92738281 3.03816406 -4.54226563 3.51382812 -5.17578125 4.00390625 C-5.77777344 4.33261719 -6.37976563 4.66132813 -7 5 C-7.99 4.67 -8.98 4.34 -10 4 C-4.4 -2.2 -4.4 -2.2 0 0 Z " fill="#595859" transform="translate(777,322)"/>
<path d="M0 0 C0.66 0.33 1.32 0.66 2 1 C1.01 1.33 0.02 1.66 -1 2 C-1 2.99 -1 3.98 -1 5 C1.475 5.99 1.475 5.99 4 7 C3.01 7.66 2.02 8.32 1 9 C-0.32 8.34 -1.64 7.68 -3 7 C-2.625 4.0625 -2.625 4.0625 -2 1 C-1.34 0.67 -0.68 0.34 0 0 Z " fill="#373737" transform="translate(1814,95)"/>
<path d="M0 0 C1.98 0.99 1.98 0.99 4 2 C4 3.98 4 5.96 4 8 C2.02 8.99 2.02 8.99 0 10 C0.185625 8.906875 0.37125 7.81375 0.5625 6.6875 C1.2578068 3.06375867 1.2578068 3.06375867 0 0 Z " fill="#C2C3C3" transform="translate(434,359)"/>
<path d="M0 0 C1 2 2 4 3 6 C5.32156597 6.40729228 7.6568787 6.74438677 10 7 C10 7.33 10 7.66 10 8 C6.7 8 3.4 8 0 8 C0 5.36 0 2.72 0 0 Z " fill="#C7C7C7" transform="translate(1046,331)"/>
<path d="M0 0 C2.0625 0.4375 2.0625 0.4375 4 1 C3.01 1.33 2.02 1.66 1 2 C1.33 4.31 1.66 6.62 2 9 C1.34 9 0.68 9 0 9 C-1.36623674 6.26752652 -1.128426 4.01801098 -1 1 C-0.67 0.67 -0.34 0.34 0 0 Z " fill="#CBCBCB" transform="translate(1721,166)"/>
<path d="M0 0 C0.66 0.33 1.32 0.66 2 1 C1.45276317 4.37462715 0.9451 6.08235 -1 9 C-4.125 9.6875 -4.125 9.6875 -7 10 C-6 8 -6 8 -3.5 6.6875 C-0.75762694 5.21939608 -0.75762694 5.21939608 -0.1875 2.3125 C-0.125625 1.549375 -0.06375 0.78625 0 0 Z " fill="#C9CACA" transform="translate(1759,149)"/>
<path d="M0 0 C1.32 0 2.64 0 4 0 C4 1.65 4 3.3 4 5 C2.35 5.66 0.7 6.32 -1 7 C-0.67 4.69 -0.34 2.38 0 0 Z " fill="#B4B6B9" transform="translate(1802,112)"/>
<path d="M0 0 C0.33 0 0.66 0 1 0 C1 2.64 1 5.28 1 8 C-1.31 8.33 -3.62 8.66 -6 9 C-5.01 8.67 -4.02 8.34 -3 8 C-3 7.34 -3 6.68 -3 6 C-2.34 5.67 -1.68 5.34 -1 5 C-0.34444881 2.47266765 -0.34444881 2.47266765 0 0 Z " fill="#C3C5C5" transform="translate(1204,336)"/>
<path d="M0 0 C0.99 0.495 0.99 0.495 2 1 C8.08516056 1.23333287 8.08516056 1.23333287 14 0 C13.01 1.485 13.01 1.485 12 3 C9.3984375 3.29296875 9.3984375 3.29296875 6.375 3.1875 C4.87066406 3.14689453 4.87066406 3.14689453 3.3359375 3.10546875 C2.56507813 3.07066406 1.79421875 3.03585937 1 3 C0.67 2.01 0.34 1.02 0 0 Z " fill="#E5E4E5" transform="translate(604,309)"/>
<path d="M0 0 C0.99 1.485 0.99 1.485 2 3 C5.58357241 3.25015873 5.58357241 3.25015873 9 3 C8.01 3.33 7.02 3.66 6 4 C6 4.66 6 5.32 6 6 C4.33388095 6.042721 2.66617115 6.04063832 1 6 C0 5 0 5 -0.0625 2.4375 C-0.041875 1.633125 -0.02125 0.82875 0 0 Z " fill="#BEBFBE" transform="translate(1466,291)"/>
<path d="M0 0 C0.66 0.33 1.32 0.66 2 1 C1.2884375 1.61875 1.2884375 1.61875 0.5625 2.25 C-1.16266518 4.182185 -1.56584875 5.48192275 -2 8 C-2.66 8 -3.32 8 -4 8 C-3.67 5.69 -3.34 3.38 -3 1 C-2.01 0.67 -1.02 0.34 0 0 Z " fill="#A8A9AA" transform="translate(1792,114)"/>
<path d="M0 0 C0.33 0.66 0.66 1.32 1 2 C-0.98 4.64 -2.96 7.28 -5 10 C-5.33 9.01 -5.66 8.02 -6 7 C-4.78515625 5.17578125 -4.78515625 5.17578125 -3.0625 3.3125 C-2.49660156 2.68988281 -1.93070312 2.06726563 -1.34765625 1.42578125 C-0.90292969 0.95527344 -0.45820313 0.48476563 0 0 Z " fill="#232222" transform="translate(316,440)"/>
<path d="M0 0 C2.33294775 -0.04241723 4.66702567 -0.04092937 7 0 C8 1 8 1 8.0625 4.5625 C8.041875 5.696875 8.02125 6.83125 8 8 C6.79371992 5.66785852 5.8345262 3.50357861 5 1 C3.35 1 1.7 1 0 1 C0 0.67 0 0.34 0 0 Z " fill="#9B9B9C" transform="translate(586,304)"/>
<path d="M0 0 C1.98 0 3.96 0 6 0 C5.67 0.66 5.34 1.32 5 2 C2.4375 2.625 2.4375 2.625 0 3 C0 4.65 0 6.3 0 8 C-0.33 8 -0.66 8 -1 8 C-1.125 2.25 -1.125 2.25 0 0 Z " fill="#C1C2C3" transform="translate(1598,234)"/>
<path d="M0 0 C0.226875 0.639375 0.45375 1.27875 0.6875 1.9375 C1.84016601 4.27432836 1.84016601 4.27432836 4.5625 4.625 C5.7690625 4.810625 5.7690625 4.810625 7 5 C7.33 5.66 7.66 6.32 8 7 C5.36 7 2.72 7 0 7 C0 4.69 0 2.38 0 0 Z " fill="#ADAFB0" transform="translate(720,359)"/>
<path d="M0 0 C1.485 0.99 1.485 0.99 3 2 C3 2.66 3 3.32 3 4 C4.32 3.01 5.64 2.02 7 1 C7.66 1.33 8.32 1.66 9 2 C7.8125 3.5625 7.8125 3.5625 6 5 C3.3125 4.6875 3.3125 4.6875 1 4 C0.67 2.68 0.34 1.36 0 0 Z " fill="#5C5C5D" transform="translate(721,360)"/>
<path d="M0 0 C-1.32 0.33 -2.64 0.66 -4 1 C-4 1.66 -4 2.32 -4 3 C-6.64 3 -9.28 3 -12 3 C-7.59360646 0.79680323 -5.02549129 -0.10924981 0 0 Z " fill="#5C5C5C" transform="translate(1398,314)"/>
<path d="M0 0 C0 0.99 0 1.98 0 3 C-0.66 3.66 -1.32 4.32 -2 5 C-4.625 4.625 -4.625 4.625 -7 4 C-6 2 -6 2 -2.9375 0.875 C-1.4834375 0.441875 -1.4834375 0.441875 0 0 Z " fill="#ADADAD" transform="translate(1819,101)"/>
<path d="M0 0 C0 0.99 0 1.98 0 3 C0.31088368 4.67099977 0.64080332 6.33871537 1 8 C-0.32 7.34 -1.64 6.68 -3 6 C-3 4.68 -3 3.36 -3 2 C-2.01 1.34 -1.02 0.68 0 0 Z " fill="#ACAEAD" transform="translate(1746,151)"/>
</svg>
