<?xml version="1.0" encoding="UTF-8"?>
<svg version="1.1" xmlns="http://www.w3.org/2000/svg" width="1792" height="576">
<path d="M0 0 C591.36 0 1182.72 0 1792 0 C1792 190.08 1792 380.16 1792 576 C1200.64 576 609.28 576 0 576 C0 385.92 0 195.84 0 0 Z " fill="#F4F4F4" transform="translate(0,0)"/>
<path d="M0 0 C0.7425 0.0825 1.485 0.165 2.25 0.25 C3.16884732 3.26296447 3.50510996 4.7074422 2.140625 7.609375 C1.32851563 8.79273438 1.32851563 8.79273438 0.5 10 C-2.50371263 14.65226189 -4.20922991 18.94290303 -5.75 24.25 C-0.14 24.58 5.47 24.91 11.25 25.25 C11.91 23.27 12.57 21.29 13.25 19.25 C14.25 18.25 14.25 18.25 16.09765625 18.15234375 C18.1484375 18.18489583 20.19921875 18.21744792 22.25 18.25 C22.25 19.57 22.25 20.89 22.25 22.25 C21.59 22.58 20.93 22.91 20.25 23.25 C19.59786708 25.27463255 19.59786708 25.27463255 19.25 27.25 C18.59 27.25 17.93 27.25 17.25 27.25 C16.92 34.84 16.59 42.43 16.25 50.25 C9.25 49.25 9.25 49.25 7.25 47.25 C6.97759327 44.23173347 7.16324875 41.28629378 7.25 38.25 C2.96 37.59 -1.33 36.93 -5.75 36.25 C-5.75 35.59 -5.75 34.93 -5.75 34.25 C-7.07 34.25 -8.39 34.25 -9.75 34.25 C-9.605625 35.28898437 -9.46125 36.32796875 -9.3125 37.3984375 C-8.28256765 45.0504126 -7.41504751 52.50887573 -7.75 60.25 C-10.39 60.25 -13.03 60.25 -15.75 60.25 C-16.08 62.23 -16.41 64.21 -16.75 66.25 C-21.98175837 66.63281159 -25.12802694 65.46854707 -29.75 63.25 C-29.42 61.27 -29.09 59.29 -28.75 57.25 C-24.23281619 55.88115642 -21.16225737 56.77924754 -16.75 58.25 C-17.03875 57.0125 -17.3275 55.775 -17.625 54.5 C-19.33002059 46.79087118 -20.91429549 39.17138971 -20.75 31.25 C-21.87277344 31.12882812 -22.99554688 31.00765625 -24.15234375 30.8828125 C-31.79636221 30.03489884 -39.28152556 29.15106622 -46.75 27.25 C-46.75 26.59 -46.75 25.93 -46.75 25.25 C-47.41 25.25 -48.07 25.25 -48.75 25.25 C-48.75 22.61 -48.75 19.97 -48.75 17.25 C-45.4353333 15.22092833 -43.3184021 15.12257867 -39.5 15.625 C-38.60796875 15.73585937 -37.7159375 15.84671875 -36.796875 15.9609375 C-36.12140625 16.05632812 -35.4459375 16.15171875 -34.75 16.25 C-34.75 16.91 -34.75 17.57 -34.75 18.25 C-31.83234109 18.35806144 -28.91868875 18.43732877 -26 18.5 C-25.175 18.53351563 -24.35 18.56703125 -23.5 18.6015625 C-18.50859883 18.7235299 -18.50859883 18.7235299 -14.21875 16.375 C-12.76531619 14.2721596 -12.10942454 12.76597179 -11.75 10.25 C-11.09 10.25 -10.43 10.25 -9.75 10.25 C-9.75 9.26 -9.75 8.27 -9.75 7.25 C-9.09 7.25 -8.43 7.25 -7.75 7.25 C-7.42 6.26 -7.09 5.27 -6.75 4.25 C-4.54208236 1.49010295 -3.58228256 0.32566205 0 0 Z " fill="#101010" transform="translate(425.75,183.75)"/>
<path d="M0 0 C0.33 0 0.66 0 1 0 C2.54642808 5.6702363 3.48517081 11.147205 4 17 C5.98 17.66 7.96 18.32 10 19 C10 16.03 10 13.06 10 10 C10.33 10 10.66 10 11 10 C11 13.3 11 16.6 11 20 C8.36 20 5.72 20 3 20 C2.67 21.98 2.34 23.96 2 26 C-3.23175837 26.38281159 -6.37802694 25.21854707 -11 23 C-10.67 21.02 -10.34 19.04 -10 17 C-5.48281619 15.63115642 -2.41225737 16.52924754 2 18 C1.855625 17.45472656 1.71125 16.90945312 1.5625 16.34765625 C0.18471403 10.75040076 -0.18287437 5.76054255 0 0 Z " fill="#888888" transform="translate(407,224)"/>
<path d="M0 0 C0.125 3.375 0.125 3.375 0 7 C-3.09902323 10.09902323 -5.39147385 9.9898579 -9.75 10.0625 C-10.8225 10.041875 -11.895 10.02125 -13 10 C-13 7.36 -13 4.72 -13 2 C-10.73548507 0.86774254 -9.01180526 0.69438917 -6.5 0.4375 C-5.7059375 0.35371094 -4.911875 0.26992187 -4.09375 0.18359375 C-2 0 -2 0 0 0 Z " fill="#5C5E5F" transform="translate(1020,227)"/>
<path d="M0 0 C1.97909398 -0.02686553 3.95828971 -0.04633375 5.9375 -0.0625 C7.03964844 -0.07410156 8.14179687 -0.08570313 9.27734375 -0.09765625 C12 0 12 0 13 1 C13.04092937 3.33297433 13.04241723 5.66705225 13 8 C8.71 8 4.42 8 0 8 C0 5.36 0 2.72 0 0 Z " fill="#757576" transform="translate(1107,223)"/>
<path d="M0 0 C1.41750563 0.11509661 2.83401169 0.24253658 4.25 0.375 C5.03890625 0.44460938 5.8278125 0.51421875 6.640625 0.5859375 C9.085877 1.01507113 10.84836903 1.78600638 13 3 C13 5.31 13 7.62 13 10 C11.33388095 10.042721 9.66617115 10.04063832 8 10 C7.67 9.67 7.34 9.34 7 9 C4.67182036 8.63239269 2.3381615 8.29758419 0 8 C0 5.36 0 2.72 0 0 Z " fill="#787877" transform="translate(469,261)"/>
<path d="M0 0 C4.29 0 8.58 0 13 0 C13 2.31 13 4.62 13 7 C9.98509443 8.00496852 7.95818308 8.10335303 4.8125 8.0625 C3.46091797 8.04896484 3.46091797 8.04896484 2.08203125 8.03515625 C1.39496094 8.02355469 0.70789063 8.01195312 0 8 C0 5.36 0 2.72 0 0 Z " fill="#797A7B" transform="translate(765,283)"/>
<path d="M0 0 C3.48221175 0.17411059 5.65214817 0.68551124 8.75 2.1875 C8.75 4.4975 8.75 6.8075 8.75 9.1875 C7.1454444 9.04601011 5.54136233 8.89914314 3.9375 8.75 C3.04417969 8.66878906 2.15085937 8.58757812 1.23046875 8.50390625 C-1.25 8.1875 -1.25 8.1875 -4.25 7.1875 C-4.29254356 5.18795254 -4.29080783 3.18708364 -4.25 1.1875 C-3.25 0.1875 -3.25 0.1875 0 0 Z " fill="#6C6C6B" transform="translate(1234.25,237.8125)"/>
<path d="M0 0 C1.65322266 0.01740234 1.65322266 0.01740234 3.33984375 0.03515625 C4.99693359 0.04869141 4.99693359 0.04869141 6.6875 0.0625 C7.54214844 0.07410156 8.39679687 0.08570313 9.27734375 0.09765625 C9.27734375 2.07765625 9.27734375 4.05765625 9.27734375 6.09765625 C5.16944637 8.08936407 1.82633421 8.52680629 -2.72265625 8.09765625 C-4.72265625 5.09765625 -4.72265625 5.09765625 -4.41015625 2.97265625 C-3.34656342 0.07194854 -3.22822841 0.11579012 0 0 Z " fill="#434343" transform="translate(986.72265625,231.90234375)"/>
<path d="M0 0 C2.14576637 -0.02685938 4.29162645 -0.04633088 6.4375 -0.0625 C7.63246094 -0.07410156 8.82742188 -0.08570313 10.05859375 -0.09765625 C13 0 13 0 14 1 C14.125 3.5 14.125 3.5 14 6 C13 7 13 7 10.05859375 7.09765625 C8.26615234 7.08025391 8.26615234 7.08025391 6.4375 7.0625 C4.64119141 7.04896484 4.64119141 7.04896484 2.80859375 7.03515625 C1.88175781 7.02355469 0.95492188 7.01195312 0 7 C0 4.69 0 2.38 0 0 Z " fill="#3B3C3D" transform="translate(1081,223)"/>
<path d="M0 0 C4.29 0.33 8.58 0.66 13 1 C13 3.31 13 5.62 13 8 C8.71 8 4.42 8 0 8 C0 5.36 0 2.72 0 0 Z " fill="#3B3B3B" transform="translate(616,285)"/>
<path d="M0 0 C1.43931117 0.45261358 2.87638999 0.91232979 4.3125 1.375 C5.11300781 1.63023437 5.91351562 1.88546875 6.73828125 2.1484375 C9 3 9 3 12 5 C11.49396008 7.16874252 11.00016187 8.99967627 10 11 C1.76572668 10.20824295 1.76572668 10.20824295 -1 7 C-1.3125 3.875 -1.3125 3.875 -1 1 C-0.67 0.67 -0.34 0.34 0 0 Z " fill="#3B3A3A" transform="translate(1421,300)"/>
<path d="M0 0 C3.9085172 0.27268725 5.78596786 0.83606049 8.9375 3.25 C11 6 11 6 10.8125 8.8125 C10.544375 9.534375 10.27625 10.25625 10 11 C7.0625 10.625 7.0625 10.625 4 10 C3.67 9.34 3.34 8.68 3 8 C1.35636866 7.27840576 -0.31050386 6.60648579 -2 6 C-2 4.68 -2 3.36 -2 2 C-1.34 2 -0.68 2 0 2 C0 1.34 0 0.68 0 0 Z " fill="#181818" transform="translate(198,141)"/>
<path d="M0 0 C0.99 0 1.98 0 3 0 C3.33 0.66 3.66 1.32 4 2 C4.99 2.33 5.98 2.66 7 3 C9.7667759 5.97172226 10 6.74190625 10 11 C7.4375 11.9375 7.4375 11.9375 4 12 C1.32368126 9.95937374 -0.83557436 7.56785409 -3 5 C-1.125 1.125 -1.125 1.125 0 0 Z " fill="#242424" transform="translate(1691,478)"/>
<path d="M0 0 C3.78953385 1.35340495 4.83310504 3.42262912 6.625 6.9375 C6.375 9.3125 6.375 9.3125 5.625 10.9375 C3.859375 11.62109375 3.859375 11.62109375 1.625 11.9375 C-0.296875 10.72265625 -0.296875 10.72265625 -2.125 9 C-2.73859375 8.43410156 -3.3521875 7.86820312 -3.984375 7.28515625 C-4.44328125 6.84042969 -4.9021875 6.39570313 -5.375 5.9375 C-5 3.5 -5 3.5 -4.375 0.9375 C-2.375 -0.0625 -2.375 -0.0625 0 0 Z " fill="#323233" transform="translate(1711.375,496.0625)"/>
<path d="M0 0 C1 1 1 1 1.0625 3.5625 C1.041875 4.366875 1.02125 5.17125 1 6 C-3.1205746 7.99785435 -6.45194365 8.17835515 -11 8 C-12.125 3.25 -12.125 3.25 -11 1 C-7.43749533 -0.3701941 -3.76479748 -0.14206783 0 0 Z " fill="#363636" transform="translate(899,258)"/>
<path d="M0 0 C4.77576339 0.4682121 8.04476345 1.24331998 12 4 C11.67 5.98 11.34 7.96 11 10 C6.91621717 9.25749403 2.98060777 8.17076699 -1 7 C-0.67 4.69 -0.34 2.38 0 0 Z " fill="#0F0F10" transform="translate(1465,323)"/>
<path d="M0 0 C3.32158944 1.71112183 4.89871716 4.56378575 6.0625 8.0625 C5.3125 11 5.3125 11 4.0625 13.0625 C1.0625 13.0625 1.0625 13.0625 -1.625 10.6875 C-3.9375 8.0625 -3.9375 8.0625 -3.9375 6.0625 C-4.5975 6.0625 -5.2575 6.0625 -5.9375 6.0625 C-5.625 4.1875 -5.625 4.1875 -4.9375 2.0625 C-1.9375 0.0625 -1.9375 0.0625 0 0 Z " fill="#333232" transform="translate(127.9375,73.9375)"/>
<path d="M0 0 C5.28798182 0.41474367 8.11690718 1.35224614 12 5 C11.67 6.65 11.34 8.3 11 10 C9.265625 10.71484375 9.265625 10.71484375 7 11 C4.859375 9.56640625 4.859375 9.56640625 2.75 7.5625 C1.69039062 6.57443359 1.69039062 6.57443359 0.609375 5.56640625 C0.07828125 5.04949219 -0.4528125 4.53257812 -1 4 C-0.67 2.68 -0.34 1.36 0 0 Z " fill="#2C2B2C" transform="translate(1593,401)"/>
<path d="M0 0 C5.29441695 -0.50423019 7.81413519 0.81076967 12 4 C11.67 5.98 11.34 7.96 11 10 C6.00088076 9.52389341 3.02167317 7.96837781 -1 5 C-0.67 3.35 -0.34 1.7 0 0 Z " fill="#434343" transform="translate(1443,312)"/>
<path d="M0 0 C1 1 1 1 1.0625 3.5625 C1.041875 4.366875 1.02125 5.17125 1 6 C-3.1205746 7.99785435 -6.45194365 8.17835515 -11 8 C-11.33 6.02 -11.66 4.04 -12 2 C-7.8369263 0.41406716 -4.46074638 -0.31121486 0 0 Z " fill="#4B4C4C" transform="translate(946,243)"/>
<path d="M0 0 C4.3177458 0.50797009 8.03302114 1.19682779 12 3 C11.67 5.31 11.34 7.62 11 10 C9.5608866 9.71640113 8.12374482 9.42278601 6.6875 9.125 C5.88699219 8.96257812 5.08648437 8.80015625 4.26171875 8.6328125 C2 8 2 8 -1 6 C-0.67 4.02 -0.34 2.04 0 0 Z " fill="#343434" transform="translate(351,223)"/>
<path d="M0 0 C0.33 1.98 0.66 3.96 1 6 C-3.32059823 7.09845718 -7.61667943 8.17812739 -12 9 C-12 7.02 -12 5.04 -12 3 C-11.01 2.67 -10.02 2.34 -9 2 C-9 1.34 -9 0.68 -9 0 C-5.62182575 -0.84454356 -3.32534757 -1.10844919 0 0 Z " fill="#414141" transform="translate(875,265)"/>
<path d="M0 0 C4.07279689 0.38422612 7.46574118 0.87944471 11 3 C11 4.98 11 6.96 11 9 C7.04 8.67 3.08 8.34 -1 8 C-1.04241723 5.66705225 -1.04092937 3.33297433 -1 1 C-0.67 0.67 -0.34 0.34 0 0 Z " fill="#424141" transform="translate(1304,256)"/>
<path d="M0 0 C0 2.31 0 4.62 0 7 C-3.63 7.33 -7.26 7.66 -11 8 C-11 7.34 -11 6.68 -11 6 C-11.66 6 -12.32 6 -13 6 C-13 4.68 -13 3.36 -13 2 C-8.50343896 -0.24828052 -4.92127034 -0.16682272 0 0 Z " fill="#212222" transform="translate(851,270)"/>
<path d="M0 0 C3.41956339 0.42271356 6.71816167 0.93136835 10 2 C11.6875 4.5 11.6875 4.5 12 7 C11.67 7.66 11.34 8.32 11 9 C9.3745692 8.85904936 7.74965949 8.71207913 6.125 8.5625 C5.22007812 8.48128906 4.31515625 8.40007812 3.3828125 8.31640625 C1 8 1 8 -1 7 C-0.67 4.69 -0.34 2.38 0 0 Z " fill="#302F30" transform="translate(374,232)"/>
<path d="M0 0 C2.0625 0.4375 2.0625 0.4375 4 1 C4.103125 1.639375 4.20625 2.27875 4.3125 2.9375 C4.539375 3.618125 4.76625 4.29875 5 5 C5.99 5.33 6.98 5.66 8 6 C8.33 7.65 8.66 9.3 9 11 C6 13 6 13 3 13 C3 12.01 3 11.02 3 10 C2.01 9.67 1.02 9.34 0 9 C-1.57259584 6.71973603 -2.08274284 5.57919989 -1.6875 2.8125 C-1 1 -1 1 0 0 Z " fill="#2B2B2B" transform="translate(1741,534)"/>
<path d="M0 0 C7.23291627 2.08950914 7.23291627 2.08950914 9 5 C8.6875 8.1875 8.6875 8.1875 8 11 C2.64951939 10.62671065 0.49087093 9.0042343 -3 5 C-1.125 1.125 -1.125 1.125 0 0 Z " fill="#2D2D2D" transform="translate(1673,462)"/>
<path d="M0 0 C1.35350594 0.62469505 2.69934483 1.2716331 4 2 C4 3.65 4 5.3 4 7 C1.31143576 8.00821159 -0.41703215 8.22736824 -3.11328125 7.17578125 C-5.10794931 6.16604698 -7.0646772 5.11893353 -9 4 C-9 2.35 -9 0.7 -9 -1 C-5.77272143 -2.61363928 -3.31076949 -1.08456242 0 0 Z " fill="#343434" transform="translate(291,194)"/>
<path d="M0 0 C3.38783354 0.70579865 5.43827184 1.4563921 7.9375 3.875 C9 6 9 6 8.6875 8.25 C8.460625 8.8275 8.23375 9.405 8 10 C3.22423661 9.5317879 -0.04476345 8.75668002 -4 6 C-3.6875 4.125 -3.6875 4.125 -3 2 C-2.01 1.34 -1.02 0.68 0 0 Z " fill="#484747" transform="translate(1532,359)"/>
<path d="M0 0 C3.34373475 0.55728913 6.03312999 1.35173889 9 3 C9 3.66 9 4.32 9 5 C9.66 5 10.32 5 11 5 C10.49396008 7.16874252 10.00016187 8.99967627 9 11 C4.80639551 10.32902328 1.59665648 8.1441606 -2 6 C-1.49396008 3.83125748 -1.00016187 2.00032373 0 0 Z " fill="#363636" transform="translate(1488,334)"/>
<path d="M0 0 C1.65 0.33 3.3 0.66 5 1 C5 1.66 5 2.32 5 3 C7.31 3.66 9.62 4.32 12 5 C11.67 6.65 11.34 8.3 11 10 C6.24792529 10.43200679 3.21789302 8.98489083 -1 7 C-0.67 4.69 -0.34 2.38 0 0 Z " fill="#292928" transform="translate(328,213)"/>
<path d="M0 0 C0.99 0 1.98 0 3 0 C3 0.66 3 1.32 3 2 C3.99 2.33 4.98 2.66 6 3 C7.8125 5.3125 7.8125 5.3125 9 8 C8.1875 10.3125 8.1875 10.3125 7 12 C5.68 12 4.36 12 3 12 C1.95107762 10.36368108 0.95093297 8.69514137 0 7 C-0.99 6.67 -1.98 6.34 -3 6 C-2.67 4.68 -2.34 3.36 -2 2 C-1.34 2 -0.68 2 0 2 C0 1.34 0 0.68 0 0 Z " fill="#949494" transform="translate(1726,514)"/>
<path d="M0 0 C0.1875 2.375 0.1875 2.375 0 5 C-2.99695432 6.99796955 -4.17857384 7.34510261 -7.625 7.6875 C-8.42164063 7.77386719 -9.21828125 7.86023438 -10.0390625 7.94921875 C-11.00972656 7.97435547 -11.00972656 7.97435547 -12 8 C-13 7 -13 7 -13.0625 3.9375 C-13.041875 2.968125 -13.02125 1.99875 -13 1 C-11.39602723 0.83147753 -9.7918131 0.66525114 -8.1875 0.5 C-7.29417969 0.4071875 -6.40085937 0.314375 -5.48046875 0.21875 C-3 0 -3 0 0 0 Z " fill="#414242" transform="translate(802,280)"/>
<path d="M0 0 C1.98 0 3.96 0 6 0 C6 2.31 6 4.62 6 7 C3.11788698 7.96070434 1.30149956 8.10581883 -1.6875 8.0625 C-2.89986328 8.04896484 -2.89986328 8.04896484 -4.13671875 8.03515625 C-5.05904297 8.01775391 -5.05904297 8.01775391 -6 8 C-6 6.02 -6 4.04 -6 2 C-4.02 2 -2.04 2 0 2 C0 1.34 0 0.68 0 0 Z " fill="#2F302F" transform="translate(821,275)"/>
<path d="M0 0 C2.31 0.33 4.62 0.66 7 1 C7 1.66 7 2.32 7 3 C8.65 3 10.3 3 12 3 C12 4.65 12 6.3 12 8 C8.72814447 9.07310858 6.57052408 8.89263102 3.25 8.0625 C2.45078125 7.86785156 1.6515625 7.67320312 0.828125 7.47265625 C-0.07679688 7.23869141 -0.07679688 7.23869141 -1 7 C-0.67 4.69 -0.34 2.38 0 0 Z " fill="#282728" transform="translate(445,255)"/>
<path d="M0 0 C0.66 0 1.32 0 2 0 C2 0.66 2 1.32 2 2 C2.5775 2.28875 3.155 2.5775 3.75 2.875 C5.83333333 3.91666667 7.91666667 4.95833333 10 6 C9.67 7.65 9.34 9.3 9 11 C7.234375 11.65234375 7.234375 11.65234375 5 12 C3.078125 11.00390625 3.078125 11.00390625 1.25 9.5625 C0.32960937 8.85287109 0.32960937 8.85287109 -0.609375 8.12890625 C-1.06828125 7.75636719 -1.5271875 7.38382812 -2 7 C-1.125 2.25 -1.125 2.25 0 0 Z " fill="#292929" transform="translate(160,109)"/>
<path d="M0 0 C4.87664009 -0.34833144 7.77050005 0.58314288 12 3 C11.125 7.875 11.125 7.875 10 9 C8.33382885 9.04063832 6.66611905 9.042721 5 9 C5 8.34 5 7.68 5 7 C4.071875 6.7834375 4.071875 6.7834375 3.125 6.5625 C1 6 1 6 -1 5 C-0.67 3.35 -0.34 1.7 0 0 Z " fill="#2D2D2E" transform="translate(306,204)"/>
<path d="M0 0 C2.3125 0.1875 2.3125 0.1875 5 1 C7.4393334 4.1362858 8.57370295 7.05675225 9 11 C8.67 11.66 8.34 12.32 8 13 C6.35 13 4.7 13 3 13 C0.78145293 8.37802694 -0.38281159 5.23175837 0 0 Z " fill="#2B2A2A" transform="translate(97,34)"/>
<path d="M0 0 C4.35877078 0.50293509 6.98059086 2.98059086 10 6 C10.375 8.8125 10.375 8.8125 10 11 C9.01 11.33 8.02 11.66 7 12 C4.73828125 10.671875 4.73828125 10.671875 2.3125 8.75 C1.50425781 8.12609375 0.69601562 7.5021875 -0.13671875 6.859375 C-0.75160156 6.24578125 -1.36648438 5.6321875 -2 5 C-2 4.01 -2 3.02 -2 2 C-1.34 2 -0.68 2 0 2 C0 1.34 0 0.68 0 0 Z " fill="#2A2A2A" transform="translate(1614,415)"/>
<path d="M0 0 C3.27114515 1.30845806 5.01069581 3.13844616 7.1875 5.875 C7 8.6875 7 8.6875 6.1875 10.875 C1.67271602 10.34384894 -1.15916857 8.50879708 -4.8125 5.875 C-4.4375 3.4375 -4.4375 3.4375 -3.8125 0.875 C-1.8125 -0.125 -1.8125 -0.125 0 0 Z " fill="#262626" transform="translate(1575.8125,386.125)"/>
<path d="M0 0 C4.29 0.66 8.58 1.32 13 2 C12.67 3.98 12.34 5.96 12 8 C8.04 7.67 4.08 7.34 0 7 C0 4.69 0 2.38 0 0 Z " fill="#505050" transform="translate(566,280)"/>
<path d="M0 0 C0.66 0 1.32 0 2 0 C6 5.41176471 6 5.41176471 6 8 C6.66 8 7.32 8 8 8 C8.33 8.99 8.66 9.98 9 11 C6 13 6 13 3.5625 13.0625 C-0.4544878 11.39691969 -1.24069832 8.92459606 -3 5 C-2.67 4.01 -2.34 3.02 -2 2 C-1.34 2 -0.68 2 0 2 C0 1.34 0 0.68 0 0 Z " fill="#212121" transform="translate(111,54)"/>
<path d="M0 0 C1.65 0 3.3 0 5 0 C5 0.66 5 1.32 5 2 C5.598125 2.103125 6.19625 2.20625 6.8125 2.3125 C9.33421352 3.10503854 10.39685699 3.91591409 12 6 C12 6.99 12 7.98 12 9 C9.1875 9.625 9.1875 9.625 6 10 C5.01 9.34 4.02 8.68 3 8 C3 7.34 3 6.68 3 6 C2.01 5.67 1.02 5.34 0 5 C0 3.35 0 1.7 0 0 Z " fill="#201F20" transform="translate(1652,446)"/>
<path d="M0 0 C1.43836751 0.11458693 2.87570966 0.24209116 4.3125 0.375 C5.51326172 0.47941406 5.51326172 0.47941406 6.73828125 0.5859375 C9 1 9 1 12 3 C12 4.32 12 5.64 12 7 C7.02398374 8.71050559 3.57383705 7.00885647 -1 5 C-0.67 3.35 -0.34 1.7 0 0 Z " fill="#2B2B2B" transform="translate(1375,282)"/>
<path d="M0 0 C6.36 0.6 6.36 0.6 9 2.25 C10 4 10 4 9.6875 6.6875 C9.460625 7.450625 9.23375 8.21375 9 9 C7.375 9.8125 7.375 9.8125 5 10 C2.75390165 8.53181864 0.97621323 6.84147142 -1 5 C-0.67 3.35 -0.34 1.7 0 0 Z " fill="#222222" transform="translate(179,127)"/>
<path d="M0 0 C4.37859255 0.50522222 6.81651224 3.17827222 10 6 C9.67 7.32 9.34 8.64 9 10 C4.32674845 10 2.17640953 8.92757363 -2 7 C-1.125 2.25 -1.125 2.25 0 0 Z " fill="#242424" transform="translate(1634,430)"/>
<path d="M0 0 C4.3890815 0.51035831 7.33708062 1.52214277 11 4 C10.67 5.98 10.34 7.96 10 10 C9.01 10 8.02 10 7 10 C7 9.34 7 8.68 7 8 C5.8553125 7.814375 5.8553125 7.814375 4.6875 7.625 C2 7 2 7 -1 5 C-0.67 3.35 -0.34 1.7 0 0 Z " fill="#222122" transform="translate(1509,347)"/>
<path d="M0 0 C4.34361288 1.18462169 7.28300842 2.30489146 10 6 C9.67 7.32 9.34 8.64 9 10 C5.7 9.34 2.4 8.68 -1 8 C-1.33 6.35 -1.66 4.7 -2 3 C-1.34 2.01 -0.68 1.02 0 0 Z " fill="#2D2C2D" transform="translate(262,180)"/>
<path d="M0 0 C4.455 0.99 4.455 0.99 9 2 C9.33 4.31 9.66 6.62 10 9 C5.44262737 8.56179109 2.42346555 8.14958831 -1 5 C-0.67 3.35 -0.34 1.7 0 0 Z " fill="#262726" transform="translate(1398,291)"/>
<path d="M0 0 C3.96502948 0.45057153 7.35465276 1.39175857 11 3 C11 4.65 11 6.3 11 8 C6.45194365 8.17835515 3.1205746 7.99785435 -1 6 C-1.042721 4.33388095 -1.04063832 2.66617115 -1 1 C-0.67 0.67 -0.34 0.34 0 0 Z " fill="#1F1F1F" transform="translate(1328,265)"/>
<path d="M0 0 C1.98 0 3.96 0 6 0 C7.80230168 3.82989106 8.19622241 6.78121808 8 11 C6.35 11.33 4.7 11.66 3 12 C2.49166409 10.75336669 1.99368855 9.50250613 1.5 8.25 C1.2215625 7.55390625 0.943125 6.8578125 0.65625 6.140625 C0 4 0 4 0 0 Z " fill="#111010" transform="translate(87,11)"/>
<path d="M0 0 C3.96 0.33 7.92 0.66 12 1 C11.67 3.31 11.34 5.62 11 8 C7.37 7.34 3.74 6.68 0 6 C0 4.02 0 2.04 0 0 Z " fill="#252625" transform="translate(1256,244)"/>
<path d="M0 0 C3.96 0 7.92 0 12 0 C12 1.65 12 3.3 12 5 C11 6 11 6 8.49609375 6.09765625 C6.98208984 6.08025391 6.98208984 6.08025391 5.4375 6.0625 C4.42558594 6.05347656 3.41367187 6.04445313 2.37109375 6.03515625 C1.58863281 6.02355469 0.80617188 6.01195312 0 6 C0 4.02 0 2.04 0 0 Z " fill="#1E1F1E" transform="translate(641,288)"/>
<path d="M0 0 C1.51400391 0.01740234 1.51400391 0.01740234 3.05859375 0.03515625 C4.07050781 0.04417969 5.08242187 0.05320313 6.125 0.0625 C7.29869141 0.07990234 7.29869141 0.07990234 8.49609375 0.09765625 C8.49609375 2.07765625 8.49609375 4.05765625 8.49609375 6.09765625 C4.53609375 6.09765625 0.57609375 6.09765625 -3.50390625 6.09765625 C-3.50390625 0.13665781 -3.50390625 0.13665781 0 0 Z " fill="#3D3E3E" transform="translate(1135.50390625,224.90234375)"/>
<path d="M0 0 C3.82118677 0.54588382 7.36378667 1.73155349 11 3 C10.67 4.65 10.34 6.3 10 8 C8.35 8.33 6.7 8.66 5 9 C5 8.34 5 7.68 5 7 C2.03 6.505 2.03 6.505 -1 6 C-1.042721 4.33388095 -1.04063832 2.66617115 -1 1 C-0.67 0.67 -0.34 0.34 0 0 Z " fill="#141413" transform="translate(1352,273)"/>
<path d="M0 0 C3.8063457 0.67170806 7.35206816 1.72746564 11 3 C11.042721 4.66611905 11.04063832 6.33382885 11 8 C10 9 10 9 7.625 9.25 C4.51460543 8.95377195 3.9986716 8.27121773 2 6 C1.01 5.67 0.02 5.34 -1 5 C-0.67 3.35 -0.34 1.7 0 0 Z " fill="#1B1B1B" transform="translate(240,169)"/>
<path d="M0 0 C1.85772162 0.08984301 3.71247985 0.24611861 5.5625 0.4375 C7.08037109 0.59025391 7.08037109 0.59025391 8.62890625 0.74609375 C9.80259766 0.87177734 9.80259766 0.87177734 11 1 C11 2.98 11 4.96 11 7 C7.04 6.67 3.08 6.34 -1 6 C-1 1 -1 1 0 0 Z " fill="#2B2A2A" transform="translate(494,268)"/>
<path d="M0 0 C1.64671412 0.30782496 3.29235576 0.62139234 4.9375 0.9375 C5.85402344 1.11152344 6.77054687 1.28554687 7.71484375 1.46484375 C10 2 10 2 11 3 C11.04063832 4.66617115 11.042721 6.33388095 11 8 C2.42857143 7 2.42857143 7 -1 6 C-0.67 4.02 -0.34 2.04 0 0 Z " fill="#10100F" transform="translate(422,249)"/>
<path d="M0 0 C4.51478398 0.53115106 7.34666857 2.36620292 11 5 C10.67 6.32 10.34 7.64 10 9 C8.375 9.8125 8.375 9.8125 6 10 C2.75 7.875 2.75 7.875 0 5 C-0.375 2.1875 -0.375 2.1875 0 0 Z " fill="#131314" transform="translate(1552,373)"/>
<path d="M0 0 C0 1.32 0 2.64 0 4 C-1.24663331 4.50833591 -2.49749387 5.00631145 -3.75 5.5 C-4.44609375 5.7784375 -5.1421875 6.056875 -5.859375 6.34375 C-8 7 -8 7 -12 7 C-12 5.35 -12 3.7 -12 2 C-4.71428571 -1.57142857 -4.71428571 -1.57142857 0 0 Z " fill="#181918" transform="translate(923,252)"/>
<path d="M0 0 C0 1.98 0 3.96 0 6 C-3.63 6 -7.26 6 -11 6 C-11.33 4.35 -11.66 2.7 -12 1 C-8.0186217 -0.3271261 -4.14954773 -0.06915913 0 0 Z " fill="#171717" transform="translate(752,286)"/>
<path d="M0 0 C1.51400391 0.01740234 1.51400391 0.01740234 3.05859375 0.03515625 C4.07050781 0.04417969 5.08242187 0.05320313 6.125 0.0625 C7.29869141 0.07990234 7.29869141 0.07990234 8.49609375 0.09765625 C8.49609375 1.74765625 8.49609375 3.39765625 8.49609375 5.09765625 C4.44334215 6.08014149 0.65747638 6.17925199 -3.50390625 6.09765625 C-3.54662725 4.4315372 -3.54454457 2.7638274 -3.50390625 1.09765625 C-2.50390625 0.09765625 -2.50390625 0.09765625 0 0 Z " fill="#1C1C1D" transform="translate(1036.50390625,225.90234375)"/>
<path d="M0 0 C3.93383553 0.5619765 6.87020891 1.49616713 10 4 C10.3125 6.6875 10.3125 6.6875 10 9 C6.16967201 8.70535939 3.64765087 8.46954688 0.5 6.1875 C-1 4 -1 4 -0.75 1.75 C-0.5025 1.1725 -0.255 0.595 0 0 Z " fill="#181818" transform="translate(219,156)"/>
<path d="M0 0 C3.63 0 7.26 0 11 0 C11 1.98 11 3.96 11 6 C9.35425434 6.02688151 7.70838587 6.04634123 6.0625 6.0625 C5.14597656 6.07410156 4.22945312 6.08570313 3.28515625 6.09765625 C1 6 1 6 0 5 C0 3.35 0 1.7 0 0 Z " fill="#1D1E1E" transform="translate(716,288)"/>
<path d="M0 0 C3.56943715 0.30595176 5.03014419 1.02424641 7.875 3.3125 C10 6 10 6 9.8125 8.3125 C9.544375 8.869375 9.27625 9.42625 9 10 C5.43056285 9.69404824 3.96985581 8.97575359 1.125 6.6875 C-1 4 -1 4 -0.8125 1.6875 C-0.4103125 0.8521875 -0.4103125 0.8521875 0 0 Z " fill="#161617" transform="translate(141,94)"/>
<path d="M0 0 C3.96 0.33 7.92 0.66 12 1 C12 2.65 12 4.3 12 6 C8.04 6 4.08 6 0 6 C0 4.02 0 2.04 0 0 Z " fill="#181819" transform="translate(1182,230)"/>
<path d="M0 0 C1.8871875 0.0309375 1.8871875 0.0309375 3.8125 0.0625 C3.8125 1.7125 3.8125 3.3625 3.8125 5.0625 C2.19078761 5.45147161 0.56495075 5.82328298 -1.0625 6.1875 C-1.96742188 6.39632812 -2.87234375 6.60515625 -3.8046875 6.8203125 C-4.59101562 6.90023437 -5.37734375 6.98015625 -6.1875 7.0625 C-6.8475 6.4025 -7.5075 5.7425 -8.1875 5.0625 C-8 3 -8 3 -7.1875 1.0625 C-4.43671116 0.14557039 -2.82801087 -0.04636083 0 0 Z " fill="#191918" transform="translate(966.1875,237.9375)"/>
<path d="M0 0 C1.69141656 0.08963062 3.37959602 0.24577676 5.0625 0.4375 C6.44115234 0.59025391 6.44115234 0.59025391 7.84765625 0.74609375 C8.55792969 0.82988281 9.26820312 0.91367188 10 1 C10 2.65 10 4.3 10 6 C6.37 6 2.74 6 -1 6 C-1 1 -1 1 0 0 Z " fill="#151515" transform="translate(1158,227)"/>
<path d="M0 0 C3.96 0 7.92 0 12 0 C12 1.65 12 3.3 12 5 C8.04 5 4.08 5 0 5 C0 3.35 0 1.7 0 0 Z " fill="#131414" transform="translate(691,289)"/>
<path d="M0 0 C3.96 0 7.92 0 12 0 C12 1.65 12 3.3 12 5 C8.04 5 4.08 5 0 5 C0 3.35 0 1.7 0 0 Z " fill="#0F1010" transform="translate(666,289)"/>
<path d="M0 0 C1.65 0 3.3 0 5 0 C5 0.66 5 1.32 5 2 C6.98 2 8.96 2 11 2 C11 3.65 11 5.3 11 7 C7.37 6.67 3.74 6.34 0 6 C0 4.02 0 2.04 0 0 Z " fill="#161516" transform="translate(518,273)"/>
<path d="M0 0 C7.42857143 -0.28571429 7.42857143 -0.28571429 11 2 C11 3.65 11 5.3 11 7 C6.94393835 6.53199289 3.53411321 6.12046792 0 4 C0 2.68 0 1.36 0 0 Z " fill="#0E0E0E" transform="translate(1280,251)"/>
<path d="M0 0 C3.63 0 7.26 0 11 0 C11 1.98 11 3.96 11 6 C3.57142857 5 3.57142857 5 0 4 C0 2.68 0 1.36 0 0 Z " fill="#10100F" transform="translate(1207,235)"/>
<path d="M0 0 C3.63 0 7.26 0 11 0 C11 1.65 11 3.3 11 5 C7.37 5 3.74 5 0 5 C0 3.35 0 1.7 0 0 Z " fill="#0E0E0F" transform="translate(1058,225)"/>
<path d="M0 0 C3.63 0 7.26 0 11 0 C11 1.65 11 3.3 11 5 C7.7 5 4.4 5 1 5 C0.67 3.35 0.34 1.7 0 0 Z " fill="#151515" transform="translate(592,285)"/>
<path d="M0 0 C3.96 0.33 7.92 0.66 12 1 C12 2.32 12 3.64 12 5 C8.04 5 4.08 5 0 5 C0 3.35 0 1.7 0 0 Z " fill="#0B0B0B" transform="translate(542,278)"/>
<path d="M0 0 C3.3 0 6.6 0 10 0 C10 1.32 10 2.64 10 4 C7.36 4 4.72 4 2 4 C2 4.66 2 5.32 2 6 C1.01 5.67 0.02 5.34 -1 5 C-0.67 3.35 -0.34 1.7 0 0 Z " fill="#121211" transform="translate(1009,229)"/>
<path d="M0 0 C0 1.32 0 2.64 0 4 C-3.63 4.66 -7.26 5.32 -11 6 C-11 4.35 -11 2.7 -11 1 C-7.32589215 -0.17571451 -3.83070817 -0.07366746 0 0 Z " fill="#0C0D0C" transform="translate(777,284)"/>
<path d="M0 0 C7.75 -0.125 7.75 -0.125 10 1 C10 2.32 10 3.64 10 5 C6.37 4.67 2.74 4.34 -1 4 C-0.67 2.68 -0.34 1.36 0 0 Z " fill="#121110" transform="translate(398,243)"/>
<path d="M0 0 C4.21878192 -0.19622241 7.17010894 0.19769832 11 2 C11 2.99 11 3.98 11 5 C7.37 5 3.74 5 0 5 C0 3.35 0 1.7 0 0 Z " fill="#0C0C0C" transform="translate(1231,239)"/>
<path d="M0 0 C4.95 0.99 4.95 0.99 10 2 C10 3.65 10 5.3 10 7 C6.7 6.34 3.4 5.68 0 5 C0 3.35 0 1.7 0 0 Z " fill="#0A0A0A" transform="translate(470,263)"/>
<path d="M0 0 C3.63 0 7.26 0 11 0 C11 1.65 11 3.3 11 5 C7.37 4.67 3.74 4.34 0 4 C0 2.68 0 1.36 0 0 Z " fill="#0F0F0F" transform="translate(1108,225)"/>
<path d="M0 0 C0 2.31 0 4.62 0 7 C-1.98 7 -3.96 7 -6 7 C-6.33 5.02 -6.66 3.04 -7 1 C-4.53721199 -0.231394 -2.7204945 -0.07159196 0 0 Z " fill="#6D6D6D" transform="translate(1757,556)"/>
<path d="M0 0 C0 0.66 0 1.32 0 2 C1.32 2 2.64 2 4 2 C2.125 5.875 2.125 5.875 1 7 C-0.51469448 7.23192865 -2.03754562 7.41215238 -3.5625 7.5625 C-4.38878906 7.64628906 -5.21507812 7.73007813 -6.06640625 7.81640625 C-6.70449219 7.87699219 -7.34257813 7.93757812 -8 8 C-7.67 7.34 -7.34 6.68 -7 6 C-5.02 6 -3.04 6 -1 6 C-1 4.35 -1 2.7 -1 1 C-4.96 1.66 -8.92 2.32 -13 3 C-13 2.34 -13 1.68 -13 1 C-11.58622218 0.63447197 -10.16879424 0.28304505 -8.75 -0.0625 C-7.96109375 -0.25972656 -7.1721875 -0.45695313 -6.359375 -0.66015625 C-3.89605178 -1.01497267 -2.34395868 -0.76877544 0 0 Z " fill="#979898" transform="translate(971,237)"/>
<path d="M0 0 C4.77576339 0.4682121 8.04476345 1.24331998 12 4 C11.67 5.98 11.34 7.96 11 10 C9.68 9.67 8.36 9.34 7 9 C7.99 9 8.98 9 10 9 C9.72382467 7.05925139 9.72382467 7.05925139 9 5 C6.21885944 2.66608797 6.21885944 2.66608797 3.3125 3.375 C2.1678125 3.684375 2.1678125 3.684375 1 4 C1.33 4.99 1.66 5.98 2 7 C1.01 7 0.02 7 -1 7 C-0.67 4.69 -0.34 2.38 0 0 Z " fill="#666666" transform="translate(1465,323)"/>
<path d="M0 0 C0.33 2.31 0.66 4.62 1 7 C0.34 5.68 -0.32 4.36 -1 3 C-4.46941546 3.45822468 -7.67395049 3.89131683 -11 5 C-11.33 6.65 -11.66 8.3 -12 10 C-10.68 10.33 -9.36 10.66 -8 11 C-9.65 11 -11.3 11 -13 11 C-13.33 8.36 -13.66 5.72 -14 3 C-4.58997722 -0.44419134 -4.58997722 -0.44419134 0 0 Z " fill="#979797" transform="translate(923,249)"/>
<path d="M0 0 C6.0546875 -0.1953125 6.0546875 -0.1953125 8 0 C8.66 0.66 9.32 1.32 10 2 C9.67 2.66 9.34 3.32 9 4 C6.03 4 3.06 4 0 4 C0 2.68 0 1.36 0 0 Z " fill="#020202" transform="translate(568,282)"/>
<path d="M0 0 C0 1.32 0 2.64 0 4 C-2.97 4 -5.94 4 -9 4 C-9 3.01 -9 2.02 -9 1 C-5.8035914 -0.06546953 -3.34252724 -0.07427838 0 0 Z " fill="#070607" transform="translate(504,270)"/>
<path d="M0 0 C1.65 0.33 3.3 0.66 5 1 C4.67 2.65 4.34 4.3 4 6 C2.35 6.33 0.7 6.66 -1 7 C-1 6.34 -1 5.68 -1 5 C-1.99 4.67 -2.98 4.34 -4 4 C-2.68 4 -1.36 4 0 4 C0 2.68 0 1.36 0 0 Z " fill="#323232" transform="translate(1358,275)"/>
<path d="M0 0 C0.99 0 1.98 0 3 0 C3.33 0.66 3.66 1.32 4 2 C4.99 2.33 5.98 2.66 7 3 C7 3.66 7 4.32 7 5 C4.03 4.505 4.03 4.505 1 4 C0.67 5.32 0.34 6.64 0 8 C-0.99 7.01 -1.98 6.02 -3 5 C-1.125 1.125 -1.125 1.125 0 0 Z " fill="#575657" transform="translate(1691,478)"/>
<path d="M0 0 C1.65 0 3.3 0 5 0 C5.33 1.65 5.66 3.3 6 5 C3.69 4.67 1.38 4.34 -1 4 C-0.67 2.68 -0.34 1.36 0 0 Z " fill="#0F0F0F" transform="translate(1444,314)"/>
<path d="M0 0 C4.7517398 0.43197635 6.92000054 1.32769295 10 5 C9.2575 4.649375 8.515 4.29875 7.75 3.9375 C4.86770391 2.95489906 3.75694758 2.81845104 1 4 C0.67 4.66 0.34 5.32 0 6 C0.66 6.33 1.32 6.66 2 7 C0.68 6.67 -0.64 6.34 -2 6 C-2 4.68 -2 3.36 -2 2 C-1.34 2 -0.68 2 0 2 C0 1.34 0 0.68 0 0 Z " fill="#727272" transform="translate(198,141)"/>
<path d="M0 0 C4.54805635 -0.17835515 7.8794254 0.00214565 12 2 C12 4.31 12 6.62 12 9 C10.02 9 8.04 9 6 9 C6 8.67 6 8.34 6 8 C7.65 8 9.3 8 11 8 C11 6.35 11 4.7 11 3 C9.02 3 7.04 3 5 3 C5 2.34 5 1.68 5 1 C3.35 1 1.7 1 0 1 C0 0.67 0 0.34 0 0 Z " fill="#929192" transform="translate(518,272)"/>
<path d="M0 0 C3.3 0 6.6 0 10 0 C10 0.99 10 1.98 10 3 C6.7 3 3.4 3 0 3 C0 2.01 0 1.02 0 0 Z " fill="#040404" transform="translate(1133,226)"/>
<path d="M0 0 C1.32 0.66 2.64 1.32 4 2 C3.67 3.32 3.34 4.64 3 6 C1.68 6 0.36 6 -1 6 C-1.66 5.34 -2.32 4.68 -3 4 C-2.34 4 -1.68 4 -1 4 C-0.67 2.68 -0.34 1.36 0 0 Z " fill="#1B1A1A" transform="translate(1640,434)"/>
<path d="M0 0 C1.65 0 3.3 0 5 0 C5 0.99 5 1.98 5 3 C1.62902617 4.49821059 -0.20442119 5 -4 5 C-4 4.34 -4 3.68 -4 3 C-2.68 2.67 -1.36 2.34 0 2 C0 1.34 0 0.68 0 0 Z " fill="#030403" transform="translate(941,245)"/>
<path d="M0 0 C0.99 0.495 0.99 0.495 2 1 C2 2.32 2 3.64 2 5 C4.97 5.33 7.94 5.66 11 6 C6.78370866 8.10814567 4.60209225 8.17700355 0 8 C0 5.36 0 2.72 0 0 Z " fill="#A7A6A6" transform="translate(1007,229)"/>
<path d="M0 0 C1.98 0 3.96 0 6 0 C5.67 0.99 5.34 1.98 5 3 C4.67 2.67 4.34 2.34 4 2 C3.855625 2.7425 3.71125 3.485 3.5625 4.25 C3.09812508 6.52027739 2.58136431 8.75759479 2 11 C0.80712589 7.12315913 0 4.08378077 0 0 Z " fill="#2E2C2B" transform="translate(87,11)"/>
<path d="M0 0 C-0.33 0.66 -0.66 1.32 -1 2 C-3.50390625 2.4140625 -3.50390625 2.4140625 -6.5625 2.625 C-7.57441406 2.69976562 -8.58632813 2.77453125 -9.62890625 2.8515625 C-10.41136719 2.90054687 -11.19382812 2.94953125 -12 3 C-12.33 3.99 -12.66 4.98 -13 6 C-13 4.68 -13 3.36 -13 2 C-8.50343896 -0.24828052 -4.92127034 -0.16682272 0 0 Z " fill="#727372" transform="translate(851,270)"/>
<path d="M0 0 C0.33 0 0.66 0 1 0 C2.69832609 5.83799592 3.25287193 10.93107371 3 17 C2.67 17 2.34 17 2 17 C0.30167391 11.16200408 -0.25287193 6.06892629 0 0 Z " fill="#747073" transform="translate(407,224)"/>
<path d="M0 0 C0.33 0 0.66 0 1 0 C1.20086443 3.71599191 1.1519437 4.77208445 -1 8 C-3.64 7.67 -6.28 7.34 -9 7 C-9 6.67 -9 6.34 -9 6 C-6.69 6 -4.38 6 -2 6 C-1.34 4.02 -0.68 2.04 0 0 Z " fill="#575857" transform="translate(439,203)"/>
<path d="M0 0 C0.99 0 1.98 0 3 0 C3 1.65 3 3.3 3 5 C0.36 4.67 -2.28 4.34 -5 4 C-4.0409375 3.8453125 -4.0409375 3.8453125 -3.0625 3.6875 C-2.381875 3.460625 -1.70125 3.23375 -1 3 C-0.67 2.01 -0.34 1.02 0 0 Z " fill="#1E1E1E" transform="translate(1312,260)"/>
<path d="M0 0 C2.5 0.3125 2.5 0.3125 5 1 C5.33 1.66 5.66 2.32 6 3 C4.02 3 2.04 3 0 3 C-0.66 4.32 -1.32 5.64 -2 7 C-1.125 1.125 -1.125 1.125 0 0 Z " fill="#747271" transform="translate(398,240)"/>
<path d="M0 0 C0 1.65 0 3.3 0 5 C-1.98 5 -3.96 5 -6 5 C-3.74193548 0 -3.74193548 0 0 0 Z " fill="#060707" transform="translate(850,271)"/>
<path d="M0 0 C0.99 0.33 1.98 0.66 3 1 C2.34 2.65 1.68 4.3 1 6 C0.01 6 -0.98 6 -2 6 C-2.33 4.68 -2.66 3.36 -3 2 C-2.01 1.34 -1.02 0.68 0 0 Z " fill="#181818" transform="translate(866,266)"/>
<path d="M0 0 C1.32 0 2.64 0 4 0 C4 1.65 4 3.3 4 5 C2.35 4.67 0.7 4.34 -1 4 C-0.67 2.68 -0.34 1.36 0 0 Z " fill="#090809" transform="translate(1531,361)"/>
<path d="M0 0 C1.32 0.66 2.64 1.32 4 2 C3.67 3.32 3.34 4.64 3 6 C1.02 6 -0.96 6 -3 6 C-2.01 5.67 -1.02 5.34 0 5 C0 3.35 0 1.7 0 0 Z " fill="#212121" transform="translate(382,235)"/>
<path d="M0 0 C1.32 0 2.64 0 4 0 C4 1.65 4 3.3 4 5 C2.68 4.67 1.36 4.34 0 4 C0 2.68 0 1.36 0 0 Z " fill="#141312" transform="translate(1752,557)"/>
<path d="M0 0 C0 0.99 0 1.98 0 3 C-2.64 3 -5.28 3 -8 3 C-6.23110084 -0.53779831 -3.70375662 0 0 0 Z " fill="#010202" transform="translate(603,286)"/>
<path d="M0 0 C1.65 0 3.3 0 5 0 C5.33 0.99 5.66 1.98 6 3 C4.02 3.33 2.04 3.66 0 4 C0 2.68 0 1.36 0 0 Z " fill="#040504" transform="translate(791,282)"/>
<path d="M0 0 C2.31 0.33 4.62 0.66 7 1 C3.25 3 3.25 3 1 3 C0.67 3.66 0.34 4.32 0 5 C0.99 5.33 1.98 5.66 3 6 C1.68 6 0.36 6 -1 6 C-0.67 4.02 -0.34 2.04 0 0 Z " fill="#262725" transform="translate(422,249)"/>
<path d="M0 0 C1.98 0 3.96 0 6 0 C6.33 0.66 6.66 1.32 7 2 C5.576875 2.185625 5.576875 2.185625 4.125 2.375 C0.91332809 2.71687177 0.91332809 2.71687177 -1 5 C-0.67 3.35 -0.34 1.7 0 0 Z " fill="#504F4F" transform="translate(1443,312)"/>
<path d="M0 0 C0.99 0 1.98 0 3 0 C3 1.65 3 3.3 3 5 C1.68 5 0.36 5 -1 5 C-0.67 3.35 -0.34 1.7 0 0 Z " fill="#1E1E1F" transform="translate(430,252)"/>
<path d="M0 0 C0.99 0.33 1.98 0.66 3 1 C2.67 2.32 2.34 3.64 2 5 C0.68 4.67 -0.64 4.34 -2 4 C-1.34 2.68 -0.68 1.36 0 0 Z " fill="#0B0A0B" transform="translate(269,185)"/>
<path d="M0 0 C1.32 0.33 2.64 0.66 4 1 C3.34 2.98 2.68 4.96 2 7 C3.32 7.33 4.64 7.66 6 8 C4.35 8 2.7 8 1 8 C0.67 5.36 0.34 2.72 0 0 Z " fill="#B1B0AE" transform="translate(909,252)"/>
<path d="M0 0 C1.98 0 3.96 0 6 0 C5.67 2.31 5.34 4.62 5 7 C4.67 7 4.34 7 4 7 C3.896875 6.21625 3.79375 5.4325 3.6875 4.625 C3.22404978 1.66954819 3.22404978 1.66954819 0 0 Z " fill="#BAB9B9" transform="translate(429,250)"/>
<path d="M0 0 C0.33 0.99 0.66 1.98 1 3 C0.01 4.485 0.01 4.485 -1 6 C-4.625 6.1875 -4.625 6.1875 -8 6 C-7.4225 5.7525 -6.845 5.505 -6.25 5.25 C-3.6997003 3.83316683 -1.98214299 2.12372463 0 0 Z " fill="#EBEAEB" transform="translate(410,197)"/>
</svg>
