<?xml version="1.0" standalone="no"?>
<!DOCTYPE svg PUBLIC "-//W3C//DTD SVG 20010904//EN"
 "http://www.w3.org/TR/2001/REC-SVG-20010904/DTD/svg10.dtd">
<svg version="1.0" xmlns="http://www.w3.org/2000/svg"
 width="68.000000pt" height="76.000000pt" viewBox="0 0 68.000000 76.000000"
 preserveAspectRatio="xMidYMid meet">
<metadata>
Created by potrace 1.10, written by Peter Selinger 2001-2011
</metadata>
<g transform="translate(0.000000,76.000000) scale(0.100000,-0.100000)"
fill="#000000" stroke="none">
<path d="M257 713 c-4 -3 -7 -22 -7 -40 0 -30 -3 -34 -20 -29 -11 3 -29 9 -41
12 -40 11 -86 -69 -73 -129 6 -29 30 -47 63 -47 12 0 21 -4 21 -10 0 -5 -4
-10 -8 -10 -5 0 -17 -18 -28 -40 -15 -32 -24 -40 -46 -40 -24 0 -28 -5 -38
-55 -9 -43 -9 -59 0 -70 6 -8 9 -23 6 -33 -4 -11 1 -28 11 -41 14 -17 55 -29
205 -61 103 -22 194 -37 203 -34 45 18 113 177 83 196 -7 4 -19 8 -25 8 -9 0
-13 17 -13 49 0 30 -5 52 -12 55 -7 3 9 5 36 3 46 -2 49 0 67 33 22 41 25 103
5 119 -8 7 -31 15 -51 18 -28 5 -35 9 -29 22 17 41 16 59 -6 71 -29 16 -46 7
-66 -32 -9 -18 -18 -34 -19 -36 -1 -1 -15 3 -31 9 -26 11 -43 14 -96 18 -14 1
-18 10 -18 39 0 21 -5 43 -12 50 -13 13 -50 16 -61 5z m57 -41 c11 -39 5 -46
-29 -38 -19 5 -25 13 -25 35 0 51 40 52 54 3z m256 -37 c0 -2 -5 -16 -12 -30
-12 -26 -20 -29 -50 -17 -17 7 -16 9 2 40 17 28 23 31 40 22 11 -6 20 -13 20
-15z m-262 -22 c57 -12 72 -19 68 -30 -3 -8 -6 -23 -6 -33 0 -16 -4 -16 -57
-4 -75 18 -100 12 -108 -26 -7 -33 -11 -35 -51 -20 -25 10 -26 14 -22 60 3 27
11 57 18 65 15 18 25 17 158 -12z m102 -30 c0 -31 -15 -61 -25 -51 -9 9 5 78
16 78 5 0 9 -12 9 -27z m123 -14 c66 -12 79 -23 55 -47 -6 -6 -12 -34 -12 -62
-1 -39 -4 -50 -16 -48 -11 2 -14 14 -12 41 4 42 -7 50 -92 62 -36 6 -46 11
-42 22 3 8 6 24 6 35 0 16 5 19 23 15 12 -3 52 -11 90 -18z m1 -89 c13 -13 -4
-69 -27 -90 -11 -11 -31 -20 -43 -20 -18 0 -21 4 -17 23 4 21 4 21 -10 4 -14
-16 -21 -17 -82 -6 -56 11 -66 15 -62 31 3 10 1 18 -4 18 -5 0 -9 -7 -9 -15 0
-22 -24 -18 -46 6 -21 24 -24 96 -4 109 13 8 289 -46 304 -60z m106 25 c0 -52
-17 -95 -38 -95 -11 0 -14 11 -10 54 7 86 48 121 48 41z m-418 -80 c11 -14 26
-25 35 -25 10 0 14 -6 10 -20 -3 -11 -1 -20 4 -20 5 0 9 7 9 15 0 18 -1 18 53
6 23 -6 54 -12 69 -15 21 -5 25 -11 22 -28 l-5 -23 12 23 c7 13 21 22 36 22
13 0 32 5 43 12 10 7 22 9 26 6 4 -4 3 -64 -2 -134 -7 -101 -12 -129 -26 -137
-24 -16 -387 62 -402 85 -8 14 -5 34 13 85 32 92 68 173 77 173 3 0 15 -11 26
-25z m-92 -67 c0 -7 -7 -32 -16 -55 -18 -47 -40 -59 -30 -17 4 15 10 39 13 55
5 28 33 42 33 17z m450 -107 c0 -25 -20 -91 -28 -91 -4 0 -5 27 -4 59 3 47 7
59 18 54 8 -3 14 -13 14 -22z"/>
</g>
</svg>
