<?xml version="1.0" encoding="UTF-8"?>
<svg version="1.1" xmlns="http://www.w3.org/2000/svg" width="252" height="187">
<path d="M0 0 C83.16 0 166.32 0 252 0 C252 61.71 252 123.42 252 187 C168.84 187 85.68 187 0 187 C0 125.29 0 63.58 0 0 Z " fill="#F5F5F5" transform="translate(0,0)"/>
<path d="M0 0 C5.74954821 5.01944685 9.5181602 10.56599104 10.34765625 18.19921875 C10.77471843 28.32825773 8.55979109 35.31227799 1.8125 42.875 C-2.18061029 46.61191516 -6.85997626 48.33492189 -12 50 C-8.86911972 56.56152569 -5.61532274 62.77432633 -1.484375 68.7578125 C0.64087913 71.96806479 2.425053 75.33098897 4.2421875 78.72265625 C9.93319802 89.3332292 15.7393352 99.85188484 22.20703125 110.01171875 C24.00937049 113.01561748 25.45231818 116.08025578 26.9375 119.25 C28.84022775 122.97245179 28.84022775 122.97245179 32.37109375 124.90234375 C34.65201532 125.16210549 36.71818659 125.21803995 39 125 C39 126.32 39 127.64 39 129 C-35.25 129 -109.5 129 -186 129 C-186 128.01 -186 127.02 -186 126 C-182.7 126 -179.4 126 -176 126 C-175.69835937 124.84951172 -175.69835937 124.84951172 -175.390625 123.67578125 C-173.42793179 118.48787587 -170.59191837 113.93835274 -167.75 109.1875 C-162.72263147 100.68364888 -157.7974395 92.13566283 -153 83.5 C-147.90694004 74.35038239 -142.69770735 65.27798541 -137.39941406 56.24584961 C-133.14488566 48.98550757 -128.95213814 41.69214791 -124.78640747 34.38067627 C-122.46343809 30.30547619 -120.13354071 26.23422812 -117.80517578 22.16210938 C-116.65761237 20.15193337 -115.51247607 18.14036835 -114.37060547 16.12695312 C-112.98438258 13.68402305 -111.58769089 11.24744151 -110.1875 8.8125 C-109.79723633 8.11777588 -109.40697266 7.42305176 -109.00488281 6.70727539 C-106.34270048 2.11423349 -106.34270048 2.11423349 -103 1 C-102.12184083 2.43557226 -101.24772719 3.87361901 -100.375 5.3125 C-99.88773437 6.11300781 -99.40046875 6.91351563 -98.8984375 7.73828125 C-97.30658817 10.47324872 -95.7807522 13.22603478 -94.2734375 16.0078125 C-90.70230675 22.58554061 -86.97876913 29.07330093 -83.25 35.5625 C-75.37636701 49.27252592 -75.37636701 49.27252592 -71.875 55.68359375 C-71.42350586 56.50980225 -70.97201172 57.33601074 -70.50683594 58.18725586 C-69.69659586 59.67820463 -68.89210576 61.17229965 -68.09472656 62.67016602 C-66.11244667 66.31854768 -64.12167564 69.24392602 -61 72 C-60.74025391 71.3002002 -60.48050781 70.60040039 -60.21289062 69.87939453 C-58.88788309 66.73383518 -57.30560254 63.88258756 -55.59375 60.9296875 C-55.26838257 60.36678009 -54.94301514 59.80387268 -54.60778809 59.22390747 C-53.92351012 58.04143756 -53.23765181 56.8598809 -52.55029297 55.67919922 C-51.50018549 53.87531864 -50.45475618 52.06879321 -49.41015625 50.26171875 C-44.3179789 41.47696834 -44.3179789 41.47696834 -42 38 C-42.28409789 35.30107004 -42.92261588 33.17426195 -44.0234375 30.6953125 C-46.27903797 24.46985519 -45.88470462 17.28399082 -43.375 11.1875 C-39.34288532 3.41830341 -34.11423708 -1.58496457 -26 -5 C-15.8930655 -7.42503846 -8.76910803 -5.74443655 0 0 Z " fill="#322E2F" transform="translate(190,28)"/>
<path d="M0 0 C3.33075755 2.80540147 5.13527457 6.55237336 7.1875 10.3125 C7.99961547 11.77755697 8.81212174 13.24239737 9.625 14.70703125 C10.02847656 15.43744629 10.43195313 16.16786133 10.84765625 16.92041016 C14.82247497 24.09361056 18.93293318 31.19055682 23.0859375 38.26171875 C30.15154971 50.30059067 37.06828474 62.4022205 43.76196289 74.65112305 C47.11156769 80.74581954 50.61186789 86.67489673 54.41796875 92.49658203 C56.63088324 95.99831432 58.56626571 99.63022156 60.51171875 103.28515625 C62.50107377 106.9140322 64.68516836 110.41041976 66.8984375 113.90625 C68 116 68 116 68 119 C23.45 119 -21.1 119 -67 119 C-64.23414799 110.70244397 -64.23414799 110.70244397 -61 107 C-57.60839844 106.22705078 -57.60839844 106.22705078 -53.609375 106.1953125 C-52.55245453 106.17475296 -52.55245453 106.17475296 -51.47418213 106.15377808 C-49.23213721 106.11650082 -46.99231059 106.12019024 -44.75 106.125 C-43.22652792 106.10687114 -41.70308515 106.08606782 -40.1796875 106.0625 C-36.45296421 106.01067524 -32.72712906 105.99556746 -29 106 C-28.505 104.515 -28.505 104.515 -28 103 C-37.9 103 -47.8 103 -58 103 C-57.34 101.35 -56.68 99.7 -56 98 C-47.585 97.505 -47.585 97.505 -39 97 C-38.67 96.34 -38.34 95.68 -38 95 C-42.95 95 -47.9 95 -53 95 C-52.07134934 91.28539734 -50.95881328 88.85541364 -49.11328125 85.546875 C-48.51185303 84.46519043 -47.9104248 83.38350586 -47.29077148 82.26904297 C-46.63159664 81.09588871 -45.97216613 79.92287808 -45.3125 78.75 C-44.63145072 77.5314916 -43.95054448 76.31290324 -43.26977539 75.09423828 C-38.3542455 66.31633635 -33.31250142 57.61517872 -28.21337891 48.94262695 C-23.94040294 41.66070844 -19.7925287 34.31523968 -15.6875 26.9375 C-10.63030355 17.84886914 -5.44623721 8.86094149 0 0 Z " fill="#F3F3F3" transform="translate(85,35)"/>
<path d="M0 0 C2.41763491 2.21251288 3.91590741 4.39479316 5.453125 7.28125 C5.90405518 8.11793213 6.35498535 8.95461426 6.81958008 9.81665039 C7.29161865 10.70215576 7.76365723 11.58766113 8.25 12.5 C11.77706009 19.02520631 15.40548998 25.38386205 19.46875 31.59375 C21.5795592 34.91073589 23.42772373 38.34499941 25.28515625 41.80859375 C30.66235441 51.81581676 36.20422838 61.72920173 42 71.5 C45.629224 77.61899009 49.16364631 83.78439773 52.625 90 C53.06328125 90.78439453 53.5015625 91.56878906 53.953125 92.37695312 C57 97.87607107 57 97.87607107 57 99 C37.53 99 18.06 99 -2 99 C-3.98 95.37 -5.96 91.74 -8 88 C-9.73819891 84.95043801 -11.48510295 81.9088564 -13.25 78.875 C-13.71237061 78.07239746 -14.17474121 77.26979492 -14.65112305 76.44287109 C-17.0390524 72.31049309 -19.47101645 68.21722168 -22.00390625 64.171875 C-22.71208496 63.02356201 -22.71208496 63.02356201 -23.43457031 61.85205078 C-24.3340975 60.39820829 -25.24826133 58.95329214 -26.17871094 57.51904297 C-29.15141568 52.67795151 -29.15141568 52.67795151 -28.39453125 49.2890625 C-27.93433594 48.53367188 -27.47414062 47.77828125 -27 47 C-26.66742188 46.27296875 -26.33484375 45.5459375 -25.9921875 44.796875 C-23.02299404 39.35681425 -23.02299404 39.35681425 -19.89453125 38.265625 C-17.6875 38 -17.6875 38 -14 38 C-13.67 37.01 -13.34 36.02 -13 35 C-15.31 35 -17.62 35 -20 35 C-19.4140625 33.046875 -19.4140625 33.046875 -18 31 C-14.9609375 30.390625 -14.9609375 30.390625 -11.375 30.25 C-10.18648437 30.19328125 -8.99796875 30.1365625 -7.7734375 30.078125 C-6.85820312 30.05234375 -5.94296875 30.0265625 -5 30 C-5 29.34 -5 28.68 -5 28 C-8.3 27.67 -11.6 27.34 -15 27 C-10.50129292 17.62300743 -5.60345631 8.76176804 0 0 Z " fill="#F4F4F4" transform="translate(159,54)"/>
<path d="M0 0 C5.58708269 3.83389468 8.48096089 8.02950934 10.265625 14.5546875 C11.28106471 22.79537131 10.9478825 29.57537398 6.1015625 36.4921875 C0.82535866 42.41949734 -4.06732325 43.7783785 -11.734375 44.5546875 C-14.06556223 40.48812516 -16.39207605 36.41896101 -18.71240234 32.34619141 C-19.59843235 30.79299308 -20.48832123 29.24199728 -21.37890625 27.69140625 C-21.82621094 26.90378906 -22.27351562 26.11617187 -22.734375 25.3046875 C-23.3221875 24.27601562 -23.3221875 24.27601562 -23.921875 23.2265625 C-24.734375 21.5546875 -24.734375 21.5546875 -24.734375 19.5546875 C-26.054375 19.5546875 -27.374375 19.5546875 -28.734375 19.5546875 C-29.1365625 20.885 -29.1365625 20.885 -29.546875 22.2421875 C-30.6594385 25.3456541 -31.83633278 27.86579435 -33.734375 30.5546875 C-34.394375 30.5546875 -35.054375 30.5546875 -35.734375 30.5546875 C-37.77824899 24.42306553 -37.80315536 17.02073223 -35.8984375 10.84375 C-32.55309388 4.26532261 -27.4239213 0.31925312 -20.859375 -2.8203125 C-13.0226508 -4.38765734 -7.06350848 -3.93157548 0 0 Z " fill="#F2F2F2" transform="translate(185.734375,29.4453125)"/>
<path d="M0 0 C5.96227713 7.66051087 10.72782669 16.32931055 15.3125 24.86328125 C21.00694851 35.44810105 26.85701467 45.88749097 33.23828125 56.07421875 C35.75695145 60.25711005 37.92592238 64.58261352 40 69 C39.01 69.66 38.02 70.32 37 71 C23.33735883 47.68678626 23.33735883 47.68678626 17.41552734 37.03710938 C13.58280701 30.18322021 9.55249709 23.44546018 5.51538086 16.71044922 C2.44734145 11.56469583 -0.39638037 6.39636417 -3 1 C-2.01 0.67 -1.02 0.34 0 0 Z " fill="#3C3839" transform="translate(179,82)"/>
<path d="M0 0 C0.99 0 1.98 0 3 0 C4.82421875 2.5546875 4.82421875 2.5546875 6.6875 5.875 C7.31011719 6.96554688 7.93273437 8.05609375 8.57421875 9.1796875 C10 12 10 12 10 14 C9.01 14.33 8.02 14.66 7 15 C5.82539808 13.06730041 4.66055528 11.12866687 3.5 9.1875 C2.8503125 8.10855469 2.200625 7.02960938 1.53125 5.91796875 C0 3 0 3 0 0 Z " fill="#393637" transform="translate(197,117)"/>
<path d="M0 0 C8 9.42857143 8 9.42857143 8 14 C7.01 14.33 6.02 14.66 5 15 C3.96122737 13.4493684 2.94457445 11.88390319 1.9375 10.3125 C1.36902344 9.44238281 0.80054688 8.57226562 0.21484375 7.67578125 C-1.19442012 4.57177563 -1.00772958 3.1959424 0 0 Z " fill="#3E3A3B" transform="translate(191,103)"/>
<path d="M0 0 C2.49552403 2.27597646 4.06622986 4.60721178 5.6875 7.5625 C6.12449219 8.34753906 6.56148437 9.13257812 7.01171875 9.94140625 C8 12 8 12 8 14 C7.01 14.33 6.02 14.66 5 15 C1.535 9.06 1.535 9.06 -2 3 C-1.34 2.67 -0.68 2.34 0 2 C0 1.34 0 0.68 0 0 Z " fill="#454243" transform="translate(166,60)"/>
<path d="M0 0 C3.63 0 7.26 0 11 0 C10.67 1.32 10.34 2.64 10 4 C7.03 4 4.06 4 1 4 C0.67 2.68 0.34 1.36 0 0 Z " fill="#3F3B3C" transform="translate(62,138)"/>
<path d="M0 0 C1.89213369 2.38573379 3.02391783 4.07175348 4 7 C3.01 8.485 3.01 8.485 2 10 C0.35 7.03 -1.3 4.06 -3 1 C-2.01 0.67 -1.02 0.34 0 0 Z " fill="#403D3D" transform="translate(179,82)"/>
<path d="M0 0 C0.99 0 1.98 0 3 0 C3.99 2.31 4.98 4.62 6 7 C5.01 7.33 4.02 7.66 3 8 C0 3.375 0 3.375 0 0 Z " fill="#343031" transform="translate(197,117)"/>
<path d="M0 0 C4 4.75 4 4.75 4 7 C3.34 7 2.68 7 2 7 C1.67 7.66 1.34 8.32 1 9 C-0.61949011 6.42786866 -1.04408751 5.32330841 -0.625 2.25 C-0.41875 1.5075 -0.2125 0.765 0 0 Z " fill="#454243" transform="translate(191,103)"/>
<path d="M0 0 C2.50298434 2.93828597 3.46930939 5.17902761 4 9 C1 8 1 8 -0.25 5.625 C-1 3 -1 3 0 0 Z " fill="#3A3738" transform="translate(162,53)"/>
</svg>
